<svg xmlns="http://www.w3.org/2000/svg" xmlns:xlink="http://www.w3.org/1999/xlink" width="310" zoomAndPan="magnify" viewBox="0 0 232.5 256.500001" height="342" preserveAspectRatio="xMidYMid meet" version="1.0"><defs><clipPath id="b4765994b9"><path d="M 3 0.0273438 L 228 0.0273438 L 228 253 L 3 253 Z M 3 0.0273438 " clip-rule="nonzero"/></clipPath><clipPath id="2d9531dce7"><path d="M 31 63 L 232 63 L 232 255.976562 L 31 255.976562 Z M 31 63 " clip-rule="nonzero"/></clipPath></defs><path fill="#2f80ae" d="M 181.628906 38.757812 C 181.628906 38.519531 181.390625 38.339844 181.152344 38.042969 C 180.074219 36.847656 178.703125 35.828125 177.507812 34.695312 C 176.613281 33.796875 175.65625 32.902344 174.820312 32.003906 C 173.984375 31.167969 173.089844 30.390625 172.371094 29.433594 C 171.597656 28.359375 170.820312 27.28125 169.863281 26.324219 C 168.191406 24.59375 166.28125 23.578125 164.132812 22.5 C 161.683594 21.246094 155.710938 18.195312 155.710938 18.195312 C 155.832031 18.257812 155.53125 20.289062 155.472656 20.46875 C 155.292969 21.183594 155.054688 21.84375 154.816406 22.5 C 154.277344 23.875 153.621094 25.070312 152.90625 26.324219 C 152.25 27.523438 151.234375 28.417969 150.515625 29.613281 C 150.515625 29.613281 151.113281 32.0625 151.292969 33.082031 C 151.472656 34.214844 151.652344 35.351562 151.652344 36.488281 C 151.710938 37.683594 151.472656 38.820312 151.351562 39.953125 C 151.292969 40.910156 151.414062 42.046875 151.652344 42.941406 C 152.425781 46.289062 155.890625 48.859375 159.355469 48.5625 C 160.609375 50.117188 161.863281 51.847656 163.832031 52.148438 C 165.027344 52.328125 166.222656 51.96875 167.238281 51.371094 C 168.253906 50.773438 169.148438 49.9375 169.984375 49.101562 C 172.671875 46.46875 178.402344 44.558594 179.777344 41.03125 C 180.015625 40.371094 180.613281 39.894531 181.089844 39.417969 C 181.507812 39.117188 181.628906 38.9375 181.628906 38.757812 Z M 181.628906 38.757812 " fill-opacity="1" fill-rule="nonzero"/><path fill="#f7f2e8" d="M 12.332031 47.726562 L 220.980469 47.726562 L 220.980469 192.972656 L 12.332031 192.972656 Z M 190.40625 194.886719 C 190.40625 209.410156 197.394531 221.546875 206.53125 223.996094 C 206.769531 224.054688 206.886719 224.234375 206.886719 224.476562 C 206.886719 224.714844 206.710938 224.894531 206.53125 224.953125 C 197.332031 227.464844 190.40625 239.539062 190.40625 254.0625 C 190.40625 254.183594 190.40625 254.363281 190.40625 254.480469 L 229.699219 254.480469 C 229.699219 254.363281 229.699219 254.183594 229.699219 254.0625 C 229.699219 239.539062 222.714844 227.402344 213.578125 224.953125 C 213.335938 224.894531 213.21875 224.714844 213.21875 224.476562 C 213.21875 224.234375 213.398438 224.054688 213.578125 223.996094 C 222.773438 221.484375 229.699219 209.410156 229.699219 194.886719 C 229.699219 194.765625 229.699219 194.589844 229.699219 194.46875 L 190.40625 194.46875 C 190.40625 194.589844 190.40625 194.707031 190.40625 194.886719 Z M 190.40625 194.886719 " fill-opacity="1" fill-rule="nonzero"/><path fill="#f6ad9a" d="M 75.332031 63.085938 L 108.117188 63.085938 L 108.117188 70.679688 L 75.332031 70.679688 Z M 25.53125 78.746094 L 58.316406 78.746094 L 58.316406 102.359375 L 25.53125 102.359375 Z M 75.332031 78.746094 L 108.117188 78.746094 L 108.117188 102.359375 L 75.332031 102.359375 Z M 75.332031 142.105469 L 108.117188 142.105469 L 108.117188 165.71875 L 75.332031 165.71875 Z M 125.195312 78.746094 L 157.980469 78.746094 L 157.980469 102.359375 L 125.195312 102.359375 Z M 125.195312 110.425781 L 157.980469 110.425781 L 157.980469 134.039062 L 125.195312 134.039062 Z M 175.058594 142.105469 L 207.84375 142.105469 L 207.84375 165.71875 L 175.058594 165.71875 Z M 230.65625 178.570312 C 230.355469 174.503906 227.371094 168.945312 227.191406 164.820312 C 227.191406 164.523438 222.832031 163.804688 222.414062 163.683594 C 220.800781 163.386719 219.128906 163.085938 217.457031 162.847656 C 214.171875 162.429688 210.890625 162.25 207.605469 162.371094 C 204.320312 162.488281 200.976562 162.847656 197.75 163.566406 C 196.976562 163.746094 196.140625 163.925781 195.363281 164.105469 C 194.824219 164.222656 193.273438 164.34375 192.972656 164.761719 C 192.734375 165.058594 192.972656 166.136719 192.914062 166.554688 C 192.496094 170.441406 188.257812 170.796875 185.152344 171.097656 C 182.105469 171.394531 179.121094 171.695312 176.132812 172.472656 C 172.910156 173.25 169.746094 174.445312 167.058594 176.355469 C 163.117188 179.226562 161.324219 183.289062 160.789062 187.714844 C 160.128906 188.429688 159.472656 189.148438 158.9375 189.925781 C 157.503906 191.898438 156.429688 194.109375 155.414062 196.320312 C 153.800781 199.730469 152.367188 203.195312 151.113281 206.78125 C 149.023438 213.117188 145.5 223.21875 143.351562 229.496094 C 148.546875 232.007812 156.070312 232.785156 162.222656 231.707031 C 163.234375 227.882812 163.773438 224.59375 165.683594 221.664062 C 166.640625 220.230469 167.714844 218.199219 168.609375 216.105469 C 171 221.664062 173.386719 227.222656 175.894531 232.722656 C 178.820312 232.425781 181.6875 231.648438 184.433594 230.632812 C 187.0625 229.675781 190.109375 228.539062 192.316406 226.804688 C 191.242188 224.175781 190.109375 221.726562 189.390625 218.914062 C 188.613281 216.046875 188.078125 213.058594 187.601562 210.128906 C 187.003906 206.484375 187.359375 203.253906 186.941406 199.609375 C 186.882812 198.953125 186.347656 192.734375 185.511719 192.675781 C 185.570312 192.675781 196.796875 192.855469 199.542969 192.792969 C 205.097656 192.734375 211.425781 192.792969 216.980469 192.792969 C 220.800781 192.792969 224.386719 192.617188 226.535156 190.703125 C 230.238281 187.832031 230.953125 182.691406 230.65625 178.570312 Z M 195.125 27.523438 L 203.246094 37.085938 C 204.023438 38.042969 203.902344 39.417969 203.007812 40.253906 L 190.707031 50.714844 L 179.71875 37.742188 L 192.019531 27.28125 C 192.914062 26.503906 194.289062 26.625 195.125 27.523438 Z M 195.125 27.523438 " fill-opacity="1" fill-rule="nonzero"/><path fill="#2f80ae" d="M 186.226562 32.125 L 197.273438 45.09375 L 184.078125 56.332031 L 173.089844 43.363281 Z M 186.226562 32.125 " fill-opacity="1" fill-rule="nonzero"/><path fill="#dd7a5e" d="M 140.84375 93.09375 C 140.484375 93.332031 140.066406 93.570312 139.648438 93.628906 L 122.808594 97.875 C 122.390625 97.933594 122.089844 97.574219 122.210938 97.15625 L 129.136719 81.199219 C 129.316406 80.78125 129.554688 80.421875 129.914062 80.0625 L 130.332031 82.929688 C 130.390625 83.171875 130.570312 83.410156 130.808594 83.527344 L 133.140625 84.246094 C 133.378906 84.304688 133.617188 84.546875 133.617188 84.84375 L 133.976562 87.234375 C 134.035156 87.472656 134.214844 87.714844 134.453125 87.832031 L 136.78125 88.550781 C 137.019531 88.609375 137.257812 88.847656 137.257812 89.148438 L 137.617188 91.597656 C 137.675781 91.835938 137.855469 92.078125 138.09375 92.195312 Z M 125.972656 14.730469 C 125.792969 8.453125 131.585938 2.355469 137.855469 2.597656 C 141.082031 2.714844 144.1875 4.269531 146.277344 6.78125 C 148.1875 9.050781 149.203125 11.859375 150.15625 14.671875 C 151.832031 16.046875 153.800781 17.0625 155.652344 18.195312 C 156.011719 20.410156 155.53125 22.679688 154.578125 24.710938 C 153.980469 25.90625 153.324219 27.042969 152.488281 28.058594 C 152.070312 28.597656 151.652344 29.074219 151.113281 29.554688 C 150.457031 30.152344 150.457031 29.554688 150.21875 28.957031 C 150.097656 28.65625 149.917969 28.359375 149.738281 28.058594 C 149.382812 27.460938 148.964844 26.863281 148.425781 26.386719 C 148.1875 26.207031 147.769531 25.789062 147.472656 25.789062 C 147.113281 25.789062 146.8125 26.265625 146.574219 26.503906 C 145.917969 27.164062 145.203125 27.820312 144.484375 28.476562 C 144.304688 28.65625 144.125 28.777344 143.949219 28.894531 C 143.707031 29.015625 143.46875 29.136719 143.171875 29.136719 C 142.632812 29.253906 142.097656 29.195312 141.558594 29.074219 C 141.261719 29.015625 140.902344 28.835938 140.605469 28.71875 C 139.46875 28.179688 138.335938 27.640625 137.257812 26.921875 C 137.019531 26.746094 136.722656 26.503906 136.421875 26.386719 C 136.125 26.265625 136.125 26.386719 135.828125 26.625 C 135.410156 26.984375 134.929688 27.222656 134.394531 27.164062 C 133.734375 27.101562 133.257812 26.566406 132.960938 25.96875 C 132.660156 25.371094 132.542969 24.710938 132.304688 24.113281 C 131.824219 23.039062 130.988281 22.261719 130.09375 21.542969 C 129.257812 20.828125 128.242188 20.347656 127.464844 19.511719 C 126.75 18.734375 126.273438 17.777344 126.03125 16.761719 C 126.09375 16.105469 126.03125 15.449219 125.972656 14.730469 Z M 5.347656 167.273438 C 5.824219 164.878906 6.125 161.535156 6.300781 159.082031 C 6.421875 157.886719 6.421875 156.929688 7.675781 156.511719 C 8.214844 156.332031 9.46875 156.75 9.886719 157.289062 C 10.421875 157.886719 10.0625 159.5625 10.0625 160.339844 C 10.003906 162.609375 9.945312 164.878906 9.765625 167.152344 C 9.707031 168.289062 9.585938 169.421875 9.527344 170.5 C 9.46875 171.15625 9.347656 171.8125 9.226562 172.472656 C 9.167969 172.769531 9.289062 173.1875 8.929688 173.308594 C 8.691406 173.367188 8.390625 173.1875 8.214844 173.070312 C 7.136719 172.472656 6.421875 171.214844 5.703125 170.199219 C 5.464844 169.84375 5.226562 169.421875 5.109375 168.945312 C 5.109375 168.40625 5.226562 167.871094 5.347656 167.273438 Z M 5.347656 167.273438 " fill-opacity="1" fill-rule="nonzero"/><g clip-path="url(#b4765994b9)"><path fill="#f7b168" d="M 25.53125 63.085938 L 58.316406 63.085938 L 58.316406 70.679688 L 25.53125 70.679688 Z M 25.53125 142.105469 L 58.316406 142.105469 L 58.316406 165.71875 L 25.53125 165.71875 Z M 226.117188 205.527344 L 194.167969 205.527344 C 193.871094 204.449219 197.453125 221.367188 210.171875 221.367188 C 222.890625 221.367188 226.476562 204.390625 226.117188 205.527344 Z M 226.117188 243.421875 L 194.167969 243.421875 C 193.273438 246.351562 192.734375 249.578125 192.617188 252.988281 L 227.609375 252.988281 C 227.550781 249.578125 227.011719 246.351562 226.117188 243.421875 Z M 202.769531 146.53125 C 204.976562 150.117188 205.695312 154.539062 204.679688 158.605469 C 200.738281 158.1875 197.15625 156.332031 193.988281 153.941406 C 192.855469 153.105469 191.71875 152.207031 190.644531 151.371094 C 188.375 149.578125 186.167969 147.726562 183.957031 145.871094 C 182.40625 144.558594 181.570312 143.601562 180.074219 142.226562 C 179.71875 141.867188 179.300781 141.507812 178.820312 141.210938 C 178.285156 140.851562 178.164062 140.851562 177.507812 141.03125 C 176.375 141.390625 175.238281 141.6875 174.042969 141.867188 C 172.492188 142.105469 170.9375 142.105469 169.386719 141.75 C 168.730469 141.570312 168.132812 141.210938 167.59375 140.851562 C 166.339844 140.074219 165.085938 139.296875 163.832031 138.519531 C 162.28125 137.5625 164.191406 136.847656 165.207031 136.964844 C 166.460938 137.085938 167.59375 137.804688 168.847656 138.042969 C 170.042969 138.28125 171.835938 138.699219 173.03125 138.222656 C 173.507812 138.042969 177.328125 136.726562 176.015625 136.011719 C 175.476562 135.710938 174.820312 135.652344 174.285156 135.472656 C 173.6875 135.292969 172.132812 134.992188 171.773438 134.394531 C 171.417969 133.738281 171.894531 133.199219 172.550781 133.199219 C 173.148438 133.199219 173.804688 133.199219 174.402344 133.140625 C 175.65625 133.140625 176.910156 133.140625 178.164062 133.140625 C 178.582031 133.140625 179 133.140625 179.359375 133.261719 C 179.65625 133.378906 179.957031 133.558594 180.195312 133.796875 C 181.570312 134.875 182.882812 136.011719 184.078125 137.207031 C 185.628906 138.878906 194.886719 142.765625 202.769531 146.53125 Z M 130.273438 79.761719 L 180.734375 36.847656 L 191.71875 49.816406 L 141.261719 92.734375 L 140.84375 93.09375 L 138.09375 92.195312 C 137.855469 92.136719 137.617188 91.898438 137.617188 91.597656 L 137.257812 89.148438 C 137.199219 88.910156 137.019531 88.667969 136.78125 88.550781 L 134.453125 87.832031 C 134.214844 87.773438 133.976562 87.535156 133.976562 87.234375 L 133.617188 84.84375 C 133.558594 84.605469 133.378906 84.367188 133.140625 84.246094 L 130.808594 83.527344 C 130.570312 83.46875 130.332031 83.230469 130.332031 82.929688 L 129.914062 80.0625 Z M 125.195312 142.105469 L 125.195312 165.71875 L 157.980469 165.71875 L 157.980469 142.105469 Z M 138.632812 161.535156 L 131.707031 154.601562 L 134.152344 152.148438 L 138.632812 156.632812 L 149.082031 146.171875 L 151.53125 148.621094 Z M 176.613281 30.929688 C 176.492188 31.585938 176.074219 32.003906 175.597656 32.484375 C 175.121094 32.960938 174.582031 33.320312 174.042969 33.679688 C 171.953125 35.054688 169.925781 36.308594 167.476562 36.785156 C 167.414062 34.574219 167.414062 32.363281 167.65625 30.152344 C 166.160156 30.03125 164.609375 29.792969 163.234375 29.136719 C 161.742188 28.417969 160.789062 27.042969 160.667969 25.371094 C 159.234375 25.191406 157.683594 24.710938 156.785156 23.578125 C 156.011719 22.679688 155.652344 21.363281 155.949219 20.230469 C 154.757812 20.230469 153.5625 19.75 152.726562 18.914062 C 152.308594 18.496094 151.949219 17.957031 151.769531 17.417969 C 151.652344 17.121094 151.589844 16.820312 151.53125 16.523438 C 151.472656 16.34375 151.414062 15.625 151.414062 15.625 C 151.414062 15.625 150.753906 15.625 150.515625 15.625 C 150.039062 15.6875 149.5625 15.625 149.082031 15.625 C 148.128906 15.625 147.230469 15.566406 146.277344 15.386719 C 145.261719 15.207031 143.46875 14.910156 143.171875 13.714844 C 143.050781 13.054688 142.753906 12.457031 142.277344 12.039062 C 141.679688 11.503906 140.84375 11.261719 140.066406 11.441406 C 139.289062 11.621094 138.632812 12.28125 138.453125 13.117188 C 138.273438 13.953125 138.691406 14.910156 139.347656 15.328125 C 138.8125 15.746094 138.15625 16.046875 137.5 16.222656 C 136.246094 16.644531 134.992188 16.882812 133.675781 16.941406 C 132.421875 17 131.167969 17 129.914062 16.761719 C 128.539062 16.523438 127.046875 15.925781 125.972656 14.96875 C 125.675781 12.699219 125.972656 10.484375 126.988281 8.453125 C 128.421875 5.644531 130.808594 3.3125 133.675781 2 C 138.035156 0.0273438 143.230469 0.804688 146.933594 3.851562 C 148.128906 4.867188 149.203125 6.421875 149.144531 8.09375 C 150.816406 7.019531 153.023438 6.960938 154.875 7.738281 C 156.667969 8.574219 158.039062 10.308594 158.398438 12.28125 C 159.953125 12.398438 161.324219 13.296875 162.28125 14.550781 C 163.234375 15.804688 163.59375 17.480469 163.234375 18.972656 C 165.324219 18.972656 167.476562 19.929688 168.789062 21.542969 C 169.925781 22.859375 170.519531 24.652344 170.460938 26.386719 C 170.699219 26.445312 170.878906 26.445312 171.058594 26.566406 C 171.714844 26.804688 172.253906 27.28125 172.789062 27.761719 C 174.105469 28.835938 175.359375 29.914062 176.613281 30.929688 Z M 45.714844 97.636719 C 50.074219 99.667969 53.777344 105.105469 57.71875 108.695312 C 58.554688 106.125 59.507812 103.554688 60.34375 100.984375 L 70.675781 101.222656 C 69.003906 107.675781 66.914062 114.011719 64.464844 120.230469 C 63.929688 121.546875 63.332031 122.917969 62.015625 123.457031 C 60.941406 123.9375 59.628906 123.636719 58.492188 123.277344 C 54.792969 122.144531 51.449219 120.589844 48.164062 118.4375 C 48.164062 122.917969 48.042969 127.34375 47.683594 131.765625 C 47.445312 134.816406 47.207031 138.160156 44.699219 139.894531 L 18.605469 139.957031 L 18.902344 159.800781 L 3.195312 159.800781 C 4.75 146.828125 5.824219 133.796875 6.480469 120.769531 C 6.78125 114.433594 7.136719 107.796875 10.304688 102.296875 C 18.246094 102.535156 26.1875 102.476562 33.710938 100.085938 C 35.683594 99.429688 37.59375 98.652344 39.5625 98.113281 C 41.535156 97.515625 43.804688 96.800781 45.714844 97.636719 Z M 27.441406 243.839844 C 29.53125 244.738281 31.859375 245.097656 33.890625 246.113281 C 35.980469 247.128906 38.25 251.730469 38.25 251.730469 L 22.1875 251.730469 C 22.1875 251.730469 19.378906 251.792969 18.1875 250.894531 C 17.707031 250.476562 17.289062 249.9375 16.8125 249.519531 C 16.394531 249.160156 15.855469 248.863281 15.320312 248.980469 C 14.960938 249.042969 14.960938 249.339844 14.902344 249.640625 C 14.839844 249.878906 14.722656 251.074219 14.664062 251.371094 C 14.601562 251.792969 14.246094 251.730469 14.246094 251.730469 L 9.644531 251.730469 C 9.644531 251.730469 8.808594 242.644531 8.871094 238.582031 C 8.871094 239.238281 19.5 239 20.515625 238.941406 C 22.902344 238.761719 22.367188 239.058594 23.621094 240.914062 C 24.574219 242.289062 26.007812 243.242188 27.441406 243.839844 Z M 70.136719 243.839844 C 72.230469 244.738281 74.558594 245.097656 76.589844 246.113281 C 78.617188 247.128906 80.945312 251.730469 80.945312 251.730469 L 64.882812 251.730469 C 64.882812 251.730469 62.078125 251.792969 60.882812 250.894531 C 60.40625 250.476562 59.988281 249.9375 59.507812 249.519531 C 59.089844 249.160156 58.554688 248.863281 58.015625 248.980469 C 57.65625 249.042969 57.65625 249.339844 57.597656 249.640625 C 57.539062 249.878906 57.417969 251.074219 57.359375 251.371094 C 57.300781 251.792969 56.941406 251.730469 56.941406 251.730469 L 52.34375 251.730469 C 52.34375 251.730469 51.507812 242.644531 51.566406 238.582031 C 51.566406 239.238281 62.195312 239 63.210938 238.941406 C 65.601562 238.761719 65.0625 239.058594 66.316406 240.914062 C 67.210938 242.289062 68.707031 243.242188 70.136719 243.839844 Z M 197.75 106.363281 C 197.511719 106.183594 197.394531 105.945312 197.511719 105.644531 C 197.75 104.808594 198.410156 104.089844 199.003906 103.433594 C 199.601562 102.714844 200.019531 102.238281 200.082031 101.339844 C 200.140625 100.683594 200.199219 100.027344 200.320312 99.308594 C 200.378906 98.53125 200.5 97.695312 200.679688 96.917969 C 200.796875 96.441406 201.035156 96.023438 201.273438 95.601562 C 201.453125 95.363281 201.632812 95.066406 201.8125 94.828125 C 203.246094 93.03125 205.515625 91.71875 207.546875 90.941406 C 208.082031 90.761719 208.621094 90.582031 209.15625 90.402344 C 213.398438 89.265625 218.773438 90.34375 220.921875 94.585938 C 222.054688 96.800781 221.996094 99.488281 221.28125 101.878906 C 220.5625 104.269531 219.488281 106.542969 218.234375 108.695312 C 218.53125 111.382812 219.070312 113.773438 219.785156 116.285156 C 219.726562 116.285156 219.726562 116.34375 219.667969 116.34375 C 219.488281 116.523438 219.25 116.703125 219.070312 116.824219 C 218.292969 117.480469 217.457031 118.078125 216.5625 118.617188 C 214.832031 119.691406 213.039062 120.648438 211.128906 121.367188 C 210.171875 121.722656 209.21875 122.023438 208.203125 122.320312 C 207.722656 122.441406 205.277344 122.679688 205.15625 122.800781 C 205.335938 122.5 205.515625 122.203125 205.695312 122.023438 C 206.113281 121.484375 206.46875 120.886719 206.769531 120.230469 C 207.902344 117.839844 208.140625 114.96875 207.128906 112.578125 C 205.933594 112.878906 204.738281 112.996094 203.542969 112.878906 C 202.769531 112.816406 201.933594 112.640625 201.335938 112.101562 C 200.617188 111.5625 200.320312 110.667969 200.140625 109.769531 C 199.960938 108.875 200.019531 107.976562 199.84375 107.078125 C 199.421875 106.960938 199.003906 106.839844 198.585938 106.722656 C 198.289062 106.660156 197.992188 106.601562 197.75 106.363281 Z M 184.613281 230.8125 C 183 231.410156 181.390625 231.886719 179.71875 232.246094 L 182.941406 239 C 182.523438 242.945312 180.433594 246.054688 177.566406 248.742188 C 184.496094 247.667969 191.0625 244.917969 196.078125 240.015625 C 193.871094 236.308594 192.019531 232.304688 190.464844 228.242188 C 188.613281 229.316406 186.464844 230.09375 184.613281 230.8125 Z M 145.917969 230.632812 C 144.785156 234.457031 143.589844 238.222656 142.453125 242.046875 C 141.5 245.214844 137.199219 246.292969 134.332031 247.90625 C 139.648438 250.535156 146.039062 251.132812 151.589844 249.101562 C 153.679688 243.542969 155.769531 237.921875 157.800781 232.304688 C 153.742188 232.363281 149.5 231.828125 145.917969 230.632812 Z M 145.917969 230.632812 " fill-opacity="1" fill-rule="nonzero"/></g><path fill="#2f80ae" d="M 122.75 97.875 L 126.867188 96.859375 L 123.824219 93.273438 L 122.152344 97.15625 C 122.089844 97.574219 122.390625 97.933594 122.75 97.875 Z M 130.808594 249.042969 C 129.019531 250.117188 127.226562 252.210938 126.210938 254.003906 L 150.457031 254.003906 C 150.992188 254.003906 151.472656 253.644531 151.652344 253.164062 C 152.367188 250.953125 152.84375 247.546875 153.085938 245.574219 C 147.53125 247.367188 141.558594 247.964844 135.707031 247.25 C 133.976562 247.546875 132.304688 248.144531 130.808594 249.042969 Z M 198.289062 242.464844 C 198.410156 242.765625 198.289062 243.0625 198.109375 243.242188 C 193.214844 248.382812 186.464844 254.0625 179.480469 254.0625 L 170.582031 254.0625 C 171.238281 252.03125 173.03125 250.476562 174.820312 249.339844 C 175.65625 248.800781 178.761719 247.667969 179.71875 246.53125 C 185.269531 245.933594 191.003906 241.808594 194.765625 237.683594 L 194.886719 237.683594 C 195.839844 238.820312 197.75 240.914062 198.289062 242.464844 Z M 75.332031 110.425781 L 75.332031 134.039062 L 108.117188 134.039062 L 108.117188 110.425781 Z M 88.769531 129.914062 L 81.84375 122.980469 L 84.292969 120.527344 L 88.769531 125.011719 L 99.21875 114.550781 L 101.667969 117.003906 Z M 44.757812 139.957031 C 46.910156 142.464844 47.925781 144.738281 48.9375 148.144531 C 50.195312 152.328125 50.96875 156.453125 51.925781 160.695312 C 58.316406 187.59375 63.09375 215.449219 75.632812 240.074219 L 45.714844 240.074219 C 40.460938 219.15625 35.265625 188.3125 30.726562 168.046875 C 30.546875 167.273438 30.25 166.496094 29.472656 166.316406 L 28.875 188.789062 C 28.457031 205.644531 29.054688 223.398438 31.800781 240.015625 L 0.210938 240.015625 C 2.777344 233.859375 4.210938 227.285156 5.347656 220.710938 C 6.542969 213.714844 7.316406 206.664062 7.734375 199.609375 C 8.214844 191.957031 8.214844 184.308594 8.570312 176.65625 C 8.929688 168.945312 9.644531 161.234375 11.378906 153.703125 C 12.511719 148.800781 14.066406 143.542969 17.945312 140.015625 Z M 199.722656 102.359375 L 175 102.359375 L 175 78.746094 L 207.785156 78.746094 L 207.785156 89.746094 C 206.292969 90.285156 204.917969 91.121094 203.722656 92.195312 C 203.066406 92.792969 202.230469 93.453125 201.992188 94.40625 C 201.992188 94.46875 201.992188 94.46875 201.992188 94.527344 C 201.933594 94.648438 201.8125 94.707031 201.753906 94.828125 C 201.574219 95.066406 201.394531 95.304688 201.214844 95.601562 C 200.976562 96.023438 200.738281 96.441406 200.617188 96.917969 C 200.378906 97.695312 200.320312 98.472656 200.261719 99.308594 C 200.199219 99.96875 200.140625 100.625 200.019531 101.339844 C 200.019531 101.699219 199.902344 102.058594 199.722656 102.359375 Z M 45.714844 97.636719 C 42.609375 98.890625 40.757812 102.058594 38.191406 104.332031 C 33.53125 108.453125 26.664062 109.113281 20.8125 107.855469 C 17.648438 107.199219 13.765625 105.882812 11.4375 103.554688 C 11.257812 103.375 10.125 102.179688 10.242188 102 C 11.796875 99.367188 13.765625 97.039062 15.5 94.527344 C 17.230469 92.015625 19.441406 89.566406 19.140625 86.519531 C 18.960938 84.785156 18.84375 83.050781 18.84375 81.378906 C 18.78125 79.585938 18.605469 77.851562 18.960938 76.117188 C 19.261719 74.683594 19.796875 73.367188 20.632812 72.171875 C 21.410156 71.035156 22.246094 69.960938 23.382812 69.183594 C 24.8125 68.167969 26.484375 67.75 28.21875 67.628906 C 30.90625 67.449219 33.890625 67.929688 36.101562 69.242188 C 39.027344 70.976562 39.921875 72.828125 39.921875 72.828125 C 39.863281 72.769531 39.742188 72.710938 39.683594 72.652344 C 35.863281 70.378906 32.515625 76.238281 31.679688 79.164062 C 30.964844 81.554688 31.621094 84.84375 33.113281 86.875 C 34.191406 88.371094 35.742188 89.625 37.472656 90.222656 C 37.59375 90.042969 37.773438 89.804688 37.890625 89.625 C 37.890625 89.746094 37.890625 89.925781 37.890625 90.042969 C 37.832031 91.179688 38.609375 92.136719 39.386719 92.972656 C 41.175781 94.886719 43.324219 96.5 45.714844 97.636719 Z M 140.902344 70.679688 L 125.195312 70.679688 L 125.195312 63.085938 L 149.800781 63.085938 Z M 229.519531 165.835938 C 229.519531 165.835938 191.0625 165.71875 190.585938 165.777344 C 190.464844 161.414062 191.183594 157.050781 192.554688 152.867188 C 193.035156 153.226562 193.453125 153.582031 193.929688 153.941406 C 197.09375 156.332031 200.679688 158.246094 204.617188 158.605469 C 205.632812 154.539062 204.917969 150.058594 202.707031 146.53125 C 200.738281 145.574219 198.648438 144.617188 196.675781 143.660156 C 197.035156 143.0625 197.394531 142.40625 197.8125 141.808594 C 196.199219 139.957031 195.902344 137.207031 196.558594 134.875 C 197.214844 132.542969 198.765625 130.511719 200.378906 128.65625 C 201.992188 126.804688 203.722656 124.890625 205.097656 122.859375 C 205.15625 122.800781 207.605469 122.5 208.140625 122.382812 C 209.15625 122.082031 210.113281 121.785156 211.070312 121.425781 C 212.980469 120.707031 214.832031 119.8125 216.503906 118.675781 C 217.398438 118.136719 218.234375 117.539062 219.011719 116.882812 C 219.191406 116.703125 219.429688 116.582031 219.609375 116.40625 C 219.726562 116.34375 219.785156 116.285156 219.847656 116.226562 C 219.90625 116.226562 220.027344 116.226562 220.144531 116.285156 C 220.5625 116.464844 220.980469 116.761719 221.28125 117.121094 C 221.636719 117.539062 221.878906 118.019531 222.117188 118.496094 C 222.414062 119.035156 222.652344 119.511719 222.953125 120.050781 C 223.488281 121.066406 224.027344 122.144531 224.503906 123.21875 C 225.042969 124.355469 225.519531 125.550781 225.996094 126.804688 C 227.3125 130.390625 228.027344 134.21875 227.667969 137.984375 C 227.3125 141.152344 226.234375 144.199219 225.757812 147.367188 C 224.921875 153.523438 226.773438 160.160156 229.519531 165.835938 Z M 175.296875 51.429688 C 175.835938 52.867188 176.195312 54.121094 175.777344 55.675781 C 175.597656 56.453125 175.296875 57.167969 174.941406 57.828125 C 174.222656 59.140625 173.328125 60.335938 172.433594 61.472656 C 171.179688 63.085938 169.925781 64.640625 168.671875 66.253906 C 165.804688 69.78125 162.9375 73.25 160.011719 76.714844 C 160.011719 76.714844 157.144531 74.023438 156.429688 73.308594 C 155.59375 72.53125 155.472656 72.472656 154.757812 71.753906 C 154.757812 71.753906 158.699219 63.625 158.996094 63.085938 C 160.128906 60.996094 165.324219 52.566406 165.324219 52.566406 C 165.324219 52.445312 162.699219 47.425781 161.980469 45.871094 C 160.609375 43.003906 159.234375 40.074219 158.21875 37.027344 C 157.742188 35.53125 157.324219 33.976562 157.027344 32.421875 C 156.785156 31.046875 156.609375 29.734375 157.382812 28.476562 C 158.160156 27.222656 159.59375 26.566406 161.027344 26.445312 C 161.382812 27.640625 162.222656 28.539062 163.355469 29.136719 C 164.550781 29.734375 165.863281 29.914062 167.175781 30.089844 C 167.355469 30.390625 167.535156 30.691406 167.714844 30.988281 C 167.535156 32.902344 167.535156 34.8125 167.59375 36.785156 C 168.371094 36.605469 169.089844 36.367188 169.804688 36.070312 C 171 39.417969 172.191406 42.765625 173.449219 46.109375 C 173.984375 47.902344 174.640625 49.636719 175.296875 51.429688 Z M 175.296875 51.429688 " fill-opacity="1" fill-rule="nonzero"/><g clip-path="url(#2d9531dce7)"><path fill="#dd7a5e" d="M 160.011719 76.714844 C 159.472656 78.03125 159.535156 79.824219 159.054688 81.136719 C 158.578125 82.453125 157.445312 83.410156 156.25 84.125 C 155.054688 84.84375 153.800781 85.441406 152.667969 86.277344 C 152.070312 86.695312 151.53125 87.234375 150.816406 87.535156 C 150.15625 87.832031 149.261719 87.832031 148.726562 87.355469 C 148.1875 86.816406 148.128906 85.980469 148.367188 85.261719 C 148.605469 84.546875 149.144531 83.949219 149.5625 83.351562 C 150.398438 82.273438 150.933594 81.019531 151.351562 79.703125 C 151.472656 79.34375 151.53125 79.046875 151.652344 78.6875 C 151.710938 78.566406 151.949219 78.03125 151.890625 77.910156 C 151.769531 77.550781 151.171875 78.148438 150.992188 78.210938 C 150.277344 78.6875 149.441406 78.925781 148.546875 78.925781 C 148.128906 78.925781 147.589844 78.746094 147.589844 78.328125 C 147.589844 78.210938 147.648438 78.089844 147.710938 77.96875 C 148.128906 77.191406 148.964844 76.773438 149.621094 76.175781 C 150.457031 75.460938 150.992188 74.503906 151.652344 73.667969 C 152.308594 72.828125 153.621094 71.695312 154.695312 71.632812 C 155.472656 72.351562 155.53125 72.351562 156.367188 73.1875 C 157.085938 74.023438 159.953125 76.714844 160.011719 76.714844 C 159.953125 76.714844 159.953125 76.714844 160.011719 76.714844 Z M 188.375 254.480469 C 188.375 255.316406 189.035156 255.976562 189.871094 255.976562 L 230.296875 255.976562 C 231.132812 255.976562 231.789062 255.316406 231.789062 254.480469 C 231.789062 253.644531 231.132812 252.988281 230.296875 252.988281 L 189.871094 252.988281 C 189.035156 252.988281 188.375 253.644531 188.375 254.480469 Z M 188.375 194.410156 C 188.375 195.246094 189.035156 195.902344 189.871094 195.902344 L 230.296875 195.902344 C 231.132812 195.902344 231.789062 195.246094 231.789062 194.410156 C 231.789062 193.570312 231.132812 192.914062 230.296875 192.914062 L 189.871094 192.914062 C 189.035156 192.972656 188.375 193.632812 188.375 194.410156 Z M 39.683594 72.652344 C 35.863281 70.378906 32.515625 76.238281 31.679688 79.164062 C 30.964844 81.554688 31.621094 84.84375 33.113281 86.875 C 34.191406 88.371094 35.742188 89.625 37.472656 90.222656 C 38.308594 88.96875 39.207031 87.773438 40.160156 86.636719 C 40.996094 85.5625 41.953125 84.484375 42.070312 83.171875 C 42.132812 82.394531 42.011719 81.617188 41.832031 80.898438 C 41.652344 79.941406 41.59375 78.988281 41.652344 77.96875 C 41.652344 77.015625 41.773438 75.996094 41.476562 75.042969 C 41.234375 74.023438 40.519531 73.128906 39.683594 72.652344 Z M 71.332031 94.289062 C 71.152344 96.679688 70.558594 99.011719 69.601562 101.222656 L 61.359375 101.042969 C 61.359375 100.984375 61.359375 100.984375 61.359375 100.921875 C 61.539062 99.488281 61.777344 97.695312 62.136719 96.261719 C 62.613281 94.289062 63.390625 92.375 64.105469 90.460938 C 64.765625 88.789062 64.703125 86.816406 65.183594 85.023438 C 65.242188 84.785156 65.363281 84.605469 65.601562 84.425781 C 65.839844 84.304688 66.199219 84.304688 66.316406 84.484375 C 66.375 84.605469 66.4375 84.726562 66.4375 84.84375 C 66.554688 85.980469 66.496094 87.175781 66.375 88.3125 C 66.316406 88.667969 66.375 89.027344 66.375 89.386719 C 66.855469 89.328125 67.390625 89.386719 67.929688 89.507812 C 68.464844 89.625 68.882812 89.925781 69.0625 90.402344 C 69.183594 90.703125 69.125 91.0625 69.300781 91.359375 C 69.601562 92.015625 70.558594 92.015625 71.035156 92.554688 C 71.394531 93.03125 71.394531 93.691406 71.332031 94.289062 Z M 206.769531 120.289062 C 206.46875 120.949219 206.113281 121.484375 205.695312 122.082031 C 205.515625 122.320312 205.277344 122.621094 205.15625 122.859375 C 203.78125 124.890625 202.050781 126.863281 200.4375 128.65625 C 199.003906 130.273438 197.691406 132.003906 196.914062 133.976562 L 180.433594 133.976562 C 180.375 133.917969 180.253906 133.859375 180.195312 133.796875 C 179.957031 133.621094 179.65625 133.378906 179.359375 133.261719 C 179 133.140625 178.582031 133.140625 178.164062 133.140625 C 177.148438 133.140625 176.074219 133.140625 175.058594 133.140625 L 175.058594 110.425781 L 200.261719 110.425781 C 200.4375 111.085938 200.796875 111.683594 201.335938 112.101562 C 201.933594 112.578125 202.769531 112.816406 203.542969 112.878906 C 204.738281 112.996094 205.992188 112.878906 207.128906 112.578125 C 208.140625 115.03125 207.902344 117.898438 206.769531 120.289062 Z M 227.3125 136.011719 C 227.667969 135.949219 228.027344 135.769531 228.328125 135.472656 C 229.820312 133.976562 230.65625 131.167969 230.65625 129.136719 C 230.714844 126.386719 229.9375 123.695312 229.042969 121.125 C 228.148438 118.554688 227.132812 115.984375 226.714844 113.238281 C 225.996094 108.515625 227.074219 103.554688 225.757812 98.949219 C 224.324219 94.050781 219.964844 90.105469 214.890625 89.207031 C 212.917969 88.847656 210.828125 88.910156 208.859375 89.445312 C 206.949219 89.984375 205.15625 90.941406 203.664062 92.257812 C 203.007812 92.855469 202.171875 93.511719 201.933594 94.46875 C 201.8125 94.945312 201.933594 95.425781 202.109375 95.84375 C 202.289062 96.378906 202.589844 96.859375 202.886719 97.277344 C 203.363281 97.996094 204.023438 98.652344 204.738281 99.191406 C 206.292969 100.265625 208.023438 101.101562 209.21875 102.535156 C 210.589844 104.152344 211.070312 106.304688 211.488281 108.394531 C 212.144531 112.101562 212.621094 115.867188 213.457031 119.574219 C 214.292969 123.277344 215.605469 126.925781 217.875 129.972656 C 219.128906 131.648438 220.683594 133.140625 222.472656 134.21875 C 223.726562 134.933594 225.757812 136.25 227.3125 136.011719 Z M 58.316406 123.21875 L 58.316406 134.039062 L 47.566406 134.039062 C 47.625 133.320312 47.683594 132.542969 47.746094 131.824219 C 48.042969 127.402344 48.222656 122.917969 48.222656 118.496094 C 51.386719 120.527344 54.671875 122.023438 58.316406 123.21875 Z M 207.84375 63.085938 L 207.84375 70.679688 L 175.058594 70.679688 L 175.058594 63.984375 L 176.074219 63.085938 Z M 207.84375 63.085938 " fill-opacity="1" fill-rule="nonzero"/></g><path fill="#f7f2e8" d="M 143.648438 14.011719 C 144.367188 14.011719 144.960938 14.609375 144.960938 15.328125 C 144.960938 16.046875 144.367188 16.644531 143.648438 16.644531 C 142.933594 16.644531 142.335938 16.046875 142.335938 15.328125 C 142.335938 14.609375 142.871094 14.011719 143.648438 14.011719 Z M 143.648438 14.011719 " fill-opacity="1" fill-rule="nonzero"/></svg>