<svg xmlns="http://www.w3.org/2000/svg" xmlns:xlink="http://www.w3.org/1999/xlink" width="310" zoomAndPan="magnify" viewBox="0 0 232.5 256.500001" height="342" preserveAspectRatio="xMidYMid meet" version="1.0"><defs><filter x="0%" y="0%" width="100%" height="100%" id="bfceb897a6"><feColorMatrix values="0 0 0 0 1 0 0 0 0 1 0 0 0 0 1 0 0 0 1 0" color-interpolation-filters="sRGB"/></filter><clipPath id="0f9985d4f9"><path d="M 78.996094 57.859375 L 97.875 57.859375 L 97.875 89.234375 L 78.996094 89.234375 Z M 78.996094 57.859375 " clip-rule="nonzero"/></clipPath><clipPath id="842f5d4aa2"><path d="M 104.226562 57.859375 L 123.105469 57.859375 L 123.105469 89.234375 L 104.226562 89.234375 Z M 104.226562 57.859375 " clip-rule="nonzero"/></clipPath><clipPath id="4275d30ad6"><path d="M 0 230 L 232 230 L 232 244.417969 L 0 244.417969 Z M 0 230 " clip-rule="nonzero"/></clipPath><mask id="84c32e63fb"><g filter="url(#bfceb897a6)"><rect x="-23.25" width="279" fill="#000000" y="-25.65" height="307.800001" fill-opacity="0.5"/></g></mask><clipPath id="15e43c89e4"><path d="M 0.355469 0.390625 L 32.445312 0.390625 L 32.445312 32 L 0.355469 32 Z M 0.355469 0.390625 " clip-rule="nonzero"/></clipPath><clipPath id="a7cb909686"><rect x="0" width="33" y="0" height="33"/></clipPath></defs><g clip-path="url(#0f9985d4f9)"><path fill="#ffffff" d="M 88.5 70.542969 C 87.394531 70.542969 86.335938 70.746094 85.351562 71.101562 C 85.4375 70.101562 85.617188 69.09375 85.902344 68.09375 C 86.480469 66.042969 87.523438 64.066406 88.929688 62.304688 C 90.339844 60.542969 92.136719 59.007812 94.230469 57.859375 C 91.902344 58.375 89.617188 59.375 87.554688 60.816406 C 85.5 62.257812 83.648438 64.128906 82.238281 66.367188 C 80.820312 68.59375 79.804688 71.164062 79.324219 73.898438 C 78.945312 76.074219 78.886719 78.335938 79.191406 80.601562 C 79.234375 81.191406 79.335938 81.769531 79.488281 82.324219 C 79.488281 82.335938 79.492188 82.34375 79.492188 82.351562 L 79.496094 82.351562 C 80.578125 86.3125 84.199219 89.234375 88.5 89.234375 C 93.652344 89.234375 97.847656 85.042969 97.847656 79.886719 C 97.847656 74.734375 93.652344 70.542969 88.5 70.542969 " fill-opacity="1" fill-rule="nonzero"/></g><g clip-path="url(#842f5d4aa2)"><path fill="#ffffff" d="M 113.757812 70.542969 C 112.652344 70.542969 111.59375 70.746094 110.609375 71.101562 C 110.695312 70.101562 110.878906 69.09375 111.160156 68.09375 C 111.738281 66.042969 112.78125 64.066406 114.1875 62.304688 C 115.597656 60.542969 117.394531 59.007812 119.488281 57.859375 C 117.160156 58.375 114.875 59.375 112.8125 60.816406 C 110.757812 62.257812 108.90625 64.128906 107.496094 66.367188 C 106.078125 68.59375 105.0625 71.164062 104.582031 73.898438 C 104.203125 76.074219 104.144531 78.335938 104.449219 80.601562 C 104.492188 81.191406 104.59375 81.769531 104.746094 82.324219 C 104.746094 82.332031 104.75 82.34375 104.75 82.351562 L 104.753906 82.351562 C 105.839844 86.3125 109.457031 89.234375 113.757812 89.234375 C 118.910156 89.234375 123.105469 85.042969 123.105469 79.886719 C 123.105469 74.734375 118.910156 70.542969 113.757812 70.542969 " fill-opacity="1" fill-rule="nonzero"/></g><path fill="#f7f2e8" d="M 3.972656 116.417969 L 4.65625 116.417969 L 4.65625 207.625 L 3.972656 207.625 Z M 3.972656 116.417969 " fill-opacity="1" fill-rule="nonzero"/><path fill="#f7f2e8" d="M 19.046875 116.417969 L 19.726562 116.417969 L 19.726562 207.625 L 19.046875 207.625 Z M 19.046875 116.417969 " fill-opacity="1" fill-rule="nonzero"/><path fill="#f7f2e8" d="M 34.109375 116.417969 L 34.792969 116.417969 L 34.792969 207.625 L 34.109375 207.625 Z M 34.109375 116.417969 " fill-opacity="1" fill-rule="nonzero"/><path fill="#f7f2e8" d="M 49.175781 116.417969 L 49.859375 116.417969 L 49.859375 207.625 L 49.175781 207.625 Z M 49.175781 116.417969 " fill-opacity="1" fill-rule="nonzero"/><path fill="#f7f2e8" d="M 64.242188 116.417969 L 64.925781 116.417969 L 64.925781 207.625 L 64.242188 207.625 Z M 64.242188 116.417969 " fill-opacity="1" fill-rule="nonzero"/><path fill="#f7f2e8" d="M 79.316406 116.417969 L 79.996094 116.417969 L 79.996094 207.625 L 79.316406 207.625 Z M 79.316406 116.417969 " fill-opacity="1" fill-rule="nonzero"/><path fill="#f7f2e8" d="M 94.382812 116.417969 L 95.0625 116.417969 L 95.0625 207.625 L 94.382812 207.625 Z M 94.382812 116.417969 " fill-opacity="1" fill-rule="nonzero"/><path fill="#f7f2e8" d="M 109.445312 116.417969 L 110.128906 116.417969 L 110.128906 207.625 L 109.445312 207.625 Z M 109.445312 116.417969 " fill-opacity="1" fill-rule="nonzero"/><path fill="#f7f2e8" d="M 124.511719 116.417969 L 125.195312 116.417969 L 125.195312 207.625 L 124.511719 207.625 Z M 124.511719 116.417969 " fill-opacity="1" fill-rule="nonzero"/><path fill="#f7f2e8" d="M 139.578125 116.417969 L 140.261719 116.417969 L 140.261719 207.625 L 139.578125 207.625 Z M 139.578125 116.417969 " fill-opacity="1" fill-rule="nonzero"/><path fill="#f7f2e8" d="M 4.546875 123.9375 L 139.6875 123.9375 L 139.6875 124.769531 L 4.546875 124.769531 Z M 4.546875 123.9375 " fill-opacity="1" fill-rule="nonzero"/><path fill="#f7f2e8" d="M 4.546875 139.003906 L 139.6875 139.003906 L 139.6875 139.835938 L 4.546875 139.835938 Z M 4.546875 139.003906 " fill-opacity="1" fill-rule="nonzero"/><path fill="#f7f2e8" d="M 4.546875 154.074219 L 139.6875 154.074219 L 139.6875 154.90625 L 4.546875 154.90625 Z M 4.546875 154.074219 " fill-opacity="1" fill-rule="nonzero"/><path fill="#f7f2e8" d="M 4.546875 169.140625 L 139.6875 169.140625 L 139.6875 169.972656 L 4.546875 169.972656 Z M 4.546875 169.140625 " fill-opacity="1" fill-rule="nonzero"/><path fill="#f7f2e8" d="M 4.546875 184.207031 L 139.6875 184.207031 L 139.6875 185.039062 L 4.546875 185.039062 Z M 4.546875 184.207031 " fill-opacity="1" fill-rule="nonzero"/><path fill="#f7f2e8" d="M 4.546875 199.273438 L 139.6875 199.273438 L 139.6875 200.105469 L 4.546875 200.105469 Z M 4.546875 199.273438 " fill-opacity="1" fill-rule="nonzero"/><path fill="#f7f2e8" d="M 208.976562 190.484375 L 66.363281 190.484375 C 64.5 190.484375 62.992188 188.972656 62.992188 187.113281 L 62.992188 57.992188 C 62.992188 56.128906 64.507812 54.621094 66.363281 54.621094 L 208.976562 54.621094 C 210.839844 54.621094 212.347656 56.132812 212.347656 57.992188 L 212.347656 187.113281 C 212.347656 188.972656 210.835938 190.484375 208.976562 190.484375 Z M 208.976562 190.484375 " fill-opacity="1" fill-rule="nonzero"/><path fill="#1a2b47" d="M 208.976562 190.996094 L 66.363281 190.996094 C 64.222656 190.996094 62.480469 189.253906 62.480469 187.113281 L 62.480469 57.992188 C 62.480469 55.851562 64.222656 54.109375 66.363281 54.109375 L 208.976562 54.109375 C 211.117188 54.109375 212.859375 55.851562 212.859375 57.992188 L 212.859375 187.113281 C 212.859375 189.253906 211.117188 190.996094 208.976562 190.996094 Z M 66.363281 55.128906 C 64.785156 55.128906 63.5 56.410156 63.5 57.992188 L 63.5 187.113281 C 63.5 188.695312 64.785156 189.976562 66.363281 189.976562 L 208.976562 189.976562 C 210.558594 189.976562 211.839844 188.695312 211.839844 187.113281 L 211.839844 57.992188 C 211.839844 56.410156 210.558594 55.128906 208.976562 55.128906 Z M 66.363281 55.128906 " fill-opacity="1" fill-rule="nonzero"/><path fill="#1a2b47" d="M 67.675781 69.289062 L 207.660156 69.289062 L 207.660156 185.796875 L 67.675781 185.796875 Z M 67.675781 69.289062 " fill-opacity="1" fill-rule="nonzero"/><path fill="#f7f2e8" d="M 71.316406 61.722656 C 71.316406 61.925781 71.277344 62.125 71.199219 62.316406 C 71.121094 62.507812 71.007812 62.675781 70.859375 62.820312 C 70.714844 62.964844 70.546875 63.078125 70.355469 63.15625 C 70.167969 63.234375 69.96875 63.277344 69.761719 63.277344 C 69.554688 63.277344 69.359375 63.234375 69.167969 63.15625 C 68.976562 63.078125 68.808594 62.964844 68.664062 62.820312 C 68.519531 62.675781 68.40625 62.507812 68.328125 62.316406 C 68.246094 62.125 68.207031 61.925781 68.207031 61.722656 C 68.207031 61.515625 68.246094 61.316406 68.328125 61.125 C 68.40625 60.9375 68.519531 60.769531 68.664062 60.621094 C 68.808594 60.476562 68.976562 60.363281 69.167969 60.285156 C 69.359375 60.207031 69.554688 60.167969 69.761719 60.167969 C 69.96875 60.167969 70.167969 60.207031 70.355469 60.285156 C 70.546875 60.363281 70.714844 60.476562 70.859375 60.621094 C 71.007812 60.769531 71.121094 60.9375 71.199219 61.125 C 71.277344 61.316406 71.316406 61.515625 71.316406 61.722656 Z M 71.316406 61.722656 " fill-opacity="1" fill-rule="nonzero"/><path fill="#f7f2e8" d="M 82.070312 61.722656 C 82.070312 61.925781 82.03125 62.125 81.953125 62.316406 C 81.875 62.507812 81.761719 62.675781 81.617188 62.820312 C 81.472656 62.964844 81.304688 63.078125 81.113281 63.15625 C 80.921875 63.234375 80.722656 63.277344 80.519531 63.277344 C 80.3125 63.277344 80.113281 63.234375 79.921875 63.15625 C 79.734375 63.078125 79.566406 62.964844 79.417969 62.820312 C 79.273438 62.675781 79.160156 62.507812 79.082031 62.316406 C 79.003906 62.125 78.964844 61.925781 78.964844 61.722656 C 78.964844 61.515625 79.003906 61.316406 79.082031 61.125 C 79.160156 60.9375 79.273438 60.769531 79.417969 60.621094 C 79.566406 60.476562 79.734375 60.363281 79.921875 60.285156 C 80.113281 60.207031 80.3125 60.167969 80.519531 60.167969 C 80.722656 60.167969 80.921875 60.207031 81.113281 60.285156 C 81.304688 60.363281 81.472656 60.476562 81.617188 60.621094 C 81.761719 60.769531 81.875 60.9375 81.953125 61.125 C 82.03125 61.316406 82.070312 61.515625 82.070312 61.722656 Z M 82.070312 61.722656 " fill-opacity="1" fill-rule="nonzero"/><path fill="#f7f2e8" d="M 76.695312 61.722656 C 76.695312 61.925781 76.65625 62.125 76.574219 62.316406 C 76.496094 62.507812 76.382812 62.675781 76.238281 62.820312 C 76.09375 62.964844 75.925781 63.078125 75.734375 63.15625 C 75.542969 63.234375 75.347656 63.277344 75.140625 63.277344 C 74.933594 63.277344 74.734375 63.234375 74.546875 63.15625 C 74.355469 63.078125 74.1875 62.964844 74.042969 62.820312 C 73.894531 62.675781 73.785156 62.507812 73.703125 62.316406 C 73.625 62.125 73.585938 61.925781 73.585938 61.722656 C 73.585938 61.515625 73.625 61.316406 73.703125 61.125 C 73.785156 60.9375 73.894531 60.769531 74.042969 60.621094 C 74.1875 60.476562 74.355469 60.363281 74.546875 60.285156 C 74.734375 60.207031 74.933594 60.167969 75.140625 60.167969 C 75.347656 60.167969 75.542969 60.207031 75.734375 60.285156 C 75.925781 60.363281 76.09375 60.476562 76.238281 60.621094 C 76.382812 60.769531 76.496094 60.9375 76.574219 61.125 C 76.65625 61.316406 76.695312 61.515625 76.695312 61.722656 Z M 76.695312 61.722656 " fill-opacity="1" fill-rule="nonzero"/><g clip-path="url(#4275d30ad6)"><path fill="#f7f2e8" d="M 232.015625 237.09375 C 232.015625 237.207031 231.96875 237.320312 231.875 237.433594 C 231.78125 237.546875 231.640625 237.660156 231.457031 237.773438 C 231.269531 237.886719 231.039062 237.996094 230.757812 238.109375 C 230.480469 238.222656 230.15625 238.332031 229.785156 238.445312 C 229.414062 238.554688 229 238.667969 228.539062 238.777344 C 228.078125 238.886719 227.570312 238.996094 227.019531 239.105469 C 226.46875 239.210938 225.871094 239.320312 225.234375 239.425781 C 224.59375 239.535156 223.910156 239.640625 223.183594 239.742188 C 222.457031 239.847656 221.6875 239.953125 220.875 240.054688 C 220.0625 240.15625 219.210938 240.257812 218.316406 240.359375 C 217.421875 240.457031 216.484375 240.558594 215.507812 240.652344 C 214.53125 240.75 213.515625 240.847656 212.460938 240.941406 C 211.40625 241.035156 210.316406 241.128906 209.183594 241.21875 C 208.054688 241.308594 206.886719 241.398438 205.679688 241.488281 C 204.476562 241.574219 203.234375 241.660156 201.960938 241.746094 C 200.6875 241.828125 199.378906 241.910156 198.035156 241.992188 C 196.691406 242.070312 195.316406 242.148438 193.910156 242.226562 C 192.503906 242.300781 191.066406 242.375 189.597656 242.445312 C 188.132812 242.519531 186.636719 242.589844 185.109375 242.65625 C 183.585938 242.722656 182.03125 242.789062 180.453125 242.851562 C 178.875 242.914062 177.273438 242.976562 175.644531 243.035156 C 174.015625 243.089844 172.363281 243.148438 170.6875 243.199219 C 169.015625 243.253906 167.320312 243.304688 165.601562 243.355469 C 163.886719 243.402344 162.152344 243.449219 160.398438 243.492188 C 158.644531 243.535156 156.871094 243.574219 155.085938 243.613281 C 153.296875 243.652344 151.496094 243.6875 149.675781 243.71875 C 147.859375 243.753906 146.03125 243.785156 144.191406 243.8125 C 142.347656 243.839844 140.496094 243.863281 138.632812 243.886719 C 136.773438 243.90625 134.902344 243.925781 133.023438 243.945312 C 131.144531 243.960938 129.261719 243.972656 127.371094 243.984375 C 125.480469 243.996094 123.589844 244.003906 121.691406 244.011719 C 119.796875 244.015625 117.898438 244.019531 116 244.019531 C 114.101562 244.019531 112.203125 244.015625 110.308594 244.011719 C 108.410156 244.003906 106.519531 243.996094 104.628906 243.984375 C 102.738281 243.972656 100.855469 243.960938 98.976562 243.945312 C 97.101562 243.925781 95.230469 243.90625 93.367188 243.886719 C 91.503906 243.863281 89.652344 243.839844 87.8125 243.8125 C 85.96875 243.785156 84.140625 243.753906 82.324219 243.71875 C 80.507812 243.6875 78.703125 243.652344 76.917969 243.613281 C 75.128906 243.574219 73.359375 243.535156 71.605469 243.492188 C 69.851562 243.449219 68.113281 243.402344 66.398438 243.355469 C 64.683594 243.304688 62.988281 243.253906 61.3125 243.199219 C 59.636719 243.148438 57.984375 243.089844 56.355469 243.035156 C 54.730469 242.976562 53.125 242.914062 51.546875 242.851562 C 49.96875 242.789062 48.417969 242.722656 46.890625 242.65625 C 45.367188 242.589844 43.871094 242.519531 42.402344 242.445312 C 40.933594 242.375 39.496094 242.300781 38.089844 242.226562 C 36.683594 242.148438 35.308594 242.070312 33.964844 241.992188 C 32.625 241.910156 31.316406 241.828125 30.039062 241.746094 C 28.765625 241.660156 27.523438 241.574219 26.320312 241.488281 C 25.117188 241.398438 23.949219 241.308594 22.816406 241.21875 C 21.6875 241.128906 20.59375 241.035156 19.539062 240.941406 C 18.484375 240.847656 17.46875 240.75 16.492188 240.652344 C 15.515625 240.558594 14.582031 240.457031 13.683594 240.359375 C 12.789062 240.257812 11.9375 240.15625 11.125 240.054688 C 10.3125 239.953125 9.542969 239.847656 8.816406 239.742188 C 8.089844 239.640625 7.40625 239.535156 6.769531 239.425781 C 6.128906 239.320312 5.53125 239.210938 4.980469 239.105469 C 4.429688 238.996094 3.925781 238.886719 3.464844 238.777344 C 3 238.667969 2.585938 238.554688 2.214844 238.445312 C 1.84375 238.332031 1.519531 238.222656 1.242188 238.109375 C 0.964844 237.996094 0.730469 237.886719 0.546875 237.773438 C 0.359375 237.660156 0.21875 237.546875 0.125 237.433594 C 0.03125 237.320312 -0.0117188 237.207031 -0.0117188 237.09375 C -0.0117188 236.980469 0.03125 236.867188 0.125 236.753906 C 0.21875 236.640625 0.359375 236.527344 0.546875 236.414062 C 0.730469 236.300781 0.964844 236.191406 1.242188 236.078125 C 1.519531 235.964844 1.84375 235.855469 2.214844 235.742188 C 2.585938 235.632812 3 235.519531 3.464844 235.410156 C 3.925781 235.300781 4.429688 235.191406 4.980469 235.082031 C 5.53125 234.976562 6.128906 234.867188 6.769531 234.761719 C 7.40625 234.652344 8.089844 234.546875 8.816406 234.445312 C 9.542969 234.339844 10.3125 234.234375 11.125 234.132812 C 11.9375 234.03125 12.789062 233.929688 13.683594 233.828125 C 14.582031 233.730469 15.515625 233.632812 16.492188 233.535156 C 17.46875 233.4375 18.484375 233.339844 19.539062 233.246094 C 20.59375 233.152344 21.6875 233.058594 22.816406 232.96875 C 23.949219 232.878906 25.117188 232.789062 26.320312 232.699219 C 27.523438 232.613281 28.765625 232.527344 30.039062 232.441406 C 31.316406 232.359375 32.625 232.277344 33.964844 232.195312 C 35.308594 232.117188 36.683594 232.039062 38.089844 231.960938 C 39.496094 231.886719 40.933594 231.8125 42.402344 231.742188 C 43.871094 231.667969 45.367188 231.597656 46.890625 231.53125 C 48.417969 231.464844 49.96875 231.398438 51.546875 231.335938 C 53.125 231.273438 54.730469 231.210938 56.355469 231.152344 C 57.984375 231.097656 59.636719 231.039062 61.3125 230.988281 C 62.988281 230.933594 64.683594 230.882812 66.398438 230.832031 C 68.113281 230.785156 69.851562 230.738281 71.605469 230.695312 C 73.359375 230.652344 75.128906 230.613281 76.917969 230.574219 C 78.703125 230.535156 80.507812 230.5 82.324219 230.46875 C 84.140625 230.433594 85.96875 230.402344 87.8125 230.375 C 89.652344 230.347656 91.503906 230.324219 93.367188 230.300781 C 95.230469 230.28125 97.101562 230.261719 98.976562 230.242188 C 100.855469 230.226562 102.738281 230.214844 104.628906 230.203125 C 106.519531 230.191406 108.410156 230.183594 110.308594 230.175781 C 112.203125 230.171875 114.101562 230.167969 116 230.167969 C 117.898438 230.167969 119.796875 230.171875 121.691406 230.175781 C 123.589844 230.183594 125.480469 230.191406 127.371094 230.203125 C 129.261719 230.214844 131.144531 230.226562 133.023438 230.242188 C 134.902344 230.261719 136.773438 230.28125 138.632812 230.300781 C 140.496094 230.324219 142.347656 230.347656 144.191406 230.375 C 146.03125 230.402344 147.859375 230.433594 149.675781 230.46875 C 151.496094 230.5 153.296875 230.535156 155.085938 230.574219 C 156.871094 230.613281 158.644531 230.652344 160.398438 230.695312 C 162.152344 230.738281 163.886719 230.785156 165.601562 230.832031 C 167.320312 230.882812 169.015625 230.933594 170.6875 230.988281 C 172.363281 231.039062 174.015625 231.097656 175.644531 231.152344 C 177.273438 231.210938 178.875 231.273438 180.453125 231.335938 C 182.03125 231.398438 183.585938 231.464844 185.109375 231.53125 C 186.636719 231.597656 188.132812 231.667969 189.597656 231.742188 C 191.066406 231.8125 192.503906 231.886719 193.910156 231.960938 C 195.316406 232.039062 196.691406 232.117188 198.035156 232.195312 C 199.378906 232.277344 200.6875 232.359375 201.960938 232.441406 C 203.234375 232.527344 204.476562 232.613281 205.679688 232.699219 C 206.886719 232.789062 208.054688 232.878906 209.183594 232.96875 C 210.316406 233.058594 211.40625 233.152344 212.460938 233.246094 C 213.515625 233.339844 214.53125 233.4375 215.507812 233.535156 C 216.484375 233.632812 217.421875 233.730469 218.316406 233.828125 C 219.210938 233.929688 220.0625 234.03125 220.875 234.132812 C 221.6875 234.234375 222.457031 234.339844 223.183594 234.445312 C 223.910156 234.546875 224.59375 234.652344 225.234375 234.761719 C 225.871094 234.867188 226.46875 234.976562 227.019531 235.082031 C 227.570312 235.191406 228.078125 235.300781 228.539062 235.410156 C 229 235.519531 229.414062 235.632812 229.785156 235.742188 C 230.15625 235.855469 230.480469 235.964844 230.757812 236.078125 C 231.039062 236.191406 231.269531 236.300781 231.457031 236.414062 C 231.640625 236.527344 231.78125 236.640625 231.875 236.753906 C 231.96875 236.867188 232.015625 236.980469 232.015625 237.09375 Z M 232.015625 237.09375 " fill-opacity="1" fill-rule="nonzero"/></g><path fill="#f6ad9a" d="M 189.714844 174.257812 L 85.300781 174.257812 C 81.714844 174.257812 78.808594 171.351562 78.808594 167.765625 L 78.808594 22.660156 C 78.808594 19.070312 81.714844 16.164062 85.300781 16.164062 L 189.714844 16.164062 C 193.300781 16.164062 196.207031 19.070312 196.207031 22.660156 L 196.207031 167.769531 C 196.207031 171.351562 193.300781 174.257812 189.714844 174.257812 Z M 189.714844 174.257812 " fill-opacity="1" fill-rule="nonzero"/><path fill="#1a2b47" d="M 189.714844 174.742188 L 85.300781 174.742188 C 81.457031 174.742188 78.324219 171.613281 78.324219 167.765625 L 78.324219 22.660156 C 78.324219 18.8125 81.449219 15.679688 85.300781 15.679688 L 189.714844 15.679688 C 193.558594 15.679688 196.695312 18.808594 196.695312 22.660156 L 196.695312 167.769531 C 196.695312 171.613281 193.566406 174.742188 189.714844 174.742188 Z M 85.300781 16.652344 C 81.992188 16.652344 79.296875 19.347656 79.296875 22.660156 L 79.296875 167.769531 C 79.296875 171.082031 81.992188 173.777344 85.300781 173.777344 L 189.714844 173.777344 C 193.027344 173.777344 195.722656 171.082031 195.722656 167.769531 L 195.722656 22.660156 C 195.722656 19.347656 193.027344 16.652344 189.714844 16.652344 Z M 85.300781 16.652344 " fill-opacity="1" fill-rule="nonzero"/><path fill="#f7f2e8" d="M 159.71875 59.742188 C 159.71875 72.269531 149.5625 82.421875 137.039062 82.421875 C 124.527344 82.421875 114.378906 72.269531 114.378906 59.742188 C 114.378906 47.230469 124.535156 37.082031 137.039062 37.082031 L 137.039062 59.742188 Z M 159.71875 59.742188 " fill-opacity="1" fill-rule="nonzero"/><path fill="#a6a6a6" d="M 162.949219 56.511719 L 140.269531 56.511719 L 140.269531 33.851562 C 152.792969 33.851562 162.949219 44 162.949219 56.511719 Z M 162.949219 56.511719 " fill-opacity="1" fill-rule="nonzero"/><path fill="#1a2b47" d="M 116.519531 79.382812 L 99.683594 79.382812 L 99.683594 78.691406 L 116.238281 78.691406 L 127.351562 67.574219 L 127.84375 68.066406 Z M 116.519531 79.382812 " fill-opacity="1" fill-rule="nonzero"/><path fill="#1a2b47" d="M 150.664062 47.195312 L 150.179688 46.703125 L 161.953125 34.925781 L 174.683594 34.925781 L 174.683594 35.625 L 162.238281 35.625 Z M 150.664062 47.195312 " fill-opacity="1" fill-rule="nonzero"/><path fill="#a6a6a6" d="M 176.792969 35.277344 C 176.789062 35.453125 176.757812 35.625 176.691406 35.785156 C 176.621094 35.949219 176.527344 36.089844 176.402344 36.214844 C 176.277344 36.339844 176.136719 36.433594 175.972656 36.503906 C 175.8125 36.570312 175.640625 36.601562 175.46875 36.601562 C 175.292969 36.601562 175.121094 36.570312 174.960938 36.503906 C 174.796875 36.433594 174.65625 36.339844 174.53125 36.214844 C 174.40625 36.089844 174.3125 35.949219 174.242188 35.785156 C 174.175781 35.625 174.144531 35.453125 174.144531 35.277344 C 174.144531 35.101562 174.175781 34.933594 174.242188 34.773438 C 174.3125 34.609375 174.40625 34.464844 174.53125 34.34375 C 174.65625 34.21875 174.796875 34.121094 174.960938 34.054688 C 175.121094 33.988281 175.292969 33.953125 175.46875 33.953125 C 175.640625 33.953125 175.8125 33.988281 175.972656 34.054688 C 176.136719 34.121094 176.277344 34.21875 176.402344 34.34375 C 176.527344 34.464844 176.621094 34.609375 176.691406 34.773438 C 176.757812 34.933594 176.789062 35.101562 176.792969 35.277344 Z M 176.792969 35.277344 " fill-opacity="1" fill-rule="nonzero"/><path fill="#a6a6a6" d="M 101.007812 79.039062 C 101.007812 79.210938 100.976562 79.382812 100.90625 79.542969 C 100.839844 79.707031 100.746094 79.847656 100.621094 79.972656 C 100.496094 80.097656 100.355469 80.195312 100.191406 80.261719 C 100.027344 80.328125 99.859375 80.363281 99.683594 80.363281 C 99.507812 80.363281 99.339844 80.328125 99.179688 80.261719 C 99.015625 80.195312 98.871094 80.097656 98.75 79.972656 C 98.625 79.847656 98.527344 79.707031 98.460938 79.542969 C 98.394531 79.382812 98.359375 79.210938 98.359375 79.039062 C 98.359375 78.863281 98.394531 78.691406 98.460938 78.53125 C 98.527344 78.367188 98.625 78.226562 98.75 78.101562 C 98.871094 77.976562 99.015625 77.882812 99.179688 77.8125 C 99.339844 77.746094 99.507812 77.714844 99.683594 77.714844 C 99.859375 77.714844 100.027344 77.746094 100.191406 77.8125 C 100.355469 77.882812 100.496094 77.976562 100.621094 78.101562 C 100.746094 78.226562 100.839844 78.367188 100.90625 78.53125 C 100.976562 78.691406 101.007812 78.863281 101.007812 79.039062 Z M 101.007812 79.039062 " fill-opacity="1" fill-rule="nonzero"/><path fill="#a6a6a6" d="M 114.769531 110.703125 C 114.730469 113.234375 113.570312 115.5 111.75 117.019531 L 115.785156 121.121094 C 118.648438 118.546875 120.488281 114.832031 120.546875 110.703125 C 120.667969 102.917969 114.460938 96.617188 106.683594 96.617188 L 106.597656 102.398438 C 111.175781 102.394531 114.839844 106.117188 114.769531 110.703125 Z M 114.769531 110.703125 " fill-opacity="1" fill-rule="nonzero"/><path fill="#f7f2e8" d="M 92.382812 110.703125 C 92.261719 118.480469 98.46875 124.789062 106.25 124.789062 C 109.898438 124.789062 113.25 123.398438 115.785156 121.113281 L 111.75 117.011719 C 110.285156 118.25 108.386719 119 106.339844 119 C 101.753906 119 98.089844 115.28125 98.15625 110.6875 L 92.382812 110.6875 Z M 92.382812 110.703125 " fill-opacity="1" fill-rule="nonzero"/><path fill="#1a2b47" d="M 92.382812 110.703125 L 98.164062 110.703125 C 98.230469 106.117188 102.007812 102.394531 106.601562 102.394531 L 106.691406 96.609375 C 98.902344 96.617188 92.496094 102.917969 92.382812 110.703125 Z M 92.382812 110.703125 " fill-opacity="1" fill-rule="nonzero"/><path fill="#1a2b47" d="M 104.765625 108.816406 L 104.765625 109.621094 L 103.089844 109.621094 L 103.089844 110.359375 C 103.230469 110.203125 103.496094 110.085938 103.804688 110.085938 C 104.65625 110.085938 104.988281 110.738281 104.988281 111.371094 C 104.988281 112.195312 104.507812 112.730469 103.636719 112.730469 C 102.757812 112.730469 102.253906 112.242188 102.21875 111.566406 L 103.117188 111.566406 C 103.15625 111.769531 103.3125 111.953125 103.609375 111.953125 C 103.960938 111.953125 104.109375 111.703125 104.109375 111.363281 C 104.109375 111.011719 103.933594 110.824219 103.601562 110.824219 C 103.347656 110.824219 103.199219 110.964844 103.152344 111.148438 L 102.265625 111.148438 L 102.265625 108.816406 Z M 104.765625 108.816406 " fill-opacity="1" fill-rule="nonzero"/><path fill="#1a2b47" d="M 107 108.742188 C 108.117188 108.742188 108.507812 109.582031 108.507812 110.730469 C 108.507812 111.886719 108.117188 112.722656 107 112.722656 C 105.886719 112.722656 105.496094 111.886719 105.496094 110.730469 C 105.496094 109.582031 105.886719 108.742188 107 108.742188 Z M 107 109.601562 C 106.460938 109.601562 106.394531 110.128906 106.394531 110.730469 C 106.394531 111.351562 106.460938 111.863281 107 111.863281 C 107.542969 111.863281 107.609375 111.351562 107.609375 110.730469 C 107.609375 110.128906 107.542969 109.601562 107 109.601562 Z M 107 109.601562 " fill-opacity="1" fill-rule="nonzero"/><path fill="#1a2b47" d="M 109.804688 108.90625 C 110.3125 108.90625 110.695312 109.214844 110.695312 109.8125 C 110.695312 110.40625 110.320312 110.714844 109.804688 110.714844 C 109.296875 110.714844 108.914062 110.40625 108.914062 109.8125 C 108.914062 109.214844 109.296875 108.90625 109.804688 108.90625 Z M 109.546875 109.8125 C 109.546875 110.0625 109.644531 110.175781 109.804688 110.175781 C 109.96875 110.175781 110.070312 110.0625 110.070312 109.8125 C 110.070312 109.554688 109.96875 109.4375 109.804688 109.4375 C 109.644531 109.4375 109.546875 109.554688 109.546875 109.8125 Z M 111.671875 108.964844 L 112.554688 108.964844 L 110.496094 112.734375 L 109.609375 112.734375 Z M 112.351562 110.988281 C 112.859375 110.988281 113.242188 111.289062 113.242188 111.890625 C 113.242188 112.484375 112.867188 112.796875 112.351562 112.796875 C 111.84375 112.796875 111.460938 112.484375 111.460938 111.890625 C 111.46875 111.289062 111.84375 110.988281 112.351562 110.988281 Z M 112.089844 111.890625 C 112.089844 112.140625 112.183594 112.257812 112.34375 112.257812 C 112.507812 112.257812 112.609375 112.140625 112.609375 111.890625 C 112.609375 111.640625 112.507812 111.519531 112.34375 111.519531 C 112.183594 111.519531 112.089844 111.636719 112.089844 111.890625 Z M 112.089844 111.890625 " fill-opacity="1" fill-rule="nonzero"/><path fill="#f6ad9a" d="M 132.007812 109.554688 L 135.914062 109.570312 L 135.882812 119.363281 L 131.976562 119.351562 Z M 132.007812 109.554688 " fill-opacity="1" fill-rule="nonzero"/><path fill="#1a2b47" d="M 139.917969 105.953125 L 143.824219 105.964844 L 143.78125 119.390625 L 139.875 119.378906 Z M 139.917969 105.953125 " fill-opacity="1" fill-rule="nonzero"/><path fill="#f7f2e8" d="M 147.835938 100.632812 L 151.742188 100.644531 L 151.683594 119.414062 L 147.777344 119.398438 Z M 147.835938 100.632812 " fill-opacity="1" fill-rule="nonzero"/><path fill="#1a2b47" d="M 155.71875 106.257812 L 159.625 106.269531 L 159.582031 119.445312 L 155.679688 119.433594 Z M 155.71875 106.257812 " fill-opacity="1" fill-rule="nonzero"/><path fill="#f7f2e8" d="M 163.59375 112.960938 L 167.5 112.972656 L 167.476562 119.464844 L 163.574219 119.453125 Z M 163.59375 112.960938 " fill-opacity="1" fill-rule="nonzero"/><path fill="#f7f2e8" d="M 179.441406 96.847656 L 183.347656 96.859375 L 183.273438 119.511719 L 179.371094 119.5 Z M 179.441406 96.847656 " fill-opacity="1" fill-rule="nonzero"/><path fill="#1a2b47" d="M 171.527344 101.914062 L 175.433594 101.925781 L 175.378906 119.492188 L 171.472656 119.480469 Z M 171.527344 101.914062 " fill-opacity="1" fill-rule="nonzero"/><path fill="#f7f2e8" d="M 93.683594 30.054688 L 112.269531 30.054688 L 112.269531 31.820312 L 93.683594 31.820312 Z M 93.683594 30.054688 " fill-opacity="1" fill-rule="nonzero"/><path fill="#f7f2e8" d="M 93.683594 35.144531 L 112.269531 35.144531 L 112.269531 36.90625 L 93.683594 36.90625 Z M 93.683594 35.144531 " fill-opacity="1" fill-rule="nonzero"/><path fill="#1a2b47" d="M 134.140625 99.628906 L 133.835938 99.007812 L 152.753906 89.550781 L 165.847656 94.824219 L 187.363281 81.328125 L 214.136719 91.757812 L 213.886719 92.40625 L 187.4375 82.097656 L 165.914062 95.597656 L 152.785156 90.304688 Z M 134.140625 99.628906 " fill-opacity="1" fill-rule="nonzero"/><path fill="#e9a082" d="M 154.53125 90.125 C 154.53125 90.394531 154.476562 90.65625 154.375 90.910156 C 154.269531 91.160156 154.121094 91.382812 153.929688 91.574219 C 153.734375 91.769531 153.515625 91.917969 153.261719 92.019531 C 153.011719 92.125 152.75 92.175781 152.476562 92.175781 C 152.203125 92.175781 151.941406 92.125 151.691406 92.019531 C 151.4375 91.917969 151.214844 91.769531 151.023438 91.574219 C 150.832031 91.382812 150.683594 91.160156 150.578125 90.910156 C 150.472656 90.65625 150.421875 90.394531 150.421875 90.125 C 150.421875 89.851562 150.472656 89.589844 150.578125 89.335938 C 150.683594 89.085938 150.832031 88.863281 151.023438 88.671875 C 151.214844 88.480469 151.4375 88.332031 151.691406 88.226562 C 151.941406 88.121094 152.203125 88.070312 152.476562 88.070312 C 152.75 88.070312 153.011719 88.121094 153.261719 88.226562 C 153.515625 88.332031 153.734375 88.480469 153.929688 88.671875 C 154.121094 88.863281 154.269531 89.085938 154.375 89.335938 C 154.476562 89.589844 154.53125 89.851562 154.53125 90.125 Z M 154.53125 90.125 " fill-opacity="1" fill-rule="nonzero"/><path fill="#e9a082" d="M 136.234375 99.515625 C 136.234375 99.785156 136.183594 100.050781 136.078125 100.300781 C 135.972656 100.550781 135.824219 100.773438 135.632812 100.96875 C 135.441406 101.160156 135.21875 101.308594 134.96875 101.414062 C 134.714844 101.515625 134.453125 101.570312 134.179688 101.570312 C 133.910156 101.570312 133.648438 101.515625 133.394531 101.414062 C 133.144531 101.308594 132.921875 101.160156 132.730469 100.96875 C 132.535156 100.773438 132.386719 100.550781 132.285156 100.300781 C 132.179688 100.050781 132.128906 99.785156 132.128906 99.515625 C 132.128906 99.242188 132.179688 98.980469 132.285156 98.730469 C 132.386719 98.476562 132.535156 98.253906 132.730469 98.0625 C 132.921875 97.871094 133.144531 97.722656 133.394531 97.617188 C 133.648438 97.511719 133.910156 97.460938 134.179688 97.460938 C 134.453125 97.460938 134.714844 97.511719 134.96875 97.617188 C 135.21875 97.722656 135.441406 97.871094 135.632812 98.0625 C 135.824219 98.253906 135.972656 98.476562 136.078125 98.730469 C 136.183594 98.980469 136.234375 99.242188 136.234375 99.515625 Z M 136.234375 99.515625 " fill-opacity="1" fill-rule="nonzero"/><path fill="#e9a082" d="M 167.933594 95.210938 C 167.933594 95.484375 167.882812 95.746094 167.777344 95.996094 C 167.671875 96.25 167.523438 96.472656 167.332031 96.664062 C 167.140625 96.855469 166.917969 97.003906 166.664062 97.109375 C 166.414062 97.210938 166.152344 97.265625 165.878906 97.265625 C 165.609375 97.265625 165.34375 97.210938 165.09375 97.109375 C 164.84375 97.003906 164.621094 96.855469 164.429688 96.664062 C 164.234375 96.472656 164.085938 96.25 163.984375 95.996094 C 163.878906 95.746094 163.828125 95.484375 163.828125 95.210938 C 163.828125 94.9375 163.878906 94.675781 163.984375 94.425781 C 164.085938 94.171875 164.234375 93.953125 164.429688 93.757812 C 164.621094 93.566406 164.84375 93.417969 165.09375 93.3125 C 165.34375 93.210938 165.609375 93.15625 165.878906 93.15625 C 166.152344 93.15625 166.414062 93.210938 166.664062 93.3125 C 166.917969 93.417969 167.140625 93.566406 167.332031 93.757812 C 167.523438 93.953125 167.671875 94.171875 167.777344 94.425781 C 167.882812 94.675781 167.933594 94.9375 167.933594 95.210938 Z M 167.933594 95.210938 " fill-opacity="1" fill-rule="nonzero"/><path fill="#e9a082" d="M 189.417969 82.339844 C 189.417969 82.613281 189.367188 82.875 189.261719 83.125 C 189.15625 83.378906 189.007812 83.601562 188.816406 83.792969 C 188.625 83.984375 188.402344 84.132812 188.148438 84.238281 C 187.898438 84.34375 187.636719 84.394531 187.363281 84.394531 C 187.09375 84.394531 186.828125 84.34375 186.578125 84.238281 C 186.328125 84.132812 186.105469 83.984375 185.910156 83.792969 C 185.71875 83.601562 185.570312 83.378906 185.464844 83.125 C 185.363281 82.875 185.308594 82.613281 185.308594 82.339844 C 185.308594 82.070312 185.363281 81.804688 185.464844 81.554688 C 185.570312 81.304688 185.71875 81.082031 185.910156 80.886719 C 186.105469 80.695312 186.328125 80.546875 186.578125 80.445312 C 186.828125 80.339844 187.09375 80.285156 187.363281 80.285156 C 187.636719 80.285156 187.898438 80.339844 188.148438 80.445312 C 188.402344 80.546875 188.625 80.695312 188.816406 80.886719 C 189.007812 81.082031 189.15625 81.304688 189.261719 81.554688 C 189.367188 81.804688 189.417969 82.070312 189.417969 82.339844 Z M 189.417969 82.339844 " fill-opacity="1" fill-rule="nonzero"/><path fill="#e9a082" d="M 218.078125 92.226562 C 218.078125 92.714844 217.984375 93.191406 217.792969 93.644531 C 217.605469 94.097656 217.339844 94.5 216.992188 94.847656 C 216.644531 95.195312 216.242188 95.464844 215.789062 95.652344 C 215.332031 95.839844 214.859375 95.933594 214.367188 95.933594 C 213.875 95.933594 213.402344 95.839844 212.949219 95.652344 C 212.492188 95.464844 212.09375 95.195312 211.746094 94.847656 C 211.398438 94.5 211.128906 94.097656 210.941406 93.644531 C 210.753906 93.191406 210.660156 92.714844 210.660156 92.226562 C 210.660156 91.734375 210.753906 91.261719 210.941406 90.804688 C 211.128906 90.351562 211.398438 89.949219 211.746094 89.601562 C 212.09375 89.253906 212.492188 88.988281 212.949219 88.796875 C 213.402344 88.609375 213.875 88.515625 214.367188 88.515625 C 214.859375 88.515625 215.332031 88.609375 215.789062 88.796875 C 216.242188 88.988281 216.644531 89.253906 216.992188 89.601562 C 217.339844 89.949219 217.605469 90.351562 217.792969 90.804688 C 217.984375 91.261719 218.078125 91.734375 218.078125 92.226562 Z M 218.078125 92.226562 " fill-opacity="1" fill-rule="nonzero"/><path fill="#f7f2e8" d="M 186.695312 165.738281 L 88.328125 165.738281 C 87.28125 165.738281 86.4375 164.886719 86.4375 163.84375 L 86.4375 137.097656 C 86.4375 136.050781 87.289062 135.207031 88.328125 135.207031 L 186.6875 135.207031 C 187.734375 135.207031 188.582031 136.058594 188.582031 137.097656 L 188.582031 163.84375 C 188.585938 164.890625 187.734375 165.738281 186.695312 165.738281 Z M 186.695312 165.738281 " fill-opacity="1" fill-rule="nonzero"/><path fill="#1a2b47" d="M 186.695312 165.890625 L 88.328125 165.890625 C 87.199219 165.890625 86.28125 164.972656 86.28125 163.84375 L 86.28125 137.097656 C 86.28125 135.96875 87.199219 135.050781 88.328125 135.050781 L 186.695312 135.050781 C 187.824219 135.050781 188.742188 135.96875 188.742188 137.097656 L 188.742188 163.84375 C 188.734375 164.972656 187.824219 165.890625 186.695312 165.890625 Z M 88.328125 135.355469 C 87.367188 135.355469 86.585938 136.140625 86.585938 137.097656 L 86.585938 163.84375 C 86.585938 164.804688 87.367188 165.589844 88.328125 165.589844 L 186.695312 165.589844 C 187.65625 165.589844 188.4375 164.804688 188.4375 163.84375 L 188.4375 137.097656 C 188.4375 136.140625 187.65625 135.355469 186.695312 135.355469 Z M 88.328125 135.355469 " fill-opacity="1" fill-rule="nonzero"/><path fill="#1a2b47" d="M 163.339844 148.460938 L 150.414062 144.785156 L 138.78125 148.304688 L 138.742188 148.292969 L 119.960938 143.507812 L 108.332031 147.03125 L 108.292969 147.023438 L 92.429688 143.875 L 92.488281 143.5625 L 108.320312 146.707031 L 119.953125 143.179688 L 119.992188 143.191406 L 138.773438 147.976562 L 150.410156 144.457031 L 163.285156 148.117188 L 174.070312 141.382812 L 182.160156 142.886719 L 182.109375 143.199219 L 174.128906 141.710938 Z M 163.339844 148.460938 " fill-opacity="1" fill-rule="nonzero"/><path fill="#1a2b47" d="M 108.292969 160.386719 L 107.972656 160.386719 L 107.972656 159.097656 L 108.292969 159.097656 Z M 108.292969 157.804688 L 107.972656 157.804688 L 107.972656 156.515625 L 108.292969 156.515625 Z M 108.292969 155.21875 L 107.972656 155.21875 L 107.972656 153.925781 L 108.292969 153.925781 Z M 108.292969 152.628906 L 107.972656 152.628906 L 107.972656 151.339844 L 108.292969 151.339844 Z M 108.292969 150.042969 L 107.972656 150.042969 L 107.972656 148.753906 L 108.292969 148.753906 Z M 108.292969 150.042969 " fill-opacity="1" fill-rule="nonzero"/><path fill="#1a2b47" d="M 120.113281 162.351562 L 119.796875 162.351562 L 119.796875 161.164062 L 120.113281 161.164062 Z M 120.113281 159.894531 L 119.796875 159.894531 L 119.796875 158.621094 L 120.113281 158.621094 Z M 120.113281 157.351562 L 119.796875 157.351562 L 119.796875 156.082031 L 120.113281 156.082031 Z M 120.113281 154.804688 L 119.796875 154.804688 L 119.796875 153.535156 L 120.113281 153.535156 Z M 120.113281 152.257812 L 119.796875 152.257812 L 119.796875 150.988281 L 120.113281 150.988281 Z M 120.113281 149.710938 L 119.796875 149.710938 L 119.796875 148.441406 L 120.113281 148.441406 Z M 120.113281 147.164062 L 119.796875 147.164062 L 119.796875 145.894531 L 120.113281 145.894531 Z M 120.113281 144.617188 L 119.796875 144.617188 L 119.796875 143.347656 L 120.113281 143.347656 Z M 120.113281 144.617188 " fill-opacity="1" fill-rule="nonzero"/><path fill="#1a2b47" d="M 138.9375 162.144531 L 138.621094 162.144531 L 138.621094 160.871094 L 138.9375 160.871094 Z M 138.9375 159.597656 L 138.621094 159.597656 L 138.621094 158.324219 L 138.9375 158.324219 Z M 138.9375 157.054688 L 138.621094 157.054688 L 138.621094 155.785156 L 138.9375 155.785156 Z M 138.9375 154.507812 L 138.621094 154.507812 L 138.621094 153.238281 L 138.9375 153.238281 Z M 138.9375 151.960938 L 138.621094 151.960938 L 138.621094 150.691406 L 138.9375 150.691406 Z M 138.9375 149.414062 L 138.621094 149.414062 L 138.621094 148.144531 L 138.9375 148.144531 Z M 138.9375 149.414062 " fill-opacity="1" fill-rule="nonzero"/><path fill="#1a2b47" d="M 163.71875 162.136719 L 163.402344 162.136719 L 163.402344 160.867188 L 163.71875 160.867188 Z M 163.71875 159.589844 L 163.402344 159.589844 L 163.402344 158.320312 L 163.71875 158.320312 Z M 163.71875 157.042969 L 163.402344 157.042969 L 163.402344 155.773438 L 163.71875 155.773438 Z M 163.71875 154.496094 L 163.402344 154.496094 L 163.402344 153.226562 L 163.71875 153.226562 Z M 163.71875 151.949219 L 163.402344 151.949219 L 163.402344 150.679688 L 163.71875 150.679688 Z M 163.71875 149.402344 L 163.402344 149.402344 L 163.402344 148.128906 L 163.71875 148.128906 Z M 163.71875 149.402344 " fill-opacity="1" fill-rule="nonzero"/><path fill="#1a2b47" d="M 150.570312 161.167969 L 150.253906 161.167969 L 150.253906 159.898438 L 150.570312 159.898438 Z M 150.570312 158.621094 L 150.253906 158.621094 L 150.253906 157.351562 L 150.570312 157.351562 Z M 150.570312 156.074219 L 150.253906 156.074219 L 150.253906 154.804688 L 150.570312 154.804688 Z M 150.570312 153.527344 L 150.253906 153.527344 L 150.253906 152.257812 L 150.570312 152.257812 Z M 150.570312 150.980469 L 150.253906 150.980469 L 150.253906 149.710938 L 150.570312 149.710938 Z M 150.570312 148.441406 L 150.253906 148.441406 L 150.253906 147.171875 L 150.570312 147.171875 Z M 150.570312 145.894531 L 150.253906 145.894531 L 150.253906 144.625 L 150.570312 144.625 Z M 150.570312 145.894531 " fill-opacity="1" fill-rule="nonzero"/><path fill="#1a2b47" d="M 174.257812 162.351562 L 173.941406 162.351562 L 173.941406 161.914062 L 174.257812 161.914062 Z M 174.257812 160.644531 L 173.941406 160.644531 L 173.941406 159.371094 L 174.257812 159.371094 Z M 174.257812 158.097656 L 173.941406 158.097656 L 173.941406 156.824219 L 174.257812 156.824219 Z M 174.257812 155.550781 L 173.941406 155.550781 L 173.941406 154.277344 L 174.257812 154.277344 Z M 174.257812 153 L 173.941406 153 L 173.941406 151.730469 L 174.257812 151.730469 Z M 174.257812 150.460938 L 173.941406 150.460938 L 173.941406 149.191406 L 174.257812 149.191406 Z M 174.257812 147.914062 L 173.941406 147.914062 L 173.941406 146.644531 L 174.257812 146.644531 Z M 174.257812 145.367188 L 173.941406 145.367188 L 173.941406 144.097656 L 174.257812 144.097656 Z M 174.257812 142.820312 L 173.941406 142.820312 L 173.941406 141.550781 L 174.257812 141.550781 Z M 174.257812 142.820312 " fill-opacity="1" fill-rule="nonzero"/><path fill="#a6a6a6" d="M 104.117188 163.21875 L 111.304688 163.21875 L 111.304688 164.265625 L 104.117188 164.265625 Z M 104.117188 163.21875 " fill-opacity="1" fill-rule="nonzero"/><path fill="#f6ad9a" d="M 115.964844 163.21875 L 123.15625 163.21875 L 123.15625 164.265625 L 115.964844 164.265625 Z M 115.964844 163.21875 " fill-opacity="1" fill-rule="nonzero"/><path fill="#a6a6a6" d="M 133.917969 163.21875 L 141.105469 163.21875 L 141.105469 164.265625 L 133.917969 164.265625 Z M 133.917969 163.21875 " fill-opacity="1" fill-rule="nonzero"/><path fill="#f6ad9a" d="M 146.976562 163.21875 L 154.164062 163.21875 L 154.164062 164.265625 L 146.976562 164.265625 Z M 146.976562 163.21875 " fill-opacity="1" fill-rule="nonzero"/><path fill="#f6ad9a" d="M 160.125 163.21875 L 167.3125 163.21875 L 167.3125 164.265625 L 160.125 164.265625 Z M 160.125 163.21875 " fill-opacity="1" fill-rule="nonzero"/><path fill="#a6a6a6" d="M 169.820312 163.21875 L 177.007812 163.21875 L 177.007812 164.265625 L 169.820312 164.265625 Z M 169.820312 163.21875 " fill-opacity="1" fill-rule="nonzero"/><path fill="#e9a082" d="M 109 146.875 C 109 147.109375 108.917969 147.308594 108.753906 147.476562 C 108.585938 147.640625 108.386719 147.726562 108.148438 147.726562 C 107.914062 147.726562 107.714844 147.640625 107.546875 147.476562 C 107.382812 147.308594 107.296875 147.109375 107.296875 146.875 C 107.296875 146.640625 107.382812 146.4375 107.546875 146.273438 C 107.714844 146.105469 107.914062 146.023438 108.148438 146.023438 C 108.386719 146.023438 108.585938 146.105469 108.753906 146.273438 C 108.917969 146.4375 109 146.640625 109 146.875 Z M 109 146.875 " fill-opacity="1" fill-rule="nonzero"/><path fill="#e9a082" d="M 120.859375 143.359375 C 120.859375 143.597656 120.773438 143.796875 120.609375 143.964844 C 120.441406 144.128906 120.242188 144.210938 120.007812 144.210938 C 119.773438 144.210938 119.570312 144.128906 119.40625 143.964844 C 119.238281 143.796875 119.15625 143.597656 119.15625 143.359375 C 119.15625 143.125 119.238281 142.925781 119.40625 142.757812 C 119.570312 142.59375 119.773438 142.511719 120.007812 142.511719 C 120.242188 142.511719 120.441406 142.59375 120.609375 142.757812 C 120.773438 142.925781 120.859375 143.125 120.859375 143.359375 Z M 120.859375 143.359375 " fill-opacity="1" fill-rule="nonzero"/><path fill="#e9a082" d="M 139.632812 148.136719 C 139.632812 148.371094 139.550781 148.574219 139.382812 148.738281 C 139.21875 148.90625 139.015625 148.988281 138.78125 148.988281 C 138.546875 148.988281 138.347656 148.90625 138.179688 148.738281 C 138.011719 148.574219 137.929688 148.371094 137.929688 148.136719 C 137.929688 147.902344 138.011719 147.703125 138.179688 147.535156 C 138.347656 147.371094 138.546875 147.285156 138.78125 147.285156 C 139.015625 147.285156 139.21875 147.371094 139.382812 147.535156 C 139.550781 147.703125 139.632812 147.902344 139.632812 148.136719 Z M 139.632812 148.136719 " fill-opacity="1" fill-rule="nonzero"/><path fill="#e9a082" d="M 151.261719 144.617188 C 151.261719 144.851562 151.175781 145.054688 151.011719 145.21875 C 150.84375 145.386719 150.644531 145.46875 150.410156 145.46875 C 150.171875 145.46875 149.972656 145.386719 149.808594 145.21875 C 149.640625 145.054688 149.558594 144.851562 149.558594 144.617188 C 149.558594 144.382812 149.640625 144.183594 149.808594 144.015625 C 149.972656 143.847656 150.171875 143.765625 150.410156 143.765625 C 150.644531 143.765625 150.84375 143.847656 151.011719 144.015625 C 151.175781 144.183594 151.261719 144.382812 151.261719 144.617188 Z M 151.261719 144.617188 " fill-opacity="1" fill-rule="nonzero"/><path fill="#e9a082" d="M 164.144531 148.105469 C 164.144531 148.339844 164.0625 148.539062 163.894531 148.707031 C 163.726562 148.871094 163.527344 148.953125 163.292969 148.953125 C 163.058594 148.953125 162.855469 148.871094 162.691406 148.707031 C 162.523438 148.539062 162.441406 148.339844 162.441406 148.105469 C 162.441406 147.867188 162.523438 147.667969 162.691406 147.5 C 162.855469 147.335938 163.058594 147.253906 163.292969 147.253906 C 163.527344 147.253906 163.726562 147.335938 163.894531 147.5 C 164.0625 147.667969 164.144531 147.867188 164.144531 148.105469 Z M 164.144531 148.105469 " fill-opacity="1" fill-rule="nonzero"/><path fill="#e9a082" d="M 174.953125 141.542969 C 174.953125 141.777344 174.871094 141.980469 174.703125 142.144531 C 174.539062 142.3125 174.335938 142.394531 174.101562 142.394531 C 173.867188 142.394531 173.667969 142.3125 173.5 142.144531 C 173.332031 141.980469 173.25 141.777344 173.25 141.542969 C 173.25 141.308594 173.332031 141.109375 173.5 140.941406 C 173.667969 140.777344 173.867188 140.691406 174.101562 140.691406 C 174.335938 140.691406 174.539062 140.777344 174.703125 140.941406 C 174.871094 141.109375 174.953125 141.308594 174.953125 141.542969 Z M 174.953125 141.542969 " fill-opacity="1" fill-rule="nonzero"/><path fill="#f7f2e8" d="M 174.007812 38.527344 L 189.230469 38.527344 L 189.230469 40.175781 L 174.007812 40.175781 Z M 174.007812 38.527344 " fill-opacity="1" fill-rule="nonzero"/><path fill="#f7f2e8" d="M 174.007812 43.871094 L 189.230469 43.871094 L 189.230469 45.519531 L 174.007812 45.519531 Z M 174.007812 43.871094 " fill-opacity="1" fill-rule="nonzero"/><path fill="#f7f2e8" d="M 174.007812 49.222656 L 189.230469 49.222656 L 189.230469 50.871094 L 174.007812 50.871094 Z M 174.007812 49.222656 " fill-opacity="1" fill-rule="nonzero"/><path fill="#e9a082" d="M 26.894531 215.5 C 26.894531 215.5 33.207031 216.441406 33.496094 215.582031 C 34.726562 211.902344 35.582031 208.617188 36.488281 205.558594 C 36.578125 205.257812 36.664062 204.960938 36.753906 204.664062 C 38.007812 200.367188 38.996094 191.707031 39.757812 188.003906 C 40.527344 184.261719 41.0625 181.039062 41.421875 178.769531 C 41.679688 177.105469 41.847656 175.957031 41.929688 175.480469 C 42.351562 173.109375 50.265625 141.375 50.265625 141.375 L 49.546875 139.042969 L 44.644531 137.410156 L 35.765625 137.429688 L 35.394531 139.21875 L 34.636719 142.910156 C 34.636719 142.910156 34.179688 155.421875 33.136719 163.960938 C 32.835938 166.480469 32.484375 168.65625 32.078125 170.0625 C 30.957031 173.972656 30.597656 179.707031 30.308594 184.902344 L 30.28125 185.398438 C 30.125 188.074219 29.988281 190.578125 29.765625 192.59375 C 29.753906 192.71875 29.738281 192.847656 29.726562 192.976562 C 29.699219 193.191406 29.671875 193.421875 29.644531 193.667969 C 28.996094 198.957031 26.894531 215.5 26.894531 215.5 Z M 26.894531 215.5 " fill-opacity="1" fill-rule="nonzero"/><path fill="#e9a082" d="M 34.636719 142.914062 C 34.636719 142.914062 36.28125 153.933594 36.976562 161.453125 C 37.671875 168.972656 39.453125 169.863281 39.792969 179.160156 C 40.128906 188.457031 43.359375 220.074219 43.359375 220.074219 L 37.152344 222.472656 C 37.152344 222.472656 36.359375 220.832031 35.320312 217.238281 C 33.460938 210.855469 30.585938 192.800781 30.253906 189.019531 C 29.738281 183.105469 29.3125 178.890625 28.375 176.546875 C 27.4375 174.203125 21.039062 157.546875 18.160156 145.207031 L 25.617188 138.050781 Z M 34.636719 142.914062 " fill-opacity="1" fill-rule="nonzero"/><path fill="#1a2b47" d="M 34.085938 212.683594 C 34.023438 212.683594 33.976562 212.644531 33.960938 212.589844 C 32.292969 205.808594 30.410156 192.21875 30.132812 189.039062 C 30.125 188.972656 30.179688 188.902344 30.246094 188.898438 C 30.3125 188.890625 30.382812 188.945312 30.386719 189.011719 C 30.664062 192.1875 32.542969 205.753906 34.210938 212.527344 C 34.234375 212.597656 34.183594 212.664062 34.117188 212.683594 C 34.105469 212.675781 34.089844 212.683594 34.085938 212.683594 Z M 34.085938 212.683594 " fill-opacity="1" fill-rule="nonzero"/><path fill="#e9a082" d="M 40.035156 215.421875 L 41.601562 215.226562 C 41.601562 215.226562 42.652344 217.824219 43.332031 219.378906 C 44.023438 220.933594 44.433594 223.683594 44.824219 225.933594 C 45.21875 228.183594 46.074219 231.214844 46.074219 231.214844 C 46.074219 231.214844 47.347656 235.289062 46.433594 235.933594 C 45.527344 236.574219 40.171875 237.679688 38.960938 237.011719 C 37.753906 236.34375 36.746094 235.992188 36.746094 235.992188 C 36.746094 235.992188 36.730469 229.917969 36.71875 226.507812 C 36.707031 223.09375 36.070312 215.90625 36.070312 215.90625 L 40.035156 215.421875 " fill-opacity="1" fill-rule="nonzero"/><path fill="#1a2b47" d="M 46.082031 231.222656 C 46.082031 231.222656 45.898438 233.007812 42.785156 233.332031 C 39.671875 233.65625 37.097656 232.582031 36.691406 230.238281 C 36.691406 230.238281 36.035156 236.863281 36.558594 237.640625 C 37.078125 238.417969 38.625 240.34375 39.507812 240.558594 C 40.394531 240.777344 45.804688 240.714844 46.453125 240.011719 C 47.101562 239.308594 47.386719 236.855469 47.265625 235.066406 C 47.144531 233.269531 46.082031 231.222656 46.082031 231.222656 Z M 46.082031 231.222656 " fill-opacity="1" fill-rule="nonzero"/><path fill="#e9a082" d="M 28.140625 211.875 C 28.140625 211.875 27.089844 214.476562 26.410156 216.027344 C 25.71875 217.582031 25.308594 220.332031 24.917969 222.582031 C 24.523438 224.832031 23.667969 227.863281 23.667969 227.863281 C 23.667969 227.863281 22.394531 231.9375 23.308594 232.582031 C 24.214844 233.222656 29.570312 234.332031 30.78125 233.660156 C 31.988281 232.992188 32.996094 232.640625 32.996094 232.640625 C 32.996094 232.640625 33.011719 226.566406 33.023438 223.15625 C 33.035156 219.746094 33.671875 212.554688 33.671875 212.554688 Z M 28.140625 211.875 " fill-opacity="1" fill-rule="nonzero"/><path fill="#1a2b47" d="M 23.667969 227.863281 C 23.667969 227.863281 23.847656 229.648438 26.964844 229.972656 C 30.078125 230.289062 32.652344 229.222656 33.058594 226.878906 C 33.058594 226.878906 33.710938 233.507812 33.191406 234.285156 C 32.671875 235.058594 31.125 236.984375 30.238281 237.203125 C 29.355469 237.417969 23.941406 237.355469 23.292969 236.65625 C 22.644531 235.953125 22.363281 233.5 22.484375 231.710938 C 22.605469 229.917969 23.667969 227.863281 23.667969 227.863281 Z M 23.667969 227.863281 " fill-opacity="1" fill-rule="nonzero"/><path fill="#a6a6a6" d="M 49.222656 126.457031 C 49.222656 126.457031 52.84375 136.355469 51.367188 145.808594 C 49.886719 155.257812 45.601562 171.507812 45.601562 171.507812 C 45.601562 171.507812 35.117188 175.9375 25.964844 172.984375 C 25.964844 172.984375 11.855469 139.941406 17.949219 126.984375 C 17.949219 126.976562 32.761719 123.28125 49.222656 126.457031 Z M 49.222656 126.457031 " fill-opacity="1" fill-rule="nonzero"/><path fill="#1a2b47" d="M 33.589844 46.3125 C 33.589844 46.3125 25.246094 46.5 22.429688 51.574219 C 19.605469 56.640625 20.570312 62.605469 20.445312 66.585938 C 20.316406 70.566406 18.457031 75.820312 16.335938 77.6875 C 14.222656 79.542969 24.355469 79.097656 24.355469 79.097656 L 43.859375 78.910156 C 43.859375 78.910156 41.679688 75.570312 42.449219 70.503906 C 43.21875 65.4375 43.394531 60.296875 42.699219 57.058594 C 42.003906 53.824219 39.773438 49.085938 37.320312 47.535156 C 36.253906 46.859375 33.589844 46.3125 33.589844 46.3125 Z M 33.589844 46.3125 " fill-opacity="1" fill-rule="nonzero"/><path fill="#e9a082" d="M 36.542969 71.585938 C 36.542969 71.585938 37.65625 78.28125 38.109375 79.308594 C 38.554688 80.335938 29.679688 79.542969 27.820312 78.964844 C 25.964844 78.386719 25.320312 76.910156 25.320312 76.910156 C 25.320312 76.910156 27.820312 70.363281 27.117188 67.546875 C 26.414062 64.726562 36.542969 71.585938 36.542969 71.585938 Z M 36.542969 71.585938 " fill-opacity="1" fill-rule="nonzero"/><path fill="#e9a082" d="M 34.699219 72.726562 C 30.894531 73.242188 27.671875 69.226562 26.21875 65.371094 C 24.765625 61.511719 23.253906 47.628906 31.699219 47.113281 C 40.144531 46.601562 40.832031 55.703125 40.949219 59.816406 C 41.0625 63.9375 39.855469 72.039062 34.699219 72.726562 Z M 34.699219 72.726562 " fill-opacity="1" fill-rule="nonzero"/><path fill="#1a2b47" d="M 34.078125 72.894531 C 32.488281 72.894531 30.765625 72.140625 29.160156 70.71875 C 29.105469 70.671875 29.097656 70.59375 29.144531 70.539062 C 29.191406 70.484375 29.273438 70.476562 29.328125 70.523438 C 31.105469 72.085938 33.003906 72.820312 34.683594 72.59375 C 35.257812 72.519531 35.808594 72.335938 36.3125 72.066406 C 36.375 72.03125 36.457031 72.050781 36.488281 72.117188 C 36.523438 72.179688 36.496094 72.261719 36.433594 72.292969 C 35.902344 72.578125 35.328125 72.769531 34.71875 72.847656 C 34.507812 72.882812 34.292969 72.894531 34.078125 72.894531 Z M 34.078125 72.894531 " fill-opacity="1" fill-rule="nonzero"/><path fill="#1a2b47" d="M 38.914062 60.085938 C 38.917969 60.300781 38.863281 60.488281 38.742188 60.644531 C 38.621094 60.800781 38.472656 60.882812 38.296875 60.886719 C 38.117188 60.894531 37.964844 60.824219 37.835938 60.671875 C 37.703125 60.523438 37.636719 60.339844 37.628906 60.125 C 37.621094 59.910156 37.679688 59.722656 37.800781 59.566406 C 37.917969 59.410156 38.070312 59.328125 38.246094 59.320312 C 38.421875 59.316406 38.578125 59.386719 38.707031 59.535156 C 38.835938 59.6875 38.90625 59.867188 38.914062 60.085938 Z M 38.914062 60.085938 " fill-opacity="1" fill-rule="nonzero"/><path fill="#1a2b47" d="M 35.449219 65.25 C 35.382812 65.25 35.328125 65.199219 35.320312 65.132812 C 35.3125 65.066406 35.367188 65 35.433594 64.992188 L 35.625 64.972656 C 35.78125 64.957031 35.921875 64.875 36.003906 64.75 C 36.089844 64.621094 36.109375 64.457031 36.070312 64.308594 L 35.792969 63.417969 C 35.773438 63.351562 35.8125 63.277344 35.882812 63.253906 C 35.949219 63.234375 36.023438 63.277344 36.042969 63.34375 L 36.320312 64.234375 C 36.386719 64.457031 36.355469 64.695312 36.226562 64.890625 C 36.097656 65.085938 35.886719 65.207031 35.652344 65.226562 L 35.460938 65.25 C 35.457031 65.25 35.457031 65.25 35.449219 65.25 Z M 35.449219 65.25 " fill-opacity="1" fill-rule="nonzero"/><path fill="#1a2b47" d="M 32.792969 58.511719 C 32.792969 58.511719 30.9375 58.140625 29.78125 59.304688 Z M 32.792969 58.511719 " fill-opacity="1" fill-rule="nonzero"/><path fill="#1a2b47" d="M 36.960938 58.242188 C 36.960938 58.242188 38.300781 57.546875 39.820312 58.464844 Z M 36.960938 58.242188 " fill-opacity="1" fill-rule="nonzero"/><path fill="#1a2b47" d="M 37.976562 59.390625 C 37.976562 59.390625 38.855469 58.878906 39.765625 59.480469 C 39.765625 59.480469 38.894531 59.402344 38.394531 59.660156 Z M 37.976562 59.390625 " fill-opacity="1" fill-rule="nonzero"/><path fill="#1a2b47" d="M 32.84375 61.320312 C 32.851562 61.539062 32.796875 61.722656 32.675781 61.878906 C 32.554688 62.039062 32.40625 62.117188 32.226562 62.125 C 32.050781 62.128906 31.898438 62.058594 31.765625 61.910156 C 31.636719 61.761719 31.570312 61.578125 31.5625 61.363281 C 31.554688 61.144531 31.613281 60.957031 31.730469 60.800781 C 31.851562 60.644531 32 60.5625 32.179688 60.558594 C 32.355469 60.550781 32.507812 60.625 32.640625 60.773438 C 32.769531 60.921875 32.839844 61.105469 32.84375 61.320312 Z M 32.84375 61.320312 " fill-opacity="1" fill-rule="nonzero"/><path fill="#1a2b47" d="M 32.457031 60.605469 C 32.457031 60.605469 31.542969 60.152344 30.671875 60.808594 C 30.671875 60.808594 31.535156 60.679688 32.058594 60.902344 Z M 32.457031 60.605469 " fill-opacity="1" fill-rule="nonzero"/><path fill="#f7f2e8" d="M 33.988281 67.445312 C 33.988281 67.445312 35.8125 70.308594 36.949219 67.019531 Z M 33.988281 67.445312 " fill-opacity="1" fill-rule="nonzero"/><path fill="#1a2b47" d="M 26.753906 61.761719 C 27.320312 59.539062 26.957031 57.511719 30.449219 56.09375 C 34.746094 54.351562 34.367188 52.453125 34.367188 52.453125 C 34.367188 52.453125 37.90625 58.59375 42.699219 57.054688 C 42.699219 57.054688 41.023438 43.804688 31.164062 46.769531 C 19.105469 50.398438 21.347656 59.128906 24.4375 61.558594 C 24.9375 61.953125 26.753906 61.761719 26.753906 61.761719 Z M 26.753906 61.761719 " fill-opacity="1" fill-rule="nonzero"/><path fill="#e9a082" d="M 26.140625 61.816406 C 26.140625 61.816406 23.503906 61.113281 23.496094 63.324219 C 23.492188 65.53125 27.066406 67.246094 27.066406 67.246094 Z M 26.140625 61.816406 " fill-opacity="1" fill-rule="nonzero"/><path fill="#1a2b47" d="M 25.457031 63.105469 C 25.457031 63.105469 23.929688 63.375 25.613281 65.078125 " fill-opacity="1" fill-rule="nonzero"/><path fill="#e9a082" d="M 68.429688 99.515625 C 68.429688 99.515625 62.019531 107.59375 56.714844 111.332031 C 54.65625 112.777344 52.980469 114.453125 51.21875 114.371094 C 48.238281 106.316406 54.292969 102.175781 54.292969 102.175781 C 54.292969 102.175781 62.886719 96.488281 67.804688 94.136719 C 67.804688 94.136719 68.390625 93.953125 69.761719 95.203125 C 71.148438 96.441406 68.429688 99.515625 68.429688 99.515625 Z M 68.429688 99.515625 " fill-opacity="1" fill-rule="nonzero"/><path fill="#f6ad9a" d="M 51.21875 114.371094 C 48.421875 114.257812 46.347656 112.75 46.101562 111.472656 C 45.710938 109.371094 45.90625 91.625 45.90625 91.625 L 47.804688 81.144531 L 46.859375 76.660156 C 46.859375 76.660156 51.804688 77.476562 52.394531 80.164062 C 52.988281 82.847656 53.96875 101.453125 54.296875 102.167969 C 54.292969 102.175781 48.238281 106.324219 51.21875 114.371094 Z M 51.21875 114.371094 " fill-opacity="1" fill-rule="nonzero"/><path fill="#e9a082" d="M 71.476562 91.726562 C 69.574219 92.054688 67.804688 94.128906 67.804688 94.128906 L 68.308594 99.675781 C 68.613281 99.609375 69.574219 99.796875 71.066406 100.277344 C 72.101562 100.609375 73.429688 100.703125 74.457031 100.582031 C 74.917969 100.527344 75.328125 100.433594 75.613281 100.304688 C 76.546875 99.871094 76.695312 98.210938 76.695312 98.210938 C 77.289062 98 77.160156 96.609375 77.160156 96.609375 C 77.808594 96.394531 77.871094 94.886719 77.871094 94.886719 C 78.390625 94.683594 78.421875 93.171875 78.421875 93.171875 L 78.429688 93.175781 C 78.511719 93.191406 79.328125 93.320312 79.234375 92.394531 C 79.132812 91.421875 75.566406 91.339844 74.917969 91.375 C 74.277344 91.414062 73.382812 91.402344 71.476562 91.726562 Z M 71.476562 91.726562 " fill-opacity="1" fill-rule="nonzero"/><path fill="#1a2b47" d="M 104.496094 56.722656 C 97.0625 50.636719 86.113281 51.730469 80.03125 59.15625 C 73.945312 66.585938 75.03125 77.539062 82.464844 83.617188 C 89.886719 89.703125 100.847656 88.617188 106.925781 81.1875 C 113.015625 73.765625 111.917969 62.808594 104.496094 56.722656 Z M 105.574219 80.085938 C 100.105469 86.765625 90.246094 87.746094 83.566406 82.273438 C 76.882812 76.792969 75.902344 66.945312 81.375 60.261719 C 86.855469 53.582031 96.707031 52.601562 103.386719 58.074219 C 110.070312 63.550781 111.046875 73.402344 105.574219 80.085938 Z M 105.574219 80.085938 " fill-opacity="1" fill-rule="nonzero"/><g mask="url(#84c32e63fb)"><g transform="matrix(1, 0, 0, 1, 77, 54)"><g clip-path="url(#a7cb909686)"><g clip-path="url(#15e43c89e4)"><path fill="#f7f2e8" d="M 28.574219 26.085938 C 23.105469 32.765625 13.246094 33.746094 6.566406 28.273438 C -0.117188 22.792969 -1.097656 12.945312 4.375 6.261719 C 9.855469 -0.417969 19.707031 -1.398438 26.386719 4.074219 C 33.070312 9.550781 34.046875 19.402344 28.574219 26.085938 Z M 28.574219 26.085938 " fill-opacity="1" fill-rule="nonzero"/></g></g></g></g><path fill="#1a2b47" d="M 69.511719 101.074219 C 68.835938 100.519531 68.75 99.519531 69.316406 98.851562 L 83.605469 82.609375 L 84.761719 83.558594 L 71.726562 100.824219 C 71.1875 101.519531 70.1875 101.628906 69.511719 101.074219 Z M 69.511719 101.074219 " fill-opacity="1" fill-rule="nonzero"/><path fill="#e9a082" d="M 74.214844 93.597656 C 74.214844 93.597656 73.011719 94.175781 73.4375 94.925781 C 73.4375 94.925781 72.464844 95.675781 72.871094 96.523438 C 72.871094 96.523438 72.429688 97.785156 72.902344 97.996094 C 73.375 98.203125 73.808594 97.480469 74.429688 97.75 C 75.050781 98.023438 74.722656 99.097656 74.722656 99.097656 L 74.675781 99.671875 L 75.09375 100.332031 C 75.550781 100.277344 75.335938 100.433594 75.621094 100.304688 C 76.550781 99.871094 76.699219 98.210938 76.699219 98.210938 C 77.296875 98 77.167969 96.609375 77.167969 96.609375 C 77.816406 96.394531 77.875 94.886719 77.875 94.886719 C 78.398438 94.683594 78.429688 93.171875 78.429688 93.171875 C 78.429688 93.171875 77.808594 92.425781 76.753906 92.394531 C 75.695312 92.367188 74.140625 92.703125 74.214844 93.597656 Z M 74.214844 93.597656 " fill-opacity="1" fill-rule="nonzero"/><path fill="#1a2b47" d="M 77.660156 94.96875 C 77.492188 94.5 77.113281 93.8125 76.796875 93.730469 C 76.355469 93.617188 74.800781 93.757812 74.242188 93.820312 L 74.1875 93.367188 C 74.402344 93.339844 76.308594 93.136719 76.910156 93.292969 C 77.585938 93.46875 78.039062 94.683594 78.085938 94.820312 Z M 77.660156 94.96875 " fill-opacity="1" fill-rule="nonzero"/><path fill="#1a2b47" d="M 76.9375 96.625 C 76.910156 96.007812 76.726562 95.054688 76.402344 94.96875 C 75.925781 94.832031 74.121094 95.050781 73.472656 95.144531 L 73.402344 94.691406 C 73.652344 94.65625 75.863281 94.339844 76.523438 94.523438 C 77.28125 94.738281 77.382812 96.292969 77.398438 96.597656 Z M 76.9375 96.625 " fill-opacity="1" fill-rule="nonzero"/><path fill="#1a2b47" d="M 76.472656 98.246094 C 76.429688 97.859375 76.1875 96.796875 75.601562 96.554688 C 74.964844 96.292969 73.453125 96.601562 72.925781 96.738281 L 72.808594 96.296875 C 72.890625 96.277344 74.875 95.765625 75.773438 96.136719 C 76.734375 96.527344 76.917969 98.128906 76.929688 98.195312 Z M 76.472656 98.246094 " fill-opacity="1" fill-rule="nonzero"/><path fill="#1a2b47" d="M 74.9375 99.164062 L 74.5 99.027344 C 74.5 99.019531 74.753906 98.144531 74.328125 97.953125 C 74.113281 97.859375 73.929688 97.933594 73.652344 98.070312 C 73.402344 98.191406 73.121094 98.332031 72.800781 98.195312 C 72.222656 97.941406 72.5 96.886719 72.613281 96.523438 C 72.316406 95.765625 72.878906 95.117188 73.152344 94.851562 C 73.101562 94.683594 73.101562 94.507812 73.148438 94.339844 C 73.28125 93.902344 73.75 93.582031 73.976562 93.449219 C 74 93.238281 74.085938 93.042969 74.25 92.867188 C 74.75 92.339844 75.863281 92.128906 76.75 92.15625 C 77.898438 92.199219 78.566406 92.988281 78.59375 93.015625 L 78.242188 93.304688 C 78.234375 93.300781 77.667969 92.644531 76.726562 92.609375 C 75.949219 92.582031 74.957031 92.773438 74.574219 93.175781 C 74.464844 93.292969 74.417969 93.421875 74.425781 93.554688 L 74.4375 93.710938 L 74.296875 93.777344 C 74.125 93.859375 73.667969 94.144531 73.574219 94.460938 C 73.539062 94.574219 73.550781 94.675781 73.613281 94.785156 L 73.714844 94.953125 L 73.558594 95.074219 C 73.550781 95.082031 72.734375 95.722656 73.050781 96.394531 L 73.09375 96.480469 L 73.058594 96.570312 C 72.871094 97.117188 72.828125 97.699219 72.972656 97.765625 C 73.085938 97.820312 73.226562 97.75 73.4375 97.648438 C 73.714844 97.507812 74.066406 97.339844 74.492188 97.523438 C 75.152344 97.820312 75.085938 98.695312 74.9375 99.164062 Z M 74.9375 99.164062 " fill-opacity="1" fill-rule="nonzero"/><path fill="#f6ad9a" d="M 46.601562 104.203125 C 46.042969 98.515625 50.671875 80.960938 46.859375 76.660156 C 44.582031 75.539062 36.960938 74.335938 36.949219 74.363281 C 36.300781 76.617188 36.179688 78.023438 34.496094 79.160156 C 32.910156 80.234375 29.882812 79.125 26.761719 74.523438 L 18.898438 76.132812 C 18.898438 76.132812 16.796875 84.183594 16.734375 90.421875 C 16.679688 96.65625 17.949219 108.195312 17.890625 112.953125 C 17.734375 124.425781 17 127.335938 17.511719 128.078125 C 18.585938 129.300781 28.113281 128.707031 36.449219 128.078125 C 36.785156 128.050781 37.226562 126.9375 37.554688 126.917969 C 38.023438 126.882812 38.480469 127.9375 38.941406 127.917969 C 44.367188 127.621094 49.128906 126.75 49.222656 126.457031 C 49.480469 125.6875 46.851562 108.492188 46.601562 104.203125 Z M 46.601562 104.203125 " fill-opacity="1" fill-rule="nonzero"/><path fill="#1a2b47" d="M 34.894531 86.328125 C 34.894531 86.511719 34.832031 86.664062 34.699219 86.796875 C 34.570312 86.925781 34.414062 86.988281 34.234375 86.988281 C 34.050781 86.988281 33.894531 86.925781 33.765625 86.796875 C 33.636719 86.664062 33.570312 86.511719 33.570312 86.328125 C 33.570312 86.144531 33.636719 85.988281 33.765625 85.859375 C 33.894531 85.730469 34.050781 85.664062 34.234375 85.664062 C 34.414062 85.664062 34.570312 85.730469 34.699219 85.859375 C 34.832031 85.988281 34.894531 86.144531 34.894531 86.328125 Z M 34.894531 86.328125 " fill-opacity="1" fill-rule="nonzero"/><path fill="#1a2b47" d="M 35.726562 92.253906 C 35.726562 92.433594 35.660156 92.589844 35.53125 92.71875 C 35.402344 92.847656 35.246094 92.914062 35.0625 92.914062 C 34.878906 92.914062 34.726562 92.847656 34.59375 92.71875 C 34.464844 92.589844 34.402344 92.433594 34.402344 92.253906 C 34.402344 92.070312 34.464844 91.914062 34.59375 91.785156 C 34.726562 91.65625 34.878906 91.589844 35.0625 91.589844 C 35.246094 91.589844 35.402344 91.65625 35.53125 91.785156 C 35.660156 91.914062 35.726562 92.070312 35.726562 92.253906 Z M 35.726562 92.253906 " fill-opacity="1" fill-rule="nonzero"/><path fill="#1a2b47" d="M 36.003906 97.773438 C 36.003906 97.953125 35.9375 98.109375 35.808594 98.238281 C 35.679688 98.367188 35.523438 98.433594 35.339844 98.433594 C 35.15625 98.433594 35 98.367188 34.871094 98.238281 C 34.742188 98.109375 34.679688 97.953125 34.679688 97.773438 C 34.679688 97.589844 34.742188 97.433594 34.871094 97.304688 C 35 97.175781 35.15625 97.109375 35.339844 97.109375 C 35.523438 97.109375 35.679688 97.175781 35.808594 97.304688 C 35.9375 97.433594 36.003906 97.589844 36.003906 97.773438 Z M 36.003906 97.773438 " fill-opacity="1" fill-rule="nonzero"/><path fill="#1a2b47" d="M 36.003906 104.492188 C 36.003906 104.675781 35.9375 104.832031 35.808594 104.960938 C 35.679688 105.089844 35.523438 105.15625 35.339844 105.15625 C 35.15625 105.15625 35 105.089844 34.871094 104.960938 C 34.742188 104.832031 34.679688 104.675781 34.679688 104.492188 C 34.679688 104.3125 34.742188 104.15625 34.871094 104.027344 C 35 103.894531 35.15625 103.832031 35.339844 103.832031 C 35.523438 103.832031 35.679688 103.894531 35.808594 104.027344 C 35.9375 104.15625 36.003906 104.3125 36.003906 104.492188 Z M 36.003906 104.492188 " fill-opacity="1" fill-rule="nonzero"/><path fill="#1a2b47" d="M 35.949219 110.917969 C 35.949219 111.101562 35.882812 111.257812 35.753906 111.386719 C 35.625 111.515625 35.46875 111.582031 35.285156 111.582031 C 35.105469 111.582031 34.949219 111.515625 34.820312 111.386719 C 34.6875 111.257812 34.625 111.101562 34.625 110.917969 C 34.625 110.734375 34.6875 110.578125 34.820312 110.449219 C 34.949219 110.320312 35.105469 110.257812 35.285156 110.257812 C 35.46875 110.257812 35.625 110.320312 35.753906 110.449219 C 35.882812 110.578125 35.949219 110.734375 35.949219 110.917969 Z M 35.949219 110.917969 " fill-opacity="1" fill-rule="nonzero"/><path fill="#1a2b47" d="M 35.984375 117.78125 C 35.984375 117.964844 35.917969 118.121094 35.789062 118.25 C 35.660156 118.378906 35.503906 118.445312 35.320312 118.445312 C 35.136719 118.445312 34.980469 118.378906 34.851562 118.25 C 34.722656 118.121094 34.660156 117.964844 34.660156 117.78125 C 34.660156 117.601562 34.722656 117.445312 34.851562 117.316406 C 34.980469 117.183594 35.136719 117.121094 35.320312 117.121094 C 35.503906 117.121094 35.660156 117.183594 35.789062 117.316406 C 35.917969 117.445312 35.984375 117.601562 35.984375 117.78125 Z M 35.984375 117.78125 " fill-opacity="1" fill-rule="nonzero"/><path fill="#1a2b47" d="M 36.265625 123.605469 C 36.265625 123.789062 36.203125 123.945312 36.074219 124.074219 C 35.941406 124.203125 35.785156 124.269531 35.605469 124.269531 C 35.421875 124.269531 35.265625 124.203125 35.136719 124.074219 C 35.007812 123.945312 34.941406 123.789062 34.941406 123.605469 C 34.941406 123.421875 35.007812 123.269531 35.136719 123.136719 C 35.265625 123.007812 35.421875 122.945312 35.605469 122.945312 C 35.785156 122.945312 35.941406 123.007812 36.074219 123.136719 C 36.203125 123.269531 36.265625 123.421875 36.265625 123.605469 Z M 36.265625 123.605469 " fill-opacity="1" fill-rule="nonzero"/><path fill="#1a2b47" d="M 47.691406 113.101562 C 47.628906 113.101562 47.570312 113.054688 47.5625 112.984375 C 46.210938 101.46875 47.3125 93.394531 48.035156 88.054688 C 48.15625 87.164062 48.273438 86.320312 48.359375 85.570312 C 48.367188 85.503906 48.433594 85.449219 48.5 85.457031 C 48.570312 85.460938 48.621094 85.53125 48.617188 85.597656 C 48.527344 86.347656 48.414062 87.191406 48.292969 88.082031 C 47.570312 93.414062 46.472656 101.46875 47.820312 112.953125 C 47.824219 113.019531 47.777344 113.085938 47.703125 113.09375 C 47.699219 113.101562 47.699219 113.101562 47.691406 113.101562 Z M 47.691406 113.101562 " fill-opacity="1" fill-rule="nonzero"/><path fill="#1a2b47" d="M 26.664062 73.1875 C 26.664062 73.1875 29.511719 77.578125 34.496094 79.164062 C 34.496094 79.164062 32.132812 81.859375 31.875 82.085938 C 31.617188 82.308594 24.382812 75.070312 24.382812 75.070312 Z M 26.664062 73.1875 " fill-opacity="1" fill-rule="nonzero"/><path fill="#1a2b47" d="M 31.886719 82.207031 C 31.664062 82.207031 30.671875 81.542969 24.28125 75.160156 C 24.234375 75.113281 24.234375 75.03125 24.28125 74.976562 C 24.328125 74.929688 24.410156 74.929688 24.464844 74.976562 C 27.039062 77.550781 31.234375 81.636719 31.828125 81.941406 C 32.164062 81.609375 33.773438 79.789062 34.394531 79.078125 C 34.441406 79.023438 34.523438 79.015625 34.578125 79.0625 C 34.632812 79.113281 34.636719 79.191406 34.589844 79.246094 C 34.496094 79.355469 32.21875 81.949219 31.957031 82.179688 C 31.941406 82.191406 31.921875 82.207031 31.886719 82.207031 Z M 31.886719 82.207031 " fill-opacity="1" fill-rule="nonzero"/><path fill="#1a2b47" d="M 34.488281 79.164062 L 36.8125 73.476562 L 39.46875 74.839844 C 39.46875 74.839844 38.328125 79.308594 37.402344 81.488281 Z M 34.488281 79.164062 " fill-opacity="1" fill-rule="nonzero"/><path fill="#1a2b47" d="M 37.40625 81.617188 C 37.382812 81.617188 37.355469 81.609375 37.328125 81.589844 L 34.410156 79.265625 C 34.355469 79.21875 34.339844 79.144531 34.386719 79.085938 C 34.433594 79.03125 34.515625 79.015625 34.570312 79.0625 L 37.355469 81.285156 C 38.253906 79.089844 39.339844 74.863281 39.347656 74.816406 C 39.367188 74.746094 39.433594 74.707031 39.503906 74.71875 C 39.570312 74.742188 39.609375 74.808594 39.597656 74.875 C 39.582031 74.921875 38.441406 79.375 37.523438 81.535156 C 37.507812 81.570312 37.476562 81.605469 37.433594 81.609375 C 37.429688 81.617188 37.421875 81.617188 37.40625 81.617188 Z M 37.40625 81.617188 " fill-opacity="1" fill-rule="nonzero"/><path fill="#1a2b47" d="M 37.554688 127.050781 C 37.488281 127.050781 37.433594 127 37.429688 126.929688 C 37.421875 126.84375 36.980469 118.167969 36.765625 112.585938 C 36.636719 109.304688 36.65625 104.898438 36.679688 101.007812 C 36.691406 98.25 36.707031 95.648438 36.65625 93.976562 C 36.550781 90.042969 34.507812 79.773438 34.488281 79.664062 C 34.476562 79.597656 34.523438 79.53125 34.589844 79.515625 C 34.664062 79.503906 34.726562 79.550781 34.738281 79.617188 C 34.757812 79.71875 36.808594 90.015625 36.914062 93.96875 C 36.960938 95.644531 36.949219 98.25 36.933594 101.007812 C 36.914062 104.890625 36.894531 109.296875 37.023438 112.574219 C 37.238281 118.15625 37.683594 126.828125 37.683594 126.917969 C 37.683594 126.984375 37.632812 127.046875 37.554688 127.050781 C 37.5625 127.050781 37.554688 127.050781 37.554688 127.050781 Z M 37.554688 127.050781 " fill-opacity="1" fill-rule="nonzero"/><path fill="#e9a082" d="M 16.78125 108.351562 L 30.476562 113.546875 L 29.78125 119.554688 C 29.78125 119.554688 17.375 117.332031 12.550781 116.140625 C 7.734375 114.953125 7.140625 114.160156 7.140625 114.160156 L 6.28125 109.210938 L 10.574219 104.519531 C 10.574219 104.519531 13.605469 104.785156 13.675781 105.046875 C 13.742188 105.3125 16.78125 108.351562 16.78125 108.351562 Z M 16.78125 108.351562 " fill-opacity="1" fill-rule="nonzero"/><path fill="#e9a082" d="M 32.484375 123.09375 C 32.328125 122.378906 31.914062 121.742188 29.863281 120.222656 C 28.625 119.308594 27.292969 117.195312 26.921875 116.621094 L 30.394531 113.464844 C 31.273438 113.972656 33.152344 114.351562 34.386719 114.796875 C 35.941406 115.351562 37.957031 115.65625 38.542969 116.835938 C 39.550781 118.851562 40.460938 121.53125 39.671875 121.871094 C 38.878906 122.207031 37.652344 119.882812 37.652344 119.882812 C 37.652344 119.882812 38.070312 121.296875 37.347656 121.796875 C 36.625 122.289062 35.617188 121.695312 35.617188 121.695312 C 35.421875 122.761719 34.058594 122.574219 34.058594 122.574219 C 33.847656 123.511719 32.605469 123.667969 32.484375 123.09375 Z M 32.484375 123.09375 " fill-opacity="1" fill-rule="nonzero"/><path fill="#1a2b47" d="M 34.058594 122.675781 C 34.007812 122.675781 33.960938 122.632812 33.960938 122.585938 C 33.960938 122.574219 33.839844 121.410156 32.921875 120.382812 C 32.886719 120.34375 32.886719 120.28125 32.929688 120.25 C 32.96875 120.214844 33.03125 120.214844 33.0625 120.253906 C 34.023438 121.335938 34.144531 122.519531 34.152344 122.566406 C 34.160156 122.621094 34.117188 122.667969 34.0625 122.675781 C 34.0625 122.675781 34.0625 122.675781 34.058594 122.675781 Z M 34.058594 122.675781 " fill-opacity="1" fill-rule="nonzero"/><path fill="#1a2b47" d="M 35.625 121.796875 C 35.570312 121.796875 35.53125 121.753906 35.53125 121.707031 C 35.53125 121.695312 35.421875 120.175781 34.644531 119.105469 C 34.609375 119.066406 34.625 119.003906 34.664062 118.972656 C 34.707031 118.9375 34.765625 118.953125 34.800781 118.992188 C 35.609375 120.105469 35.71875 121.632812 35.71875 121.695312 C 35.71875 121.75 35.679688 121.789062 35.625 121.796875 Z M 35.625 121.796875 " fill-opacity="1" fill-rule="nonzero"/><path fill="#1a2b47" d="M 37.652344 119.992188 C 37.609375 119.992188 37.570312 119.964844 37.554688 119.925781 C 37.550781 119.910156 37.183594 118.640625 36.207031 117.679688 C 36.164062 117.640625 36.164062 117.582031 36.207031 117.546875 C 36.238281 117.507812 36.308594 117.507812 36.339844 117.546875 C 37.359375 118.546875 37.726562 119.824219 37.746094 119.878906 C 37.757812 119.929688 37.730469 119.984375 37.679688 120 C 37.671875 119.984375 37.664062 119.992188 37.652344 119.992188 Z M 37.652344 119.992188 " fill-opacity="1" fill-rule="nonzero"/><path fill="#f6ad9a" d="M 18.890625 76.140625 C 18.890625 76.140625 11.890625 76.800781 10.308594 84.71875 C 8.730469 92.636719 3.183594 110.464844 7.140625 114.160156 C 7.140625 114.160156 7.335938 104.519531 16.78125 108.351562 L 18.695312 95.875 L 19.484375 79.707031 Z M 18.890625 76.140625 " fill-opacity="1" fill-rule="nonzero"/><path fill="#1a2b47" d="M 16.105469 107.832031 C 16.078125 107.832031 16.050781 107.824219 16.023438 107.804688 C 16.003906 107.789062 13.945312 106.140625 11.378906 105.757812 C 11.308594 105.742188 11.261719 105.683594 11.269531 105.609375 C 11.28125 105.539062 11.34375 105.488281 11.417969 105.5 C 14.058594 105.898438 16.167969 107.589844 16.1875 107.601562 C 16.242188 107.648438 16.25 107.730469 16.207031 107.785156 C 16.179688 107.816406 16.148438 107.832031 16.105469 107.832031 Z M 16.105469 107.832031 " fill-opacity="1" fill-rule="nonzero"/><path fill="#1a2b47" d="M 10.011719 106.960938 C 9.964844 106.960938 9.925781 106.941406 9.902344 106.898438 C 9.871094 106.839844 9.890625 106.757812 9.953125 106.722656 C 11.472656 105.84375 13.511719 106.128906 13.601562 106.136719 C 13.667969 106.140625 13.722656 106.210938 13.707031 106.277344 C 13.699219 106.34375 13.632812 106.398438 13.558594 106.386719 C 13.539062 106.386719 11.519531 106.101562 10.078125 106.941406 C 10.054688 106.960938 10.03125 106.960938 10.011719 106.960938 Z M 10.011719 106.960938 " fill-opacity="1" fill-rule="nonzero"/><path fill="#1a2b47" d="M 17.4375 103.90625 C 17.371094 103.90625 17.308594 103.851562 17.308594 103.777344 L 17.050781 90.644531 C 17.050781 90.578125 17.105469 90.515625 17.179688 90.515625 C 17.25 90.523438 17.308594 90.570312 17.308594 90.644531 L 17.566406 103.777344 C 17.566406 103.84375 17.511719 103.90625 17.4375 103.90625 Z M 17.4375 103.90625 " fill-opacity="1" fill-rule="nonzero"/><path fill="#f7f2e8" d="M 65.992188 22.023438 C 65.992188 22.910156 65.90625 23.785156 65.734375 24.65625 C 65.558594 25.523438 65.304688 26.367188 64.964844 27.1875 C 64.625 28.003906 64.210938 28.78125 63.71875 29.519531 C 63.226562 30.253906 62.667969 30.9375 62.039062 31.5625 C 61.414062 32.191406 60.734375 32.75 59.996094 33.242188 C 59.261719 33.734375 58.480469 34.148438 57.664062 34.488281 C 56.84375 34.828125 56 35.082031 55.132812 35.253906 C 54.265625 35.429688 53.386719 35.515625 52.5 35.515625 C 51.613281 35.515625 50.738281 35.429688 49.867188 35.253906 C 49 35.082031 48.15625 34.828125 47.335938 34.488281 C 46.519531 34.148438 45.742188 33.734375 45.003906 33.242188 C 44.269531 32.75 43.585938 32.191406 42.960938 31.5625 C 42.335938 30.9375 41.773438 30.253906 41.28125 29.519531 C 40.789062 28.78125 40.375 28.003906 40.035156 27.1875 C 39.695312 26.367188 39.441406 25.523438 39.269531 24.65625 C 39.09375 23.785156 39.007812 22.910156 39.007812 22.023438 C 39.007812 21.136719 39.09375 20.261719 39.269531 19.390625 C 39.441406 18.523438 39.695312 17.679688 40.035156 16.859375 C 40.375 16.042969 40.789062 15.265625 41.28125 14.527344 C 41.773438 13.792969 42.335938 13.109375 42.960938 12.484375 C 43.585938 11.855469 44.269531 11.296875 45.003906 10.804688 C 45.742188 10.3125 46.519531 9.898438 47.335938 9.558594 C 48.15625 9.21875 49 8.964844 49.867188 8.789062 C 50.738281 8.617188 51.613281 8.53125 52.5 8.53125 C 53.386719 8.53125 54.265625 8.617188 55.132812 8.789062 C 56 8.964844 56.84375 9.21875 57.664062 9.558594 C 58.480469 9.898438 59.261719 10.3125 59.996094 10.804688 C 60.734375 11.296875 61.414062 11.855469 62.039062 12.484375 C 62.667969 13.109375 63.226562 13.792969 63.71875 14.527344 C 64.210938 15.265625 64.625 16.042969 64.964844 16.859375 C 65.304688 17.679688 65.558594 18.523438 65.734375 19.390625 C 65.90625 20.261719 65.992188 21.136719 65.992188 22.023438 Z M 65.992188 22.023438 " fill-opacity="1" fill-rule="nonzero"/><path fill="#f7f2e8" d="M 52.5 36.015625 C 44.785156 36.015625 38.507812 29.738281 38.507812 22.023438 C 38.507812 14.308594 44.785156 8.03125 52.5 8.03125 C 60.214844 8.03125 66.492188 14.308594 66.492188 22.023438 C 66.492188 29.738281 60.214844 36.015625 52.5 36.015625 Z M 52.5 9.03125 C 45.332031 9.03125 39.507812 14.863281 39.507812 22.03125 C 39.507812 29.199219 45.339844 35.027344 52.5 35.027344 C 59.667969 35.027344 65.492188 29.199219 65.492188 22.03125 C 65.492188 14.863281 59.664062 9.03125 52.5 9.03125 Z M 52.5 9.03125 " fill-opacity="1" fill-rule="nonzero"/><path fill="#f6ad9a" d="M 45.476562 21.488281 L 49.035156 21.488281 L 49.035156 27.207031 L 45.476562 27.207031 Z M 45.476562 21.488281 " fill-opacity="1" fill-rule="nonzero"/><path fill="#e9a082" d="M 50.71875 19.238281 L 54.277344 19.238281 L 54.277344 27.207031 L 50.71875 27.207031 Z M 50.71875 19.238281 " fill-opacity="1" fill-rule="nonzero"/><path fill="#f6ad9a" d="M 55.964844 16.847656 L 59.527344 16.847656 L 59.527344 27.207031 L 55.964844 27.207031 Z M 55.964844 16.847656 " fill-opacity="1" fill-rule="nonzero"/></svg>