<svg xmlns="http://www.w3.org/2000/svg" xmlns:xlink="http://www.w3.org/1999/xlink" width="64" zoomAndPan="magnify" viewBox="0 0 48 44.999999" height="60" preserveAspectRatio="xMidYMid meet" version="1.0"><defs><g/><clipPath id="6b821fc03c"><path d="M 9 8 L 43 8 L 43 37.605469 L 9 37.605469 Z M 9 8 " clip-rule="nonzero"/></clipPath><clipPath id="4261011740"><path d="M 3 20 L 27 20 L 27 37.605469 L 3 37.605469 Z M 3 20 " clip-rule="nonzero"/></clipPath></defs><g fill="#ffffff" fill-opacity="1"><g transform="translate(19.918302, 31.843442)"><g><path d="M 1.65625 -2.046875 C 1.65625 -2.359375 1.710938 -2.65625 1.828125 -2.9375 C 1.953125 -3.21875 2.113281 -3.460938 2.3125 -3.671875 C 2.507812 -3.878906 2.75 -4.039062 3.03125 -4.15625 C 3.3125 -4.28125 3.609375 -4.34375 3.921875 -4.34375 C 4.234375 -4.34375 4.53125 -4.28125 4.8125 -4.15625 C 5.09375 -4.039062 5.335938 -3.878906 5.546875 -3.671875 C 5.753906 -3.460938 5.914062 -3.21875 6.03125 -2.9375 C 6.15625 -2.65625 6.21875 -2.359375 6.21875 -2.046875 C 6.21875 -1.722656 6.15625 -1.421875 6.03125 -1.140625 C 5.914062 -0.867188 5.753906 -0.632812 5.546875 -0.4375 C 5.335938 -0.238281 5.09375 -0.0820312 4.8125 0.03125 C 4.53125 0.15625 4.234375 0.21875 3.921875 0.21875 C 3.609375 0.21875 3.3125 0.15625 3.03125 0.03125 C 2.75 -0.0820312 2.507812 -0.238281 2.3125 -0.4375 C 2.113281 -0.632812 1.953125 -0.867188 1.828125 -1.140625 C 1.710938 -1.421875 1.65625 -1.722656 1.65625 -2.046875 Z M 1.65625 -2.046875 "/></g></g></g><g clip-path="url(#6b821fc03c)"><path fill="#442a00" d="M 9.964844 24.757812 C 9.964844 24.757812 14.609375 25.128906 21.898438 17.84375 C 29.183594 10.554688 35.203125 10.199219 37.894531 14.859375 C 40.582031 19.519531 36.335938 23.605469 36.335938 23.605469 C 36.335938 23.605469 36.625 21.484375 36.625 19.46875 C 36.625 17.453125 35.808594 16.097656 35.808594 16.097656 C 35.808594 16.097656 36.058594 19.144531 35.65625 20.636719 C 35.257812 22.128906 33.726562 23.417969 33.726562 23.417969 L 32.777344 23.433594 C 32.777344 23.433594 33.050781 21.8125 32.574219 20.027344 C 32.09375 18.246094 30.691406 17.164062 30.691406 17.164062 C 30.691406 17.164062 31.878906 19.332031 31.878906 20.6875 C 31.878906 22.042969 31.640625 23.707031 31.640625 23.707031 C 31.640625 23.707031 28.183594 23.402344 23.675781 25.164062 C 19.167969 26.925781 15.949219 29.910156 15.949219 29.910156 C 15.949219 29.910156 24.015625 26.28125 29.167969 25.773438 C 34.320312 25.265625 36.691406 26.757812 36.691406 26.757812 L 37.84375 30.6875 C 37.84375 30.6875 32.691406 30.484375 27.371094 31.875 C 22.050781 33.265625 16.289062 37.332031 16.289062 37.332031 C 16.289062 37.332031 25.746094 33.773438 31.097656 33.0625 C 36.453125 32.347656 40.792969 33.164062 40.792969 33.164062 L 38.320312 25.773438 C 38.320312 25.773438 45.097656 17.367188 40.386719 11.742188 C 35.675781 6.117188 27.101562 7.503906 20.898438 15.570312 C 14.695312 23.636719 9.964844 24.757812 9.964844 24.757812 Z M 9.964844 24.757812 " fill-opacity="1" fill-rule="evenodd"/></g><g clip-path="url(#4261011740)"><path fill="#c25700" d="M 13.304688 20.316406 C 13.304688 20.316406 4.730469 21.738281 5.410156 27.128906 C 6.085938 32.519531 13.578125 30.011719 13.578125 30.011719 L 14.695312 34.183594 C 14.695312 34.183594 17.847656 32.382812 20.695312 31.5 C 23.542969 30.621094 26.390625 31.027344 26.390625 31.027344 C 26.390625 31.027344 20.289062 32.042969 17.78125 33.976562 C 15.273438 35.90625 13.507812 37.367188 13.507812 37.367188 L 12.085938 32.550781 C 12.085938 32.550781 4.867188 34.011719 3.746094 28.144531 C 2.628906 22.28125 7.238281 19.808594 13.304688 20.316406 Z M 13.304688 20.316406 " fill-opacity="1" fill-rule="evenodd"/></g></svg>