<svg xmlns="http://www.w3.org/2000/svg" xmlns:xlink="http://www.w3.org/1999/xlink" width="244" zoomAndPan="magnify" viewBox="0 0 183 67.499998" height="90" preserveAspectRatio="xMidYMid meet" version="1.0"><defs><g/><clipPath id="459c008c0c"><path d="M 10 3 L 43 3 L 43 35 L 10 35 Z M 10 3 " clip-rule="nonzero"/></clipPath><clipPath id="445114cf27"><path d="M 0.671875 6.425781 L 42.613281 -0.0429688 L 47.378906 30.859375 L 5.4375 37.328125 Z M 0.671875 6.425781 " clip-rule="nonzero"/></clipPath><clipPath id="c98e4811b2"><path d="M 0.671875 6.425781 L 42.613281 -0.0429688 L 47.378906 30.859375 L 5.4375 37.328125 Z M 0.671875 6.425781 " clip-rule="nonzero"/></clipPath><clipPath id="b81207398c"><path d="M 4 18 L 28 18 L 28 36 L 4 36 Z M 4 18 " clip-rule="nonzero"/></clipPath><clipPath id="f13a97d125"><path d="M 0.671875 6.425781 L 42.613281 -0.0429688 L 47.378906 30.859375 L 5.4375 37.328125 Z M 0.671875 6.425781 " clip-rule="nonzero"/></clipPath><clipPath id="46ab4f550b"><path d="M 0.671875 6.425781 L 42.613281 -0.0429688 L 47.378906 30.859375 L 5.4375 37.328125 Z M 0.671875 6.425781 " clip-rule="nonzero"/></clipPath></defs><g clip-path="url(#459c008c0c)"><g clip-path="url(#445114cf27)"><g clip-path="url(#c98e4811b2)"><path fill="#f7f2e8" d="M 10.691406 23.609375 C 10.691406 23.609375 15.304688 23.273438 21.351562 15.023438 C 27.398438 6.769531 33.25 5.511719 36.59375 9.675781 C 39.9375 13.839844 36.386719 18.492188 36.386719 18.492188 C 36.386719 18.492188 36.347656 16.371094 36.042969 14.390625 C 35.738281 12.414062 34.734375 11.207031 34.734375 11.207031 C 34.734375 11.207031 35.441406 14.160156 35.273438 15.683594 C 35.105469 17.207031 33.796875 18.703125 33.796875 18.703125 L 32.871094 18.863281 C 32.871094 18.863281 32.894531 17.230469 32.15625 15.550781 C 31.417969 13.875 29.875 13.027344 29.875 13.027344 C 29.875 13.027344 31.367188 14.976562 31.574219 16.304688 C 31.777344 17.636719 31.796875 19.300781 31.796875 19.300781 C 31.796875 19.300781 28.359375 19.523438 24.203125 21.9375 C 20.046875 24.347656 17.339844 27.761719 17.339844 27.761719 C 17.339844 27.761719 24.707031 22.984375 29.683594 21.703125 C 34.660156 20.425781 37.214844 21.53125 37.214844 21.53125 L 38.9375 25.210938 C 38.9375 25.210938 33.855469 25.792969 28.84375 27.960938 C 23.835938 30.128906 18.796875 34.992188 18.796875 34.992188 C 18.796875 34.992188 27.535156 30.070312 32.679688 28.5625 C 37.828125 27.054688 42.207031 27.195312 42.207031 27.195312 L 38.660156 20.320312 C 38.660156 20.320312 44.039062 11.046875 38.566406 6.242188 C 33.09375 1.433594 24.890625 4.09375 20.027344 12.945312 C 15.164062 21.800781 10.691406 23.609375 10.691406 23.609375 Z M 10.691406 23.609375 " fill-opacity="1" fill-rule="evenodd"/></g></g></g><g clip-path="url(#b81207398c)"><g clip-path="url(#f13a97d125)"><g clip-path="url(#46ab4f550b)"><path fill="#e9a082" d="M 13.296875 18.75 C 13.296875 18.75 5.101562 21.445312 6.582031 26.628906 C 8.0625 31.8125 15.03125 28.21875 15.03125 28.21875 L 16.757812 32.144531 C 16.757812 32.144531 19.578125 29.902344 22.238281 28.605469 C 24.898438 27.308594 27.753906 27.277344 27.753906 27.277344 C 27.753906 27.277344 21.921875 29.199219 19.753906 31.472656 C 17.585938 33.75 16.074219 35.445312 16.074219 35.445312 L 13.953125 30.9375 C 13.953125 30.9375 7.089844 33.460938 5.105469 27.878906 C 3.121094 22.292969 7.269531 19.167969 13.296875 18.75 Z M 13.296875 18.75 " fill-opacity="1" fill-rule="evenodd"/></g></g></g><g fill="#f7f2e8" fill-opacity="1"><g transform="translate(27.537925, 52.186525)"><g><path d="M 6.640625 -12.875 C 6.640625 -13.675781 6.628906 -14.414062 6.609375 -15.09375 C 6.597656 -15.78125 6.585938 -16.375 6.578125 -16.875 C 6.566406 -17.382812 6.550781 -17.785156 6.53125 -18.078125 C 6.519531 -18.367188 6.515625 -18.539062 6.515625 -18.59375 C 6.335938 -18.71875 6.132812 -18.785156 5.90625 -18.796875 C 5.675781 -18.804688 5.453125 -18.8125 5.234375 -18.8125 C 4.921875 -18.8125 4.546875 -18.738281 4.109375 -18.59375 C 3.671875 -18.445312 3.242188 -18.234375 2.828125 -17.953125 C 2.421875 -17.679688 2.070312 -17.347656 1.78125 -16.953125 C 1.5 -16.554688 1.359375 -16.113281 1.359375 -15.625 C 1.359375 -15.34375 1.394531 -15.113281 1.46875 -14.9375 C 1.550781 -14.769531 1.644531 -14.644531 1.75 -14.5625 C 1.851562 -14.476562 1.953125 -14.421875 2.046875 -14.390625 C 2.148438 -14.367188 2.226562 -14.359375 2.28125 -14.359375 C 2.5 -14.359375 2.679688 -14.394531 2.828125 -14.46875 C 2.972656 -14.550781 3.101562 -14.632812 3.21875 -14.71875 C 3.332031 -14.800781 3.441406 -14.878906 3.546875 -14.953125 C 3.648438 -15.035156 3.765625 -15.078125 3.890625 -15.078125 C 4.003906 -15.078125 4.117188 -15.050781 4.234375 -15 C 4.359375 -14.945312 4.46875 -14.867188 4.5625 -14.765625 C 4.664062 -14.660156 4.753906 -14.519531 4.828125 -14.34375 C 4.898438 -14.164062 4.9375 -13.957031 4.9375 -13.71875 C 4.9375 -13.351562 4.867188 -13.039062 4.734375 -12.78125 C 4.597656 -12.53125 4.421875 -12.316406 4.203125 -12.140625 C 3.984375 -11.960938 3.734375 -11.832031 3.453125 -11.75 C 3.171875 -11.664062 2.890625 -11.625 2.609375 -11.625 C 2.179688 -11.625 1.796875 -11.695312 1.453125 -11.84375 C 1.109375 -11.988281 0.816406 -12.191406 0.578125 -12.453125 C 0.335938 -12.710938 0.15625 -13.015625 0.03125 -13.359375 C -0.09375 -13.710938 -0.15625 -14.082031 -0.15625 -14.46875 C -0.15625 -15.394531 0.0351562 -16.203125 0.421875 -16.890625 C 0.804688 -17.585938 1.320312 -18.164062 1.96875 -18.625 C 2.625 -19.09375 3.367188 -19.441406 4.203125 -19.671875 C 5.046875 -19.898438 5.921875 -20.015625 6.828125 -20.015625 C 7.640625 -20.015625 8.304688 -19.960938 8.828125 -19.859375 C 9.359375 -19.753906 9.789062 -19.609375 10.125 -19.421875 C 10.457031 -19.242188 10.71875 -19.03125 10.90625 -18.78125 C 11.09375 -18.539062 11.25 -18.285156 11.375 -18.015625 C 11.925781 -16.910156 12.457031 -15.820312 12.96875 -14.75 C 13.476562 -13.6875 13.972656 -12.644531 14.453125 -11.625 C 14.929688 -10.601562 15.394531 -9.617188 15.84375 -8.671875 C 16.289062 -7.734375 16.734375 -6.847656 17.171875 -6.015625 L 17.171875 -12.0625 C 17.171875 -12.800781 17.1875 -13.523438 17.21875 -14.234375 C 17.257812 -14.941406 17.34375 -15.609375 17.46875 -16.234375 C 17.601562 -16.867188 17.800781 -17.445312 18.0625 -17.96875 C 18.320312 -18.5 18.664062 -18.957031 19.09375 -19.34375 C 19.53125 -19.726562 20.066406 -20.023438 20.703125 -20.234375 C 21.347656 -20.453125 22.125 -20.5625 23.03125 -20.5625 C 23.488281 -20.5625 23.90625 -20.523438 24.28125 -20.453125 C 24.664062 -20.390625 25 -20.296875 25.28125 -20.171875 C 25.5625 -20.046875 25.78125 -19.890625 25.9375 -19.703125 C 26.101562 -19.523438 26.1875 -19.328125 26.1875 -19.109375 C 26.1875 -18.960938 26.164062 -18.8125 26.125 -18.65625 C 26.082031 -18.5 26.019531 -18.359375 25.9375 -18.234375 C 25.863281 -18.109375 25.765625 -18.003906 25.640625 -17.921875 C 25.523438 -17.835938 25.382812 -17.796875 25.21875 -17.796875 C 25.09375 -17.796875 24.972656 -17.890625 24.859375 -18.078125 C 24.742188 -18.265625 24.601562 -18.472656 24.4375 -18.703125 C 24.269531 -18.929688 24.050781 -19.140625 23.78125 -19.328125 C 23.507812 -19.515625 23.144531 -19.609375 22.6875 -19.609375 C 21.957031 -19.609375 21.351562 -19.476562 20.875 -19.21875 C 20.40625 -18.96875 20.019531 -18.609375 19.71875 -18.140625 C 19.425781 -17.679688 19.207031 -17.117188 19.0625 -16.453125 C 18.925781 -15.785156 18.84375 -15.046875 18.8125 -14.234375 C 18.789062 -13.671875 18.773438 -13.125 18.765625 -12.59375 C 18.753906 -12.0625 18.742188 -11.519531 18.734375 -10.96875 C 18.734375 -10.425781 18.734375 -9.863281 18.734375 -9.28125 C 18.734375 -8.695312 18.734375 -8.070312 18.734375 -7.40625 C 18.734375 -6.457031 18.738281 -5.609375 18.75 -4.859375 C 18.757812 -4.109375 18.769531 -3.492188 18.78125 -3.015625 C 19.1875 -2.328125 19.582031 -1.707031 19.96875 -1.15625 C 20.363281 -0.601562 20.75 -0.140625 21.125 0.234375 C 21.507812 0.609375 21.894531 0.898438 22.28125 1.109375 C 22.664062 1.316406 23.050781 1.421875 23.4375 1.421875 C 23.5625 1.421875 23.679688 1.398438 23.796875 1.359375 C 23.921875 1.328125 24.023438 1.289062 24.109375 1.25 C 24.210938 1.195312 24.3125 1.140625 24.40625 1.078125 L 24.84375 1.59375 C 24.71875 1.6875 24.539062 1.796875 24.3125 1.921875 C 24.082031 2.046875 23.800781 2.164062 23.46875 2.28125 C 23.144531 2.394531 22.773438 2.488281 22.359375 2.5625 C 21.941406 2.644531 21.484375 2.6875 20.984375 2.6875 C 20.253906 2.6875 19.554688 2.507812 18.890625 2.15625 C 18.234375 1.8125 17.59375 1.328125 16.96875 0.703125 C 16.351562 0.0859375 15.765625 -0.628906 15.203125 -1.453125 C 14.640625 -2.273438 14.097656 -3.160156 13.578125 -4.109375 C 13.054688 -5.054688 12.554688 -6.039062 12.078125 -7.0625 C 11.597656 -8.09375 11.128906 -9.109375 10.671875 -10.109375 C 10.222656 -11.117188 9.789062 -12.09375 9.375 -13.03125 C 8.957031 -13.976562 8.554688 -14.84375 8.171875 -15.625 C 8.171875 -15.101562 8.171875 -14.566406 8.171875 -14.015625 C 8.179688 -13.460938 8.1875 -12.90625 8.1875 -12.34375 L 8.1875 -8.1875 C 8.1875 -7.445312 8.171875 -6.722656 8.140625 -6.015625 C 8.109375 -5.316406 8.023438 -4.648438 7.890625 -4.015625 C 7.753906 -3.390625 7.554688 -2.8125 7.296875 -2.28125 C 7.046875 -1.75 6.703125 -1.289062 6.265625 -0.90625 C 5.828125 -0.519531 5.285156 -0.21875 4.640625 0 C 4.003906 0.207031 3.234375 0.3125 2.328125 0.3125 C 1.867188 0.3125 1.445312 0.273438 1.0625 0.203125 C 0.6875 0.140625 0.359375 0.046875 0.078125 -0.078125 C -0.203125 -0.203125 -0.421875 -0.351562 -0.578125 -0.53125 C -0.734375 -0.707031 -0.8125 -0.914062 -0.8125 -1.15625 C -0.8125 -1.289062 -0.789062 -1.4375 -0.75 -1.59375 C -0.71875 -1.75 -0.660156 -1.890625 -0.578125 -2.015625 C -0.492188 -2.140625 -0.394531 -2.242188 -0.28125 -2.328125 C -0.164062 -2.421875 -0.0234375 -2.46875 0.140625 -2.46875 C 0.222656 -2.46875 0.300781 -2.421875 0.375 -2.328125 C 0.457031 -2.242188 0.539062 -2.132812 0.625 -2 C 0.707031 -1.863281 0.800781 -1.71875 0.90625 -1.5625 C 1.019531 -1.40625 1.15625 -1.257812 1.3125 -1.125 C 1.46875 -0.988281 1.65625 -0.875 1.875 -0.78125 C 2.101562 -0.695312 2.375 -0.65625 2.6875 -0.65625 C 3.414062 -0.65625 4.015625 -0.78125 4.484375 -1.03125 C 4.960938 -1.289062 5.347656 -1.65625 5.640625 -2.125 C 5.941406 -2.59375 6.160156 -3.15625 6.296875 -3.8125 C 6.429688 -4.476562 6.515625 -5.21875 6.546875 -6.03125 C 6.578125 -6.59375 6.59375 -7.140625 6.59375 -7.671875 C 6.601562 -8.203125 6.613281 -8.738281 6.625 -9.28125 C 6.632812 -9.820312 6.640625 -10.382812 6.640625 -10.96875 C 6.640625 -11.5625 6.640625 -12.195312 6.640625 -12.875 Z M 6.640625 -12.875 "/></g></g></g><g fill="#f7f2e8" fill-opacity="1"><g transform="translate(49.196484, 52.186525)"><g><path d="M 13.375 -2.328125 C 13.375 -2.242188 13.378906 -2.15625 13.390625 -2.0625 C 13.398438 -1.96875 13.421875 -1.878906 13.453125 -1.796875 C 13.492188 -1.710938 13.546875 -1.644531 13.609375 -1.59375 C 13.679688 -1.539062 13.785156 -1.515625 13.921875 -1.515625 C 14.085938 -1.515625 14.238281 -1.570312 14.375 -1.6875 C 14.507812 -1.8125 14.632812 -1.9375 14.75 -2.0625 L 15.078125 -1.78125 C 14.941406 -1.59375 14.769531 -1.382812 14.5625 -1.15625 C 14.363281 -0.925781 14.125 -0.707031 13.84375 -0.5 C 13.5625 -0.300781 13.234375 -0.132812 12.859375 0 C 12.492188 0.144531 12.082031 0.21875 11.625 0.21875 C 11.226562 0.21875 10.882812 0.164062 10.59375 0.0625 C 10.300781 -0.0390625 10.054688 -0.175781 9.859375 -0.34375 C 9.660156 -0.519531 9.507812 -0.726562 9.40625 -0.96875 C 9.3125 -1.207031 9.265625 -1.460938 9.265625 -1.734375 L 9.265625 -2.328125 C 8.816406 -1.847656 8.347656 -1.425781 7.859375 -1.0625 C 7.640625 -0.894531 7.410156 -0.734375 7.171875 -0.578125 C 6.929688 -0.429688 6.679688 -0.296875 6.421875 -0.171875 C 6.160156 -0.0546875 5.890625 0.0351562 5.609375 0.109375 C 5.335938 0.179688 5.066406 0.21875 4.796875 0.21875 C 4.253906 0.21875 3.796875 0.125 3.421875 -0.0625 C 3.046875 -0.257812 2.738281 -0.515625 2.5 -0.828125 C 2.269531 -1.140625 2.097656 -1.492188 1.984375 -1.890625 C 1.878906 -2.285156 1.828125 -2.675781 1.828125 -3.0625 L 1.828125 -11.359375 C 1.828125 -11.429688 1.820312 -11.515625 1.8125 -11.609375 C 1.8125 -11.703125 1.789062 -11.789062 1.75 -11.875 C 1.71875 -11.96875 1.664062 -12.039062 1.59375 -12.09375 C 1.519531 -12.144531 1.414062 -12.171875 1.28125 -12.171875 C 1.125 -12.171875 0.972656 -12.109375 0.828125 -11.984375 C 0.691406 -11.867188 0.570312 -11.75 0.46875 -11.625 L 0.140625 -11.90625 C 0.265625 -12.09375 0.425781 -12.300781 0.625 -12.53125 C 0.832031 -12.757812 1.078125 -12.972656 1.359375 -13.171875 C 1.648438 -13.378906 1.976562 -13.550781 2.34375 -13.6875 C 2.71875 -13.820312 3.132812 -13.890625 3.59375 -13.890625 C 3.976562 -13.890625 4.316406 -13.835938 4.609375 -13.734375 C 4.910156 -13.640625 5.160156 -13.503906 5.359375 -13.328125 C 5.554688 -13.148438 5.703125 -12.941406 5.796875 -12.703125 C 5.890625 -12.472656 5.9375 -12.222656 5.9375 -11.953125 L 5.9375 -3.015625 C 5.9375 -2.890625 5.957031 -2.757812 6 -2.625 C 6.039062 -2.5 6.097656 -2.378906 6.171875 -2.265625 C 6.253906 -2.160156 6.351562 -2.078125 6.46875 -2.015625 C 6.582031 -1.953125 6.71875 -1.921875 6.875 -1.921875 C 7.132812 -1.921875 7.394531 -1.984375 7.65625 -2.109375 C 7.914062 -2.242188 8.148438 -2.398438 8.359375 -2.578125 C 8.578125 -2.765625 8.765625 -2.945312 8.921875 -3.125 C 9.078125 -3.3125 9.191406 -3.445312 9.265625 -3.53125 L 9.265625 -11.359375 C 9.265625 -11.429688 9.257812 -11.515625 9.25 -11.609375 C 9.238281 -11.703125 9.210938 -11.789062 9.171875 -11.875 C 9.140625 -11.96875 9.085938 -12.039062 9.015625 -12.09375 C 8.953125 -12.144531 8.851562 -12.171875 8.71875 -12.171875 C 8.550781 -12.171875 8.398438 -12.109375 8.265625 -11.984375 C 8.128906 -11.867188 8.007812 -11.75 7.90625 -11.625 L 7.5625 -11.90625 C 7.695312 -12.09375 7.863281 -12.300781 8.0625 -12.53125 C 8.269531 -12.757812 8.515625 -12.972656 8.796875 -13.171875 C 9.078125 -13.378906 9.40625 -13.550781 9.78125 -13.6875 C 10.15625 -13.820312 10.566406 -13.890625 11.015625 -13.890625 C 11.410156 -13.890625 11.753906 -13.835938 12.046875 -13.734375 C 12.347656 -13.640625 12.59375 -13.503906 12.78125 -13.328125 C 12.976562 -13.148438 13.125 -12.941406 13.21875 -12.703125 C 13.320312 -12.472656 13.375 -12.222656 13.375 -11.953125 Z M 13.375 -2.328125 "/></g></g></g><g fill="#f7f2e8" fill-opacity="1"><g transform="translate(63.732791, 52.186525)"><g><path d="M 6.015625 -12.75 L 6.015625 -2.859375 C 6.015625 -2.378906 6.101562 -2.046875 6.28125 -1.859375 C 6.457031 -1.679688 6.703125 -1.59375 7.015625 -1.59375 C 7.253906 -1.59375 7.46875 -1.660156 7.65625 -1.796875 C 7.84375 -1.929688 8.003906 -2.082031 8.140625 -2.25 C 8.296875 -2.4375 8.4375 -2.65625 8.5625 -2.90625 L 8.96875 -2.71875 C 8.832031 -2.4375 8.671875 -2.125 8.484375 -1.78125 C 8.304688 -1.4375 8.066406 -1.117188 7.765625 -0.828125 C 7.460938 -0.546875 7.082031 -0.304688 6.625 -0.109375 C 6.164062 0.0859375 5.585938 0.1875 4.890625 0.1875 C 4.492188 0.1875 4.113281 0.128906 3.75 0.015625 C 3.394531 -0.0976562 3.078125 -0.28125 2.796875 -0.53125 C 2.515625 -0.78125 2.285156 -1.09375 2.109375 -1.46875 C 1.941406 -1.84375 1.859375 -2.296875 1.859375 -2.828125 L 1.859375 -12.75 L 0.359375 -12.75 L 0.359375 -13.71875 C 0.609375 -13.71875 0.957031 -13.78125 1.40625 -13.90625 C 1.851562 -14.03125 2.3125 -14.242188 2.78125 -14.546875 C 3.25 -14.859375 3.679688 -15.265625 4.078125 -15.765625 C 4.484375 -16.273438 4.769531 -16.90625 4.9375 -17.65625 L 6.015625 -17.65625 L 6.015625 -13.71875 L 8.1875 -13.71875 C 8.90625 -13.71875 9.265625 -13.835938 9.265625 -14.078125 C 9.265625 -14.160156 9.21875 -14.21875 9.125 -14.25 C 9.039062 -14.28125 8.941406 -14.320312 8.828125 -14.375 C 8.710938 -14.425781 8.609375 -14.492188 8.515625 -14.578125 C 8.429688 -14.671875 8.390625 -14.816406 8.390625 -15.015625 C 8.390625 -15.265625 8.46875 -15.460938 8.625 -15.609375 C 8.78125 -15.753906 8.984375 -15.828125 9.234375 -15.828125 C 9.398438 -15.828125 9.539062 -15.789062 9.65625 -15.71875 C 9.78125 -15.65625 9.878906 -15.566406 9.953125 -15.453125 C 10.035156 -15.347656 10.097656 -15.222656 10.140625 -15.078125 C 10.179688 -14.929688 10.203125 -14.785156 10.203125 -14.640625 C 10.203125 -14.066406 10.035156 -13.609375 9.703125 -13.265625 C 9.367188 -12.921875 8.832031 -12.75 8.09375 -12.75 Z M 6.015625 -12.75 "/></g></g></g><g fill="#f7f2e8" fill-opacity="1"><g transform="translate(72.284795, 52.186525)"><g><path d="M 5.9375 -11.078125 C 6.28125 -11.585938 6.644531 -12.054688 7.03125 -12.484375 C 7.1875 -12.660156 7.359375 -12.832031 7.546875 -13 C 7.734375 -13.164062 7.925781 -13.316406 8.125 -13.453125 C 8.332031 -13.585938 8.539062 -13.691406 8.75 -13.765625 C 8.96875 -13.847656 9.1875 -13.890625 9.40625 -13.890625 C 9.851562 -13.890625 10.207031 -13.753906 10.46875 -13.484375 C 10.726562 -13.210938 10.859375 -12.832031 10.859375 -12.34375 C 10.859375 -12.039062 10.832031 -11.75 10.78125 -11.46875 C 10.738281 -11.1875 10.644531 -10.84375 10.5 -10.4375 L 10.125 -10.4375 C 10.070312 -10.71875 9.945312 -10.945312 9.75 -11.125 C 9.550781 -11.3125 9.265625 -11.40625 8.890625 -11.40625 C 8.609375 -11.40625 8.332031 -11.351562 8.0625 -11.25 C 7.800781 -11.144531 7.539062 -11.015625 7.28125 -10.859375 C 7.03125 -10.710938 6.789062 -10.550781 6.5625 -10.375 C 6.332031 -10.195312 6.125 -10.03125 5.9375 -9.875 L 5.9375 -1.171875 C 5.9375 -1.054688 5.921875 -0.914062 5.890625 -0.75 C 5.859375 -0.59375 5.769531 -0.441406 5.625 -0.296875 C 5.488281 -0.160156 5.285156 -0.0390625 5.015625 0.0625 C 4.742188 0.164062 4.367188 0.21875 3.890625 0.21875 C 3.421875 0.21875 3.050781 0.160156 2.78125 0.046875 C 2.507812 -0.0664062 2.300781 -0.195312 2.15625 -0.34375 C 2.007812 -0.5 1.914062 -0.65625 1.875 -0.8125 C 1.84375 -0.976562 1.828125 -1.109375 1.828125 -1.203125 L 1.828125 -11.546875 C 1.828125 -11.804688 1.765625 -12.03125 1.640625 -12.21875 C 1.523438 -12.40625 1.328125 -12.5 1.046875 -12.5 C 0.890625 -12.5 0.757812 -12.472656 0.65625 -12.421875 C 0.550781 -12.367188 0.4375 -12.296875 0.3125 -12.203125 L 0.03125 -12.53125 C 0.226562 -12.695312 0.453125 -12.863281 0.703125 -13.03125 C 0.960938 -13.195312 1.238281 -13.34375 1.53125 -13.46875 C 1.832031 -13.59375 2.148438 -13.691406 2.484375 -13.765625 C 2.828125 -13.847656 3.1875 -13.890625 3.5625 -13.890625 C 3.945312 -13.890625 4.273438 -13.835938 4.546875 -13.734375 C 4.816406 -13.640625 5.035156 -13.507812 5.203125 -13.34375 C 5.378906 -13.175781 5.515625 -12.988281 5.609375 -12.78125 C 5.710938 -12.582031 5.789062 -12.375 5.84375 -12.15625 C 5.894531 -11.945312 5.921875 -11.75 5.921875 -11.5625 C 5.929688 -11.375 5.9375 -11.210938 5.9375 -11.078125 Z M 5.9375 -11.078125 "/></g></g></g><g fill="#f7f2e8" fill-opacity="1"><g transform="translate(82.483488, 52.186525)"><g><path d="M 5.9375 -1.203125 C 5.9375 -1.085938 5.914062 -0.945312 5.875 -0.78125 C 5.84375 -0.613281 5.75 -0.457031 5.59375 -0.3125 C 5.445312 -0.164062 5.234375 -0.0390625 4.953125 0.0625 C 4.679688 0.164062 4.3125 0.21875 3.84375 0.21875 C 3.375 0.21875 3.003906 0.160156 2.734375 0.046875 C 2.460938 -0.0664062 2.257812 -0.195312 2.125 -0.34375 C 1.988281 -0.5 1.90625 -0.65625 1.875 -0.8125 C 1.84375 -0.976562 1.828125 -1.109375 1.828125 -1.203125 L 1.828125 -11.546875 C 1.828125 -11.804688 1.765625 -12.03125 1.640625 -12.21875 C 1.523438 -12.40625 1.328125 -12.5 1.046875 -12.5 C 0.890625 -12.5 0.757812 -12.472656 0.65625 -12.421875 C 0.550781 -12.367188 0.4375 -12.296875 0.3125 -12.203125 L 0.03125 -12.53125 C 0.226562 -12.695312 0.453125 -12.863281 0.703125 -13.03125 C 0.960938 -13.195312 1.238281 -13.34375 1.53125 -13.46875 C 1.832031 -13.59375 2.148438 -13.691406 2.484375 -13.765625 C 2.828125 -13.847656 3.1875 -13.890625 3.5625 -13.890625 C 4.144531 -13.890625 4.59375 -13.8125 4.90625 -13.65625 C 5.226562 -13.507812 5.460938 -13.320312 5.609375 -13.09375 C 5.765625 -12.863281 5.859375 -12.617188 5.890625 -12.359375 C 5.921875 -12.097656 5.9375 -11.867188 5.9375 -11.671875 Z M 1.421875 -16.953125 C 1.421875 -17.203125 1.472656 -17.441406 1.578125 -17.671875 C 1.691406 -17.898438 1.847656 -18.097656 2.046875 -18.265625 C 2.253906 -18.429688 2.488281 -18.5625 2.75 -18.65625 C 3.007812 -18.757812 3.296875 -18.8125 3.609375 -18.8125 C 3.921875 -18.8125 4.207031 -18.757812 4.46875 -18.65625 C 4.726562 -18.5625 4.957031 -18.429688 5.15625 -18.265625 C 5.351562 -18.097656 5.503906 -17.898438 5.609375 -17.671875 C 5.722656 -17.441406 5.78125 -17.203125 5.78125 -16.953125 C 5.78125 -16.691406 5.722656 -16.445312 5.609375 -16.21875 C 5.503906 -16 5.351562 -15.804688 5.15625 -15.640625 C 4.957031 -15.472656 4.726562 -15.34375 4.46875 -15.25 C 4.207031 -15.15625 3.921875 -15.109375 3.609375 -15.109375 C 3.296875 -15.109375 3.007812 -15.15625 2.75 -15.25 C 2.488281 -15.34375 2.253906 -15.472656 2.046875 -15.640625 C 1.847656 -15.804688 1.691406 -16 1.578125 -16.21875 C 1.472656 -16.445312 1.421875 -16.691406 1.421875 -16.953125 Z M 1.421875 -16.953125 "/></g></g></g><g fill="#f7f2e8" fill-opacity="1"><g transform="translate(89.442362, 52.186525)"><g><path d="M 1.09375 -8.421875 C 1.09375 -9.328125 1.25 -10.125 1.5625 -10.8125 C 1.882812 -11.5 2.3125 -12.070312 2.84375 -12.53125 C 3.382812 -12.988281 4.003906 -13.328125 4.703125 -13.546875 C 5.410156 -13.773438 6.15625 -13.890625 6.9375 -13.890625 C 7.707031 -13.890625 8.441406 -13.785156 9.140625 -13.578125 C 9.835938 -13.378906 10.457031 -13.066406 11 -12.640625 C 11.164062 -12.898438 11.300781 -13.171875 11.40625 -13.453125 C 11.507812 -13.742188 11.5625 -14.03125 11.5625 -14.3125 C 11.5625 -14.6875 11.460938 -14.984375 11.265625 -15.203125 C 11.066406 -15.429688 10.8125 -15.546875 10.5 -15.546875 L 10.5 -15.9375 C 10.695312 -16 10.867188 -16.050781 11.015625 -16.09375 C 11.171875 -16.144531 11.3125 -16.179688 11.4375 -16.203125 C 11.5625 -16.234375 11.6875 -16.253906 11.8125 -16.265625 C 11.9375 -16.285156 12.070312 -16.296875 12.21875 -16.296875 C 12.644531 -16.296875 12.96875 -16.164062 13.1875 -15.90625 C 13.414062 -15.644531 13.53125 -15.285156 13.53125 -14.828125 C 13.53125 -14.566406 13.46875 -14.300781 13.34375 -14.03125 C 13.21875 -13.769531 13.0625 -13.519531 12.875 -13.28125 C 12.6875 -13.039062 12.476562 -12.8125 12.25 -12.59375 C 12.019531 -12.382812 11.800781 -12.195312 11.59375 -12.03125 C 11.96875 -11.601562 12.257812 -11.101562 12.46875 -10.53125 C 12.675781 -9.96875 12.78125 -9.316406 12.78125 -8.578125 C 12.78125 -7.660156 12.617188 -6.847656 12.296875 -6.140625 C 11.984375 -5.441406 11.554688 -4.847656 11.015625 -4.359375 C 10.484375 -3.878906 9.863281 -3.515625 9.15625 -3.265625 C 8.445312 -3.023438 7.707031 -2.90625 6.9375 -2.90625 C 6.476562 -2.90625 6.03125 -2.941406 5.59375 -3.015625 C 5.15625 -3.097656 4.742188 -3.21875 4.359375 -3.375 C 4.222656 -3.269531 4.101562 -3.132812 4 -2.96875 C 3.894531 -2.8125 3.84375 -2.632812 3.84375 -2.4375 C 3.84375 -2.101562 3.984375 -1.851562 4.265625 -1.6875 C 4.554688 -1.53125 4.9375 -1.414062 5.40625 -1.34375 C 5.882812 -1.28125 6.421875 -1.238281 7.015625 -1.21875 C 7.609375 -1.195312 8.21875 -1.164062 8.84375 -1.125 C 9.476562 -1.09375 10.09375 -1.019531 10.6875 -0.90625 C 11.289062 -0.789062 11.828125 -0.601562 12.296875 -0.34375 C 12.773438 -0.09375 13.15625 0.25 13.4375 0.6875 C 13.726562 1.125 13.875 1.691406 13.875 2.390625 C 13.875 2.890625 13.765625 3.34375 13.546875 3.75 C 13.335938 4.15625 13.050781 4.507812 12.6875 4.8125 C 12.320312 5.125 11.898438 5.390625 11.421875 5.609375 C 10.953125 5.828125 10.453125 6.003906 9.921875 6.140625 C 9.390625 6.285156 8.847656 6.390625 8.296875 6.453125 C 7.742188 6.515625 7.21875 6.546875 6.71875 6.546875 C 5.8125 6.546875 4.992188 6.5 4.265625 6.40625 C 3.535156 6.3125 2.914062 6.164062 2.40625 5.96875 C 1.894531 5.769531 1.5 5.515625 1.21875 5.203125 C 0.945312 4.890625 0.8125 4.515625 0.8125 4.078125 C 0.8125 3.765625 0.882812 3.476562 1.03125 3.21875 C 1.175781 2.957031 1.363281 2.71875 1.59375 2.5 C 1.832031 2.28125 2.097656 2.082031 2.390625 1.90625 C 2.691406 1.726562 2.992188 1.566406 3.296875 1.421875 C 2.847656 1.234375 2.472656 0.945312 2.171875 0.5625 C 1.878906 0.1875 1.734375 -0.3125 1.734375 -0.9375 C 1.734375 -1.269531 1.789062 -1.578125 1.90625 -1.859375 C 2.019531 -2.140625 2.164062 -2.394531 2.34375 -2.625 C 2.53125 -2.863281 2.734375 -3.078125 2.953125 -3.265625 C 3.171875 -3.460938 3.382812 -3.628906 3.59375 -3.765625 C 3.226562 -3.972656 2.890625 -4.226562 2.578125 -4.53125 C 2.265625 -4.84375 2 -5.191406 1.78125 -5.578125 C 1.5625 -5.972656 1.390625 -6.40625 1.265625 -6.875 C 1.148438 -7.351562 1.09375 -7.867188 1.09375 -8.421875 Z M 8.75 -8.53125 C 8.75 -9.050781 8.71875 -9.554688 8.65625 -10.046875 C 8.601562 -10.535156 8.507812 -10.972656 8.375 -11.359375 C 8.25 -11.742188 8.066406 -12.050781 7.828125 -12.28125 C 7.597656 -12.519531 7.300781 -12.640625 6.9375 -12.640625 C 6.570312 -12.640625 6.269531 -12.515625 6.03125 -12.265625 C 5.800781 -12.023438 5.617188 -11.707031 5.484375 -11.3125 C 5.347656 -10.914062 5.253906 -10.460938 5.203125 -9.953125 C 5.148438 -9.453125 5.125 -8.941406 5.125 -8.421875 C 5.125 -7.890625 5.148438 -7.367188 5.203125 -6.859375 C 5.253906 -6.359375 5.347656 -5.90625 5.484375 -5.5 C 5.617188 -5.101562 5.800781 -4.78125 6.03125 -4.53125 C 6.269531 -4.289062 6.570312 -4.171875 6.9375 -4.171875 C 7.300781 -4.171875 7.597656 -4.296875 7.828125 -4.546875 C 8.066406 -4.804688 8.25 -5.144531 8.375 -5.5625 C 8.507812 -5.976562 8.601562 -6.441406 8.65625 -6.953125 C 8.71875 -7.472656 8.75 -8 8.75 -8.53125 Z M 10.78125 3.453125 C 10.78125 3.171875 10.664062 2.9375 10.4375 2.75 C 10.21875 2.570312 9.925781 2.425781 9.5625 2.3125 C 9.207031 2.195312 8.796875 2.109375 8.328125 2.046875 C 7.867188 1.992188 7.398438 1.953125 6.921875 1.921875 C 6.453125 1.890625 5.992188 1.859375 5.546875 1.828125 C 5.109375 1.804688 4.722656 1.773438 4.390625 1.734375 C 4.203125 1.859375 4.019531 2 3.84375 2.15625 C 3.675781 2.3125 3.523438 2.476562 3.390625 2.65625 C 3.265625 2.832031 3.160156 3.015625 3.078125 3.203125 C 2.992188 3.398438 2.953125 3.597656 2.953125 3.796875 C 2.953125 4.128906 3.050781 4.410156 3.25 4.640625 C 3.445312 4.867188 3.710938 5.046875 4.046875 5.171875 C 4.378906 5.304688 4.765625 5.398438 5.203125 5.453125 C 5.648438 5.515625 6.117188 5.546875 6.609375 5.546875 C 7.265625 5.546875 7.847656 5.488281 8.359375 5.375 C 8.878906 5.257812 9.316406 5.101562 9.671875 4.90625 C 10.035156 4.71875 10.3125 4.5 10.5 4.25 C 10.6875 4.007812 10.78125 3.742188 10.78125 3.453125 Z M 10.78125 3.453125 "/></g></g></g><g fill="#f7f2e8" fill-opacity="1"><g transform="translate(102.733609, 52.186525)"><g><path d="M 13.375 -2.328125 C 13.375 -2.242188 13.378906 -2.15625 13.390625 -2.0625 C 13.398438 -1.96875 13.421875 -1.878906 13.453125 -1.796875 C 13.492188 -1.710938 13.546875 -1.644531 13.609375 -1.59375 C 13.679688 -1.539062 13.785156 -1.515625 13.921875 -1.515625 C 14.085938 -1.515625 14.238281 -1.570312 14.375 -1.6875 C 14.507812 -1.8125 14.632812 -1.9375 14.75 -2.0625 L 15.078125 -1.78125 C 14.941406 -1.59375 14.769531 -1.382812 14.5625 -1.15625 C 14.363281 -0.925781 14.125 -0.707031 13.84375 -0.5 C 13.5625 -0.300781 13.234375 -0.132812 12.859375 0 C 12.492188 0.144531 12.082031 0.21875 11.625 0.21875 C 11.226562 0.21875 10.882812 0.164062 10.59375 0.0625 C 10.300781 -0.0390625 10.054688 -0.175781 9.859375 -0.34375 C 9.660156 -0.519531 9.507812 -0.726562 9.40625 -0.96875 C 9.3125 -1.207031 9.265625 -1.460938 9.265625 -1.734375 L 9.265625 -2.328125 C 8.816406 -1.847656 8.347656 -1.425781 7.859375 -1.0625 C 7.640625 -0.894531 7.410156 -0.734375 7.171875 -0.578125 C 6.929688 -0.429688 6.679688 -0.296875 6.421875 -0.171875 C 6.160156 -0.0546875 5.890625 0.0351562 5.609375 0.109375 C 5.335938 0.179688 5.066406 0.21875 4.796875 0.21875 C 4.253906 0.21875 3.796875 0.125 3.421875 -0.0625 C 3.046875 -0.257812 2.738281 -0.515625 2.5 -0.828125 C 2.269531 -1.140625 2.097656 -1.492188 1.984375 -1.890625 C 1.878906 -2.285156 1.828125 -2.675781 1.828125 -3.0625 L 1.828125 -11.359375 C 1.828125 -11.429688 1.820312 -11.515625 1.8125 -11.609375 C 1.8125 -11.703125 1.789062 -11.789062 1.75 -11.875 C 1.71875 -11.96875 1.664062 -12.039062 1.59375 -12.09375 C 1.519531 -12.144531 1.414062 -12.171875 1.28125 -12.171875 C 1.125 -12.171875 0.972656 -12.109375 0.828125 -11.984375 C 0.691406 -11.867188 0.570312 -11.75 0.46875 -11.625 L 0.140625 -11.90625 C 0.265625 -12.09375 0.425781 -12.300781 0.625 -12.53125 C 0.832031 -12.757812 1.078125 -12.972656 1.359375 -13.171875 C 1.648438 -13.378906 1.976562 -13.550781 2.34375 -13.6875 C 2.71875 -13.820312 3.132812 -13.890625 3.59375 -13.890625 C 3.976562 -13.890625 4.316406 -13.835938 4.609375 -13.734375 C 4.910156 -13.640625 5.160156 -13.503906 5.359375 -13.328125 C 5.554688 -13.148438 5.703125 -12.941406 5.796875 -12.703125 C 5.890625 -12.472656 5.9375 -12.222656 5.9375 -11.953125 L 5.9375 -3.015625 C 5.9375 -2.890625 5.957031 -2.757812 6 -2.625 C 6.039062 -2.5 6.097656 -2.378906 6.171875 -2.265625 C 6.253906 -2.160156 6.351562 -2.078125 6.46875 -2.015625 C 6.582031 -1.953125 6.71875 -1.921875 6.875 -1.921875 C 7.132812 -1.921875 7.394531 -1.984375 7.65625 -2.109375 C 7.914062 -2.242188 8.148438 -2.398438 8.359375 -2.578125 C 8.578125 -2.765625 8.765625 -2.945312 8.921875 -3.125 C 9.078125 -3.3125 9.191406 -3.445312 9.265625 -3.53125 L 9.265625 -11.359375 C 9.265625 -11.429688 9.257812 -11.515625 9.25 -11.609375 C 9.238281 -11.703125 9.210938 -11.789062 9.171875 -11.875 C 9.140625 -11.96875 9.085938 -12.039062 9.015625 -12.09375 C 8.953125 -12.144531 8.851562 -12.171875 8.71875 -12.171875 C 8.550781 -12.171875 8.398438 -12.109375 8.265625 -11.984375 C 8.128906 -11.867188 8.007812 -11.75 7.90625 -11.625 L 7.5625 -11.90625 C 7.695312 -12.09375 7.863281 -12.300781 8.0625 -12.53125 C 8.269531 -12.757812 8.515625 -12.972656 8.796875 -13.171875 C 9.078125 -13.378906 9.40625 -13.550781 9.78125 -13.6875 C 10.15625 -13.820312 10.566406 -13.890625 11.015625 -13.890625 C 11.410156 -13.890625 11.753906 -13.835938 12.046875 -13.734375 C 12.347656 -13.640625 12.59375 -13.503906 12.78125 -13.328125 C 12.976562 -13.148438 13.125 -12.941406 13.21875 -12.703125 C 13.320312 -12.472656 13.375 -12.222656 13.375 -11.953125 Z M 13.375 -2.328125 "/></g></g></g><g fill="#f7f2e8" fill-opacity="1"><g transform="translate(117.269917, 52.186525)"><g><path d="M 5.9375 -1.203125 C 5.9375 -1.085938 5.914062 -0.945312 5.875 -0.78125 C 5.84375 -0.613281 5.75 -0.457031 5.59375 -0.3125 C 5.445312 -0.164062 5.234375 -0.0390625 4.953125 0.0625 C 4.679688 0.164062 4.3125 0.21875 3.84375 0.21875 C 3.375 0.21875 3.003906 0.160156 2.734375 0.046875 C 2.460938 -0.0664062 2.257812 -0.195312 2.125 -0.34375 C 1.988281 -0.5 1.90625 -0.65625 1.875 -0.8125 C 1.84375 -0.976562 1.828125 -1.109375 1.828125 -1.203125 L 1.828125 -11.546875 C 1.828125 -11.804688 1.765625 -12.03125 1.640625 -12.21875 C 1.523438 -12.40625 1.328125 -12.5 1.046875 -12.5 C 0.890625 -12.5 0.757812 -12.472656 0.65625 -12.421875 C 0.550781 -12.367188 0.4375 -12.296875 0.3125 -12.203125 L 0.03125 -12.53125 C 0.226562 -12.695312 0.453125 -12.863281 0.703125 -13.03125 C 0.960938 -13.195312 1.238281 -13.34375 1.53125 -13.46875 C 1.832031 -13.59375 2.148438 -13.691406 2.484375 -13.765625 C 2.828125 -13.847656 3.1875 -13.890625 3.5625 -13.890625 C 4.144531 -13.890625 4.59375 -13.8125 4.90625 -13.65625 C 5.226562 -13.507812 5.460938 -13.320312 5.609375 -13.09375 C 5.765625 -12.863281 5.859375 -12.617188 5.890625 -12.359375 C 5.921875 -12.097656 5.9375 -11.867188 5.9375 -11.671875 Z M 1.421875 -16.953125 C 1.421875 -17.203125 1.472656 -17.441406 1.578125 -17.671875 C 1.691406 -17.898438 1.847656 -18.097656 2.046875 -18.265625 C 2.253906 -18.429688 2.488281 -18.5625 2.75 -18.65625 C 3.007812 -18.757812 3.296875 -18.8125 3.609375 -18.8125 C 3.921875 -18.8125 4.207031 -18.757812 4.46875 -18.65625 C 4.726562 -18.5625 4.957031 -18.429688 5.15625 -18.265625 C 5.351562 -18.097656 5.503906 -17.898438 5.609375 -17.671875 C 5.722656 -17.441406 5.78125 -17.203125 5.78125 -16.953125 C 5.78125 -16.691406 5.722656 -16.445312 5.609375 -16.21875 C 5.503906 -16 5.351562 -15.804688 5.15625 -15.640625 C 4.957031 -15.472656 4.726562 -15.34375 4.46875 -15.25 C 4.207031 -15.15625 3.921875 -15.109375 3.609375 -15.109375 C 3.296875 -15.109375 3.007812 -15.15625 2.75 -15.25 C 2.488281 -15.34375 2.253906 -15.472656 2.046875 -15.640625 C 1.847656 -15.804688 1.691406 -16 1.578125 -16.21875 C 1.472656 -16.445312 1.421875 -16.691406 1.421875 -16.953125 Z M 1.421875 -16.953125 "/></g></g></g><g fill="#f7f2e8" fill-opacity="1"><g transform="translate(124.228786, 52.186525)"><g><path d="M 9.109375 -7.265625 C 9.109375 -7.367188 9.109375 -7.566406 9.109375 -7.859375 C 9.109375 -8.160156 9.097656 -8.503906 9.078125 -8.890625 C 9.054688 -9.285156 9.023438 -9.703125 8.984375 -10.140625 C 8.941406 -10.578125 8.867188 -10.984375 8.765625 -11.359375 C 8.554688 -11.628906 8.316406 -11.875 8.046875 -12.09375 C 7.785156 -12.3125 7.453125 -12.421875 7.046875 -12.421875 C 6.347656 -12.421875 5.832031 -11.960938 5.5 -11.046875 C 5.175781 -10.140625 5.015625 -8.734375 5.015625 -6.828125 C 5.015625 -5.984375 5.050781 -5.210938 5.125 -4.515625 C 5.207031 -3.828125 5.328125 -3.234375 5.484375 -2.734375 C 5.640625 -2.234375 5.835938 -1.84375 6.078125 -1.5625 C 6.328125 -1.289062 6.625 -1.15625 6.96875 -1.15625 C 8.394531 -1.15625 9.109375 -3.191406 9.109375 -7.265625 Z M 8.9375 -13.15625 C 8.769531 -14.050781 8.535156 -14.882812 8.234375 -15.65625 C 7.929688 -16.425781 7.566406 -17.09375 7.140625 -17.65625 C 6.710938 -18.21875 6.226562 -18.660156 5.6875 -18.984375 C 5.15625 -19.304688 4.578125 -19.46875 3.953125 -19.46875 C 3.597656 -19.46875 3.273438 -19.421875 2.984375 -19.328125 C 2.691406 -19.242188 2.4375 -19.140625 2.21875 -19.015625 C 2.007812 -18.898438 1.832031 -18.785156 1.6875 -18.671875 C 1.550781 -18.554688 1.453125 -18.472656 1.390625 -18.421875 L 1.046875 -18.890625 C 1.253906 -19.171875 1.515625 -19.429688 1.828125 -19.671875 C 2.140625 -19.910156 2.476562 -20.113281 2.84375 -20.28125 C 3.207031 -20.457031 3.59375 -20.59375 4 -20.6875 C 4.40625 -20.78125 4.804688 -20.828125 5.203125 -20.828125 C 6.523438 -20.828125 7.6875 -20.539062 8.6875 -19.96875 C 9.6875 -19.394531 10.519531 -18.582031 11.1875 -17.53125 C 11.863281 -16.476562 12.367188 -15.203125 12.703125 -13.703125 C 13.046875 -12.210938 13.21875 -10.5625 13.21875 -8.75 C 13.21875 -7.269531 13.066406 -5.972656 12.765625 -4.859375 C 12.460938 -3.742188 12.035156 -2.804688 11.484375 -2.046875 C 10.929688 -1.296875 10.257812 -0.726562 9.46875 -0.34375 C 8.675781 0.03125 7.785156 0.21875 6.796875 0.21875 C 6.109375 0.21875 5.410156 0.0976562 4.703125 -0.140625 C 3.992188 -0.390625 3.351562 -0.789062 2.78125 -1.34375 C 2.207031 -1.90625 1.734375 -2.632812 1.359375 -3.53125 C 0.992188 -4.425781 0.8125 -5.523438 0.8125 -6.828125 C 0.8125 -7.953125 0.96875 -8.953125 1.28125 -9.828125 C 1.601562 -10.703125 2.03125 -11.441406 2.5625 -12.046875 C 3.101562 -12.648438 3.722656 -13.109375 4.421875 -13.421875 C 5.128906 -13.734375 5.878906 -13.890625 6.671875 -13.890625 C 6.972656 -13.890625 7.242188 -13.863281 7.484375 -13.8125 C 7.722656 -13.769531 7.929688 -13.710938 8.109375 -13.640625 C 8.285156 -13.566406 8.441406 -13.488281 8.578125 -13.40625 C 8.710938 -13.320312 8.832031 -13.238281 8.9375 -13.15625 Z M 8.9375 -13.15625 "/></g></g></g><g fill="#f7f2e8" fill-opacity="1"><g transform="translate(137.640528, 52.186525)"><g><path d="M 5.125 -6.140625 C 5.125 -5.859375 5.164062 -5.550781 5.25 -5.21875 C 5.332031 -4.882812 5.453125 -4.546875 5.609375 -4.203125 C 5.773438 -3.867188 5.976562 -3.546875 6.21875 -3.234375 C 6.457031 -2.921875 6.726562 -2.644531 7.03125 -2.40625 C 7.34375 -2.164062 7.6875 -1.972656 8.0625 -1.828125 C 8.4375 -1.691406 8.847656 -1.625 9.296875 -1.625 C 9.609375 -1.625 9.894531 -1.65625 10.15625 -1.71875 C 10.425781 -1.789062 10.675781 -1.890625 10.90625 -2.015625 C 11.144531 -2.140625 11.367188 -2.285156 11.578125 -2.453125 C 11.796875 -2.617188 12.007812 -2.796875 12.21875 -2.984375 L 12.5625 -2.671875 C 12.351562 -2.390625 12.085938 -2.082031 11.765625 -1.75 C 11.441406 -1.425781 11.050781 -1.117188 10.59375 -0.828125 C 10.144531 -0.535156 9.613281 -0.289062 9 -0.09375 C 8.394531 0.09375 7.707031 0.1875 6.9375 0.1875 C 6.15625 0.1875 5.394531 0.046875 4.65625 -0.234375 C 3.925781 -0.515625 3.273438 -0.9375 2.703125 -1.5 C 2.128906 -2.0625 1.671875 -2.757812 1.328125 -3.59375 C 0.984375 -4.4375 0.8125 -5.421875 0.8125 -6.546875 C 0.8125 -7.359375 0.914062 -8.101562 1.125 -8.78125 C 1.332031 -9.457031 1.609375 -10.066406 1.953125 -10.609375 C 2.304688 -11.160156 2.71875 -11.640625 3.1875 -12.046875 C 3.65625 -12.460938 4.148438 -12.804688 4.671875 -13.078125 C 5.191406 -13.347656 5.71875 -13.550781 6.25 -13.6875 C 6.789062 -13.820312 7.3125 -13.890625 7.8125 -13.890625 C 8.476562 -13.890625 9.054688 -13.816406 9.546875 -13.671875 C 10.035156 -13.535156 10.441406 -13.347656 10.765625 -13.109375 C 11.097656 -12.867188 11.34375 -12.585938 11.5 -12.265625 C 11.664062 -11.953125 11.75 -11.625 11.75 -11.28125 C 11.75 -10.851562 11.625 -10.472656 11.375 -10.140625 C 11.132812 -9.804688 10.816406 -9.515625 10.421875 -9.265625 Z M 7.8125 -8.859375 C 7.9375 -8.929688 8.035156 -9 8.109375 -9.0625 C 8.179688 -9.132812 8.238281 -9.21875 8.28125 -9.3125 C 8.332031 -9.40625 8.367188 -9.519531 8.390625 -9.65625 C 8.410156 -9.800781 8.421875 -9.972656 8.421875 -10.171875 C 8.421875 -10.398438 8.394531 -10.648438 8.34375 -10.921875 C 8.300781 -11.191406 8.21875 -11.445312 8.09375 -11.6875 C 7.976562 -11.925781 7.832031 -12.125 7.65625 -12.28125 C 7.476562 -12.445312 7.265625 -12.53125 7.015625 -12.53125 C 6.691406 -12.53125 6.414062 -12.429688 6.1875 -12.234375 C 5.957031 -12.046875 5.769531 -11.800781 5.625 -11.5 C 5.476562 -11.195312 5.363281 -10.847656 5.28125 -10.453125 C 5.195312 -10.066406 5.128906 -9.675781 5.078125 -9.28125 C 5.035156 -8.894531 5.007812 -8.519531 5 -8.15625 C 5 -7.800781 5 -7.5 5 -7.25 Z M 7.8125 -8.859375 "/></g></g></g><g fill="#e9a082" fill-opacity="1"><g transform="translate(148.363495, 56.636808)"><g><path d="M 0.046875 0 L 4.28125 -9.71875 L 7.3125 -9.71875 L 11.484375 0 L 8.84375 0 L 8.0625 -1.90625 L 3.46875 -1.90625 L 2.6875 0 Z M 3.984375 -3.5625 L 7.546875 -3.5625 L 5.796875 -7.890625 L 5.765625 -7.890625 Z M 3.984375 -3.5625 "/></g></g></g><g fill="#e9a082" fill-opacity="1"><g transform="translate(161.355953, 56.636808)"><g><path d="M 0.71875 0 L 0.71875 -9.71875 L 3.25 -9.71875 L 3.25 0 Z M 0.71875 0 "/></g></g></g></svg>