<svg xmlns="http://www.w3.org/2000/svg" xmlns:xlink="http://www.w3.org/1999/xlink" width="392" zoomAndPan="magnify" viewBox="0 0 294 108.749999" height="145" preserveAspectRatio="xMidYMid meet" version="1.0"><defs><g/><clipPath id="2546f69ac4"><path d="M 0.335938 0 L 293.660156 0 L 293.660156 108.5 L 0.335938 108.5 Z M 0.335938 0 " clip-rule="nonzero"/></clipPath><clipPath id="7218a3efa8"><path d="M 16 6 L 68 6 L 68 57 L 16 57 Z M 16 6 " clip-rule="nonzero"/></clipPath><clipPath id="58bae53b96"><path d="M 0.335938 10.417969 L 67.636719 0.0390625 L 75.277344 49.589844 L 7.976562 59.964844 Z M 0.335938 10.417969 " clip-rule="nonzero"/></clipPath><clipPath id="35d83ece61"><path d="M 0.335938 10.417969 L 67.636719 0.0390625 L 75.277344 49.589844 L 7.976562 59.964844 Z M 0.335938 10.417969 " clip-rule="nonzero"/></clipPath><clipPath id="aefd4611c7"><path d="M 6 30 L 45 30 L 45 58 L 6 58 Z M 6 30 " clip-rule="nonzero"/></clipPath><clipPath id="ed61ecf134"><path d="M 0.335938 10.417969 L 67.636719 0.0390625 L 75.277344 49.589844 L 7.976562 59.964844 Z M 0.335938 10.417969 " clip-rule="nonzero"/></clipPath><clipPath id="d1569226a5"><path d="M 0.335938 10.417969 L 67.636719 0.0390625 L 75.277344 49.589844 L 7.976562 59.964844 Z M 0.335938 10.417969 " clip-rule="nonzero"/></clipPath></defs><g clip-path="url(#2546f69ac4)"><path fill="#ffffff" d="M 0.335938 0 L 293.664062 0 L 293.664062 108.5 L 0.335938 108.5 Z M 0.335938 0 " fill-opacity="1" fill-rule="nonzero"/></g><g clip-path="url(#7218a3efa8)"><g clip-path="url(#58bae53b96)"><g clip-path="url(#35d83ece61)"><path fill="#442a00" d="M 16.582031 38.28125 C 16.582031 38.28125 24.058594 37.734375 33.863281 24.359375 C 43.667969 10.980469 53.15625 8.9375 58.578125 15.6875 C 64 22.4375 58.242188 29.980469 58.242188 29.980469 C 58.242188 29.980469 58.179688 26.539062 57.6875 23.332031 C 57.191406 20.125 55.566406 18.167969 55.566406 18.167969 C 55.566406 18.167969 56.707031 22.957031 56.4375 25.429688 C 56.167969 27.902344 54.046875 30.324219 54.046875 30.324219 L 52.539062 30.585938 C 52.539062 30.585938 52.578125 27.933594 51.378906 25.214844 C 50.183594 22.496094 47.6875 21.121094 47.6875 21.121094 C 47.6875 21.121094 50.105469 24.28125 50.4375 26.4375 C 50.769531 28.59375 50.800781 31.292969 50.800781 31.292969 C 50.800781 31.292969 45.226562 31.65625 38.488281 35.566406 C 31.75 39.476562 27.359375 45.011719 27.359375 45.011719 C 27.359375 45.011719 39.300781 37.261719 47.371094 35.191406 C 55.441406 33.117188 59.582031 34.90625 59.582031 34.90625 L 62.378906 40.878906 C 62.378906 40.878906 54.136719 41.820312 46.011719 45.335938 C 37.890625 48.851562 29.722656 56.734375 29.722656 56.734375 C 29.722656 56.734375 43.890625 48.753906 52.234375 46.308594 C 60.578125 43.863281 67.679688 44.09375 67.679688 44.09375 L 61.929688 32.945312 C 61.929688 32.945312 70.652344 17.914062 61.777344 10.117188 C 52.902344 2.324219 39.605469 6.640625 31.71875 20.992188 C 23.828125 35.34375 16.582031 38.28125 16.582031 38.28125 Z M 16.582031 38.28125 " fill-opacity="1" fill-rule="evenodd"/></g></g></g><g clip-path="url(#aefd4611c7)"><g clip-path="url(#ed61ecf134)"><g clip-path="url(#d1569226a5)"><path fill="#c25700" d="M 20.804688 30.402344 C 20.804688 30.402344 7.515625 34.769531 9.914062 43.175781 C 12.316406 51.582031 23.613281 45.753906 23.613281 45.753906 L 26.414062 52.113281 C 26.414062 52.113281 30.988281 48.480469 35.300781 46.378906 C 39.613281 44.28125 44.242188 44.226562 44.242188 44.226562 C 44.242188 44.226562 34.789062 47.34375 31.273438 51.03125 C 27.757812 54.71875 25.3125 57.46875 25.3125 57.46875 L 21.867188 50.164062 C 21.867188 50.164062 10.738281 54.253906 7.523438 45.199219 C 4.304688 36.148438 11.03125 31.082031 20.804688 30.402344 Z M 20.804688 30.402344 " fill-opacity="1" fill-rule="evenodd"/></g></g></g><g fill="#442a00" fill-opacity="1"><g transform="translate(43.92485, 84.831187)"><g><path d="M 10.765625 -20.859375 C 10.765625 -22.171875 10.753906 -23.378906 10.734375 -24.484375 C 10.710938 -25.585938 10.691406 -26.546875 10.671875 -27.359375 C 10.648438 -28.179688 10.628906 -28.828125 10.609375 -29.296875 C 10.585938 -29.773438 10.578125 -30.0625 10.578125 -30.15625 C 10.285156 -30.351562 9.953125 -30.457031 9.578125 -30.46875 C 9.210938 -30.488281 8.847656 -30.5 8.484375 -30.5 C 7.984375 -30.5 7.375 -30.378906 6.65625 -30.140625 C 5.945312 -29.898438 5.257812 -29.554688 4.59375 -29.109375 C 3.9375 -28.671875 3.375 -28.128906 2.90625 -27.484375 C 2.445312 -26.847656 2.21875 -26.128906 2.21875 -25.328125 C 2.21875 -24.867188 2.273438 -24.5 2.390625 -24.21875 C 2.515625 -23.945312 2.660156 -23.742188 2.828125 -23.609375 C 2.992188 -23.472656 3.160156 -23.382812 3.328125 -23.34375 C 3.492188 -23.3125 3.613281 -23.296875 3.6875 -23.296875 C 4.050781 -23.296875 4.347656 -23.351562 4.578125 -23.46875 C 4.804688 -23.59375 5.015625 -23.722656 5.203125 -23.859375 C 5.390625 -24.003906 5.566406 -24.132812 5.734375 -24.25 C 5.898438 -24.375 6.09375 -24.4375 6.3125 -24.4375 C 6.488281 -24.4375 6.671875 -24.394531 6.859375 -24.3125 C 7.054688 -24.238281 7.238281 -24.113281 7.40625 -23.9375 C 7.570312 -23.769531 7.710938 -23.539062 7.828125 -23.25 C 7.953125 -22.96875 8.015625 -22.628906 8.015625 -22.234375 C 8.015625 -21.648438 7.898438 -21.144531 7.671875 -20.71875 C 7.453125 -20.300781 7.160156 -19.953125 6.796875 -19.671875 C 6.441406 -19.390625 6.035156 -19.179688 5.578125 -19.046875 C 5.128906 -18.910156 4.679688 -18.84375 4.234375 -18.84375 C 3.535156 -18.84375 2.90625 -18.960938 2.34375 -19.203125 C 1.789062 -19.441406 1.316406 -19.769531 0.921875 -20.1875 C 0.535156 -20.601562 0.238281 -21.09375 0.03125 -21.65625 C -0.164062 -22.226562 -0.265625 -22.832031 -0.265625 -23.46875 C -0.265625 -24.96875 0.046875 -26.273438 0.671875 -27.390625 C 1.304688 -28.515625 2.148438 -29.453125 3.203125 -30.203125 C 4.253906 -30.960938 5.460938 -31.523438 6.828125 -31.890625 C 8.191406 -32.265625 9.601562 -32.453125 11.0625 -32.453125 C 12.382812 -32.453125 13.472656 -32.363281 14.328125 -32.1875 C 15.179688 -32.007812 15.875 -31.773438 16.40625 -31.484375 C 16.945312 -31.203125 17.367188 -30.859375 17.671875 -30.453125 C 17.972656 -30.054688 18.234375 -29.644531 18.453125 -29.21875 C 19.335938 -27.425781 20.191406 -25.660156 21.015625 -23.921875 C 21.847656 -22.179688 22.648438 -20.484375 23.421875 -18.828125 C 24.203125 -17.179688 24.957031 -15.59375 25.6875 -14.0625 C 26.414062 -12.539062 27.128906 -11.101562 27.828125 -9.75 L 27.828125 -19.5625 C 27.828125 -20.757812 27.859375 -21.929688 27.921875 -23.078125 C 27.984375 -24.234375 28.117188 -25.320312 28.328125 -26.34375 C 28.546875 -27.363281 28.863281 -28.300781 29.28125 -29.15625 C 29.695312 -30.007812 30.253906 -30.742188 30.953125 -31.359375 C 31.660156 -31.984375 32.535156 -32.46875 33.578125 -32.8125 C 34.617188 -33.164062 35.867188 -33.34375 37.328125 -33.34375 C 38.066406 -33.34375 38.75 -33.285156 39.375 -33.171875 C 40 -33.066406 40.535156 -32.910156 40.984375 -32.703125 C 41.441406 -32.503906 41.800781 -32.253906 42.0625 -31.953125 C 42.320312 -31.660156 42.453125 -31.332031 42.453125 -30.96875 C 42.453125 -30.738281 42.421875 -30.492188 42.359375 -30.234375 C 42.296875 -29.984375 42.195312 -29.757812 42.0625 -29.5625 C 41.9375 -29.363281 41.773438 -29.191406 41.578125 -29.046875 C 41.378906 -28.910156 41.148438 -28.84375 40.890625 -28.84375 C 40.671875 -28.84375 40.472656 -28.992188 40.296875 -29.296875 C 40.117188 -29.609375 39.894531 -29.945312 39.625 -30.3125 C 39.351562 -30.675781 38.992188 -31.007812 38.546875 -31.3125 C 38.109375 -31.625 37.515625 -31.78125 36.765625 -31.78125 C 35.597656 -31.78125 34.625 -31.570312 33.84375 -31.15625 C 33.070312 -30.75 32.445312 -30.164062 31.96875 -29.40625 C 31.488281 -28.65625 31.132812 -27.738281 30.90625 -26.65625 C 30.6875 -25.582031 30.550781 -24.390625 30.5 -23.078125 C 30.46875 -22.160156 30.441406 -21.269531 30.421875 -20.40625 C 30.398438 -19.550781 30.382812 -18.679688 30.375 -17.796875 C 30.363281 -16.910156 30.359375 -15.992188 30.359375 -15.046875 C 30.359375 -14.097656 30.359375 -13.082031 30.359375 -12 C 30.359375 -10.46875 30.363281 -9.09375 30.375 -7.875 C 30.394531 -6.664062 30.421875 -5.671875 30.453125 -4.890625 C 31.109375 -3.773438 31.753906 -2.769531 32.390625 -1.875 C 33.023438 -0.988281 33.648438 -0.238281 34.265625 0.375 C 34.878906 0.988281 35.492188 1.460938 36.109375 1.796875 C 36.734375 2.128906 37.363281 2.296875 38 2.296875 C 38.207031 2.296875 38.40625 2.265625 38.59375 2.203125 C 38.78125 2.148438 38.945312 2.085938 39.09375 2.015625 C 39.25 1.941406 39.40625 1.847656 39.5625 1.734375 L 40.265625 2.578125 C 40.054688 2.722656 39.769531 2.894531 39.40625 3.09375 C 39.039062 3.300781 38.59375 3.5 38.0625 3.6875 C 37.53125 3.875 36.925781 4.03125 36.25 4.15625 C 35.570312 4.289062 34.828125 4.359375 34.015625 4.359375 C 32.835938 4.359375 31.707031 4.070312 30.625 3.5 C 29.550781 2.925781 28.515625 2.140625 27.515625 1.140625 C 26.523438 0.148438 25.570312 -1.007812 24.65625 -2.34375 C 23.75 -3.6875 22.867188 -5.125 22.015625 -6.65625 C 21.171875 -8.195312 20.359375 -9.796875 19.578125 -11.453125 C 18.796875 -13.117188 18.039062 -14.765625 17.3125 -16.390625 C 16.582031 -18.023438 15.878906 -19.601562 15.203125 -21.125 C 14.535156 -22.65625 13.878906 -24.054688 13.234375 -25.328125 C 13.234375 -24.492188 13.238281 -23.625 13.25 -22.71875 C 13.269531 -21.820312 13.28125 -20.921875 13.28125 -20.015625 L 13.28125 -13.28125 C 13.28125 -12.082031 13.25 -10.910156 13.1875 -9.765625 C 13.132812 -8.617188 13 -7.535156 12.78125 -6.515625 C 12.5625 -5.503906 12.242188 -4.566406 11.828125 -3.703125 C 11.421875 -2.835938 10.863281 -2.09375 10.15625 -1.46875 C 9.445312 -0.851562 8.570312 -0.367188 7.53125 -0.015625 C 6.488281 0.328125 5.238281 0.5 3.78125 0.5 C 3.039062 0.5 2.359375 0.441406 1.734375 0.328125 C 1.109375 0.222656 0.566406 0.0703125 0.109375 -0.125 C -0.335938 -0.332031 -0.6875 -0.578125 -0.9375 -0.859375 C -1.195312 -1.148438 -1.328125 -1.484375 -1.328125 -1.859375 C -1.328125 -2.097656 -1.289062 -2.34375 -1.21875 -2.59375 C -1.15625 -2.84375 -1.054688 -3.066406 -0.921875 -3.265625 C -0.796875 -3.472656 -0.640625 -3.644531 -0.453125 -3.78125 C -0.265625 -3.925781 -0.0390625 -4 0.21875 -4 C 0.363281 -4 0.492188 -3.925781 0.609375 -3.78125 C 0.734375 -3.632812 0.863281 -3.453125 1 -3.234375 C 1.144531 -3.015625 1.304688 -2.78125 1.484375 -2.53125 C 1.671875 -2.28125 1.890625 -2.046875 2.140625 -1.828125 C 2.390625 -1.609375 2.695312 -1.425781 3.0625 -1.28125 C 3.425781 -1.132812 3.859375 -1.0625 4.359375 -1.0625 C 5.535156 -1.0625 6.507812 -1.265625 7.28125 -1.671875 C 8.050781 -2.085938 8.675781 -2.675781 9.15625 -3.4375 C 9.632812 -4.195312 9.984375 -5.113281 10.203125 -6.1875 C 10.421875 -7.257812 10.554688 -8.460938 10.609375 -9.796875 C 10.648438 -10.703125 10.675781 -11.582031 10.6875 -12.4375 C 10.707031 -13.289062 10.722656 -14.15625 10.734375 -15.03125 C 10.753906 -15.914062 10.765625 -16.835938 10.765625 -17.796875 C 10.765625 -18.753906 10.765625 -19.773438 10.765625 -20.859375 Z M 10.765625 -20.859375 "/></g></g></g><g fill="#442a00" fill-opacity="1"><g transform="translate(79.02573, 84.831187)"><g><path d="M 21.6875 -3.78125 C 21.6875 -3.644531 21.691406 -3.5 21.703125 -3.34375 C 21.722656 -3.195312 21.757812 -3.054688 21.8125 -2.921875 C 21.875 -2.785156 21.960938 -2.671875 22.078125 -2.578125 C 22.191406 -2.492188 22.359375 -2.453125 22.578125 -2.453125 C 22.847656 -2.453125 23.09375 -2.546875 23.3125 -2.734375 C 23.53125 -2.929688 23.734375 -3.132812 23.921875 -3.34375 L 24.4375 -2.890625 C 24.21875 -2.585938 23.945312 -2.25 23.625 -1.875 C 23.300781 -1.507812 22.90625 -1.160156 22.4375 -0.828125 C 21.976562 -0.492188 21.453125 -0.21875 20.859375 0 C 20.265625 0.226562 19.59375 0.34375 18.84375 0.34375 C 18.207031 0.34375 17.648438 0.257812 17.171875 0.09375 C 16.703125 -0.0703125 16.304688 -0.296875 15.984375 -0.578125 C 15.660156 -0.859375 15.414062 -1.191406 15.25 -1.578125 C 15.09375 -1.960938 15.015625 -2.367188 15.015625 -2.796875 L 15.015625 -3.78125 C 14.296875 -3 13.535156 -2.3125 12.734375 -1.71875 C 12.390625 -1.457031 12.019531 -1.203125 11.625 -0.953125 C 11.238281 -0.710938 10.835938 -0.492188 10.421875 -0.296875 C 10.003906 -0.0976562 9.566406 0.0546875 9.109375 0.171875 C 8.660156 0.285156 8.210938 0.34375 7.765625 0.34375 C 6.898438 0.34375 6.160156 0.1875 5.546875 -0.125 C 4.929688 -0.4375 4.4375 -0.84375 4.0625 -1.34375 C 3.6875 -1.851562 3.410156 -2.425781 3.234375 -3.0625 C 3.054688 -3.695312 2.96875 -4.332031 2.96875 -4.96875 L 2.96875 -18.40625 C 2.96875 -18.539062 2.960938 -18.679688 2.953125 -18.828125 C 2.941406 -18.984375 2.90625 -19.128906 2.84375 -19.265625 C 2.78125 -19.398438 2.691406 -19.507812 2.578125 -19.59375 C 2.460938 -19.6875 2.296875 -19.734375 2.078125 -19.734375 C 1.816406 -19.734375 1.570312 -19.632812 1.34375 -19.4375 C 1.125 -19.238281 0.929688 -19.039062 0.765625 -18.84375 L 0.21875 -19.296875 C 0.4375 -19.597656 0.707031 -19.929688 1.03125 -20.296875 C 1.351562 -20.671875 1.742188 -21.023438 2.203125 -21.359375 C 2.671875 -21.691406 3.203125 -21.96875 3.796875 -22.1875 C 4.398438 -22.414062 5.070312 -22.53125 5.8125 -22.53125 C 6.445312 -22.53125 7.003906 -22.445312 7.484375 -22.28125 C 7.960938 -22.113281 8.359375 -21.890625 8.671875 -21.609375 C 8.992188 -21.328125 9.234375 -20.992188 9.390625 -20.609375 C 9.554688 -20.222656 9.640625 -19.816406 9.640625 -19.390625 L 9.640625 -4.890625 C 9.640625 -4.679688 9.671875 -4.472656 9.734375 -4.265625 C 9.796875 -4.054688 9.890625 -3.863281 10.015625 -3.6875 C 10.140625 -3.507812 10.296875 -3.367188 10.484375 -3.265625 C 10.671875 -3.160156 10.894531 -3.109375 11.15625 -3.109375 C 11.570312 -3.109375 11.988281 -3.210938 12.40625 -3.421875 C 12.832031 -3.640625 13.21875 -3.894531 13.5625 -4.1875 C 13.914062 -4.488281 14.21875 -4.785156 14.46875 -5.078125 C 14.71875 -5.367188 14.898438 -5.585938 15.015625 -5.734375 L 15.015625 -18.40625 C 15.015625 -18.539062 15.007812 -18.679688 15 -18.828125 C 14.988281 -18.984375 14.953125 -19.128906 14.890625 -19.265625 C 14.828125 -19.398438 14.738281 -19.507812 14.625 -19.59375 C 14.507812 -19.6875 14.34375 -19.734375 14.125 -19.734375 C 13.863281 -19.734375 13.617188 -19.632812 13.390625 -19.4375 C 13.171875 -19.238281 12.976562 -19.039062 12.8125 -18.84375 L 12.265625 -19.296875 C 12.484375 -19.597656 12.753906 -19.929688 13.078125 -20.296875 C 13.398438 -20.671875 13.789062 -21.023438 14.25 -21.359375 C 14.71875 -21.691406 15.25 -21.96875 15.84375 -22.1875 C 16.445312 -22.414062 17.117188 -22.53125 17.859375 -22.53125 C 18.492188 -22.53125 19.050781 -22.445312 19.53125 -22.28125 C 20.007812 -22.113281 20.40625 -21.890625 20.71875 -21.609375 C 21.039062 -21.328125 21.28125 -20.992188 21.4375 -20.609375 C 21.601562 -20.222656 21.6875 -19.816406 21.6875 -19.390625 Z M 21.6875 -3.78125 "/></g></g></g><g fill="#442a00" fill-opacity="1"><g transform="translate(102.583846, 84.831187)"><g><path d="M 9.75 -20.65625 L 9.75 -4.625 C 9.75 -3.851562 9.890625 -3.316406 10.171875 -3.015625 C 10.460938 -2.722656 10.863281 -2.578125 11.375 -2.578125 C 11.757812 -2.578125 12.101562 -2.6875 12.40625 -2.90625 C 12.71875 -3.125 12.984375 -3.367188 13.203125 -3.640625 C 13.460938 -3.953125 13.6875 -4.304688 13.875 -4.703125 L 14.546875 -4.40625 C 14.328125 -3.945312 14.066406 -3.441406 13.765625 -2.890625 C 13.472656 -2.335938 13.078125 -1.828125 12.578125 -1.359375 C 12.085938 -0.890625 11.46875 -0.492188 10.71875 -0.171875 C 9.976562 0.140625 9.046875 0.296875 7.921875 0.296875 C 7.285156 0.296875 6.671875 0.203125 6.078125 0.015625 C 5.492188 -0.171875 4.972656 -0.460938 4.515625 -0.859375 C 4.066406 -1.265625 3.703125 -1.769531 3.421875 -2.375 C 3.148438 -2.988281 3.015625 -3.722656 3.015625 -4.578125 L 3.015625 -20.65625 L 0.59375 -20.65625 L 0.59375 -22.234375 C 0.988281 -22.234375 1.546875 -22.335938 2.265625 -22.546875 C 2.992188 -22.753906 3.738281 -23.101562 4.5 -23.59375 C 5.257812 -24.082031 5.960938 -24.738281 6.609375 -25.5625 C 7.265625 -26.394531 7.734375 -27.414062 8.015625 -28.625 L 9.75 -28.625 L 9.75 -22.234375 L 13.28125 -22.234375 C 14.4375 -22.234375 15.015625 -22.425781 15.015625 -22.8125 C 15.015625 -22.957031 14.941406 -23.054688 14.796875 -23.109375 C 14.660156 -23.160156 14.5 -23.222656 14.3125 -23.296875 C 14.132812 -23.378906 13.972656 -23.492188 13.828125 -23.640625 C 13.679688 -23.785156 13.609375 -24.023438 13.609375 -24.359375 C 13.609375 -24.765625 13.734375 -25.082031 13.984375 -25.3125 C 14.242188 -25.539062 14.578125 -25.65625 14.984375 -25.65625 C 15.242188 -25.65625 15.46875 -25.597656 15.65625 -25.484375 C 15.851562 -25.378906 16.015625 -25.234375 16.140625 -25.046875 C 16.273438 -24.867188 16.375 -24.664062 16.4375 -24.4375 C 16.507812 -24.207031 16.546875 -23.976562 16.546875 -23.75 C 16.546875 -22.800781 16.269531 -22.046875 15.71875 -21.484375 C 15.175781 -20.929688 14.304688 -20.65625 13.109375 -20.65625 Z M 9.75 -20.65625 "/></g></g></g><g fill="#442a00" fill-opacity="1"><g transform="translate(116.443436, 84.831187)"><g><path d="M 9.640625 -17.953125 C 10.191406 -18.785156 10.773438 -19.546875 11.390625 -20.234375 C 11.648438 -20.515625 11.929688 -20.789062 12.234375 -21.0625 C 12.546875 -21.34375 12.863281 -21.59375 13.1875 -21.8125 C 13.507812 -22.03125 13.84375 -22.203125 14.1875 -22.328125 C 14.539062 -22.460938 14.890625 -22.53125 15.234375 -22.53125 C 15.972656 -22.53125 16.550781 -22.304688 16.96875 -21.859375 C 17.394531 -21.421875 17.609375 -20.804688 17.609375 -20.015625 C 17.609375 -19.523438 17.566406 -19.050781 17.484375 -18.59375 C 17.398438 -18.132812 17.242188 -17.582031 17.015625 -16.9375 L 16.40625 -16.9375 C 16.320312 -17.382812 16.117188 -17.753906 15.796875 -18.046875 C 15.484375 -18.347656 15.019531 -18.5 14.40625 -18.5 C 13.957031 -18.5 13.515625 -18.414062 13.078125 -18.25 C 12.648438 -18.082031 12.226562 -17.875 11.8125 -17.625 C 11.40625 -17.375 11.015625 -17.101562 10.640625 -16.8125 C 10.273438 -16.53125 9.941406 -16.257812 9.640625 -16 L 9.640625 -1.90625 C 9.640625 -1.71875 9.609375 -1.492188 9.546875 -1.234375 C 9.492188 -0.972656 9.351562 -0.726562 9.125 -0.5 C 8.90625 -0.269531 8.570312 -0.0703125 8.125 0.09375 C 7.6875 0.257812 7.082031 0.34375 6.3125 0.34375 C 5.550781 0.34375 4.945312 0.25 4.5 0.0625 C 4.0625 -0.113281 3.722656 -0.320312 3.484375 -0.5625 C 3.253906 -0.8125 3.109375 -1.066406 3.046875 -1.328125 C 2.992188 -1.585938 2.96875 -1.796875 2.96875 -1.953125 L 2.96875 -18.703125 C 2.96875 -19.128906 2.867188 -19.492188 2.671875 -19.796875 C 2.484375 -20.109375 2.15625 -20.265625 1.6875 -20.265625 C 1.445312 -20.265625 1.238281 -20.222656 1.0625 -20.140625 C 0.882812 -20.054688 0.695312 -19.9375 0.5 -19.78125 L 0.046875 -20.3125 C 0.378906 -20.59375 0.75 -20.863281 1.15625 -21.125 C 1.570312 -21.394531 2.019531 -21.628906 2.5 -21.828125 C 2.976562 -22.035156 3.488281 -22.203125 4.03125 -22.328125 C 4.582031 -22.460938 5.164062 -22.53125 5.78125 -22.53125 C 6.394531 -22.53125 6.921875 -22.445312 7.359375 -22.28125 C 7.804688 -22.113281 8.171875 -21.894531 8.453125 -21.625 C 8.734375 -21.363281 8.953125 -21.066406 9.109375 -20.734375 C 9.273438 -20.398438 9.394531 -20.0625 9.46875 -19.71875 C 9.550781 -19.375 9.597656 -19.046875 9.609375 -18.734375 C 9.628906 -18.429688 9.640625 -18.171875 9.640625 -17.953125 Z M 9.640625 -17.953125 "/></g></g></g><g fill="#442a00" fill-opacity="1"><g transform="translate(132.971747, 84.831187)"><g><path d="M 9.640625 -1.953125 C 9.640625 -1.765625 9.601562 -1.535156 9.53125 -1.265625 C 9.46875 -1.003906 9.316406 -0.753906 9.078125 -0.515625 C 8.835938 -0.273438 8.492188 -0.0703125 8.046875 0.09375 C 7.597656 0.257812 6.992188 0.34375 6.234375 0.34375 C 5.460938 0.34375 4.859375 0.25 4.421875 0.0625 C 3.992188 -0.113281 3.671875 -0.320312 3.453125 -0.5625 C 3.234375 -0.8125 3.097656 -1.066406 3.046875 -1.328125 C 2.992188 -1.585938 2.96875 -1.796875 2.96875 -1.953125 L 2.96875 -18.703125 C 2.96875 -19.128906 2.867188 -19.492188 2.671875 -19.796875 C 2.484375 -20.109375 2.15625 -20.265625 1.6875 -20.265625 C 1.445312 -20.265625 1.238281 -20.222656 1.0625 -20.140625 C 0.882812 -20.054688 0.695312 -19.9375 0.5 -19.78125 L 0.046875 -20.3125 C 0.378906 -20.59375 0.75 -20.863281 1.15625 -21.125 C 1.570312 -21.394531 2.019531 -21.628906 2.5 -21.828125 C 2.976562 -22.035156 3.488281 -22.203125 4.03125 -22.328125 C 4.582031 -22.460938 5.164062 -22.53125 5.78125 -22.53125 C 6.71875 -22.53125 7.445312 -22.398438 7.96875 -22.140625 C 8.488281 -21.890625 8.867188 -21.578125 9.109375 -21.203125 C 9.359375 -20.835938 9.507812 -20.445312 9.5625 -20.03125 C 9.613281 -19.613281 9.640625 -19.242188 9.640625 -18.921875 Z M 2.296875 -27.484375 C 2.296875 -27.890625 2.382812 -28.273438 2.5625 -28.640625 C 2.75 -29.003906 3.003906 -29.320312 3.328125 -29.59375 C 3.648438 -29.875 4.023438 -30.09375 4.453125 -30.25 C 4.878906 -30.414062 5.347656 -30.5 5.859375 -30.5 C 6.347656 -30.5 6.804688 -30.414062 7.234375 -30.25 C 7.660156 -30.09375 8.03125 -29.875 8.34375 -29.59375 C 8.664062 -29.320312 8.914062 -29.003906 9.09375 -28.640625 C 9.28125 -28.273438 9.375 -27.890625 9.375 -27.484375 C 9.375 -27.054688 9.28125 -26.660156 9.09375 -26.296875 C 8.914062 -25.941406 8.664062 -25.628906 8.34375 -25.359375 C 8.03125 -25.097656 7.660156 -24.882812 7.234375 -24.71875 C 6.804688 -24.5625 6.347656 -24.484375 5.859375 -24.484375 C 5.347656 -24.484375 4.878906 -24.5625 4.453125 -24.71875 C 4.023438 -24.882812 3.648438 -25.097656 3.328125 -25.359375 C 3.003906 -25.628906 2.75 -25.941406 2.5625 -26.296875 C 2.382812 -26.660156 2.296875 -27.054688 2.296875 -27.484375 Z M 2.296875 -27.484375 "/></g></g></g><g fill="#442a00" fill-opacity="1"><g transform="translate(144.249403, 84.831187)"><g><path d="M 1.78125 -13.65625 C 1.78125 -15.125 2.035156 -16.410156 2.546875 -17.515625 C 3.066406 -18.628906 3.757812 -19.554688 4.625 -20.296875 C 5.488281 -21.046875 6.492188 -21.601562 7.640625 -21.96875 C 8.785156 -22.34375 9.988281 -22.53125 11.25 -22.53125 C 12.5 -22.53125 13.6875 -22.363281 14.8125 -22.03125 C 15.945312 -21.695312 16.953125 -21.179688 17.828125 -20.484375 C 18.097656 -20.910156 18.316406 -21.351562 18.484375 -21.8125 C 18.660156 -22.28125 18.75 -22.742188 18.75 -23.203125 C 18.75 -23.804688 18.585938 -24.289062 18.265625 -24.65625 C 17.941406 -25.019531 17.523438 -25.203125 17.015625 -25.203125 L 17.015625 -25.828125 C 17.335938 -25.929688 17.617188 -26.019531 17.859375 -26.09375 C 18.109375 -26.175781 18.332031 -26.238281 18.53125 -26.28125 C 18.738281 -26.320312 18.941406 -26.351562 19.140625 -26.375 C 19.347656 -26.40625 19.570312 -26.421875 19.8125 -26.421875 C 20.5 -26.421875 21.019531 -26.207031 21.375 -25.78125 C 21.738281 -25.363281 21.921875 -24.785156 21.921875 -24.046875 C 21.921875 -23.617188 21.816406 -23.191406 21.609375 -22.765625 C 21.410156 -22.335938 21.160156 -21.925781 20.859375 -21.53125 C 20.554688 -21.144531 20.21875 -20.773438 19.84375 -20.421875 C 19.476562 -20.078125 19.128906 -19.773438 18.796875 -19.515625 C 19.398438 -18.816406 19.867188 -18.003906 20.203125 -17.078125 C 20.535156 -16.148438 20.703125 -15.09375 20.703125 -13.90625 C 20.703125 -12.414062 20.445312 -11.097656 19.9375 -9.953125 C 19.425781 -8.816406 18.734375 -7.859375 17.859375 -7.078125 C 16.992188 -6.296875 15.988281 -5.703125 14.84375 -5.296875 C 13.695312 -4.898438 12.5 -4.703125 11.25 -4.703125 C 10.507812 -4.703125 9.785156 -4.765625 9.078125 -4.890625 C 8.367188 -5.023438 7.703125 -5.21875 7.078125 -5.46875 C 6.847656 -5.289062 6.648438 -5.070312 6.484375 -4.8125 C 6.316406 -4.550781 6.234375 -4.265625 6.234375 -3.953125 C 6.234375 -3.410156 6.460938 -3.007812 6.921875 -2.75 C 7.390625 -2.488281 8.003906 -2.300781 8.765625 -2.1875 C 9.535156 -2.070312 10.40625 -2 11.375 -1.96875 C 12.34375 -1.945312 13.335938 -1.898438 14.359375 -1.828125 C 15.378906 -1.765625 16.375 -1.640625 17.34375 -1.453125 C 18.3125 -1.273438 19.175781 -0.976562 19.9375 -0.5625 C 20.707031 -0.15625 21.320312 0.398438 21.78125 1.109375 C 22.25 1.816406 22.484375 2.734375 22.484375 3.859375 C 22.484375 4.679688 22.304688 5.421875 21.953125 6.078125 C 21.609375 6.742188 21.144531 7.328125 20.5625 7.828125 C 19.976562 8.328125 19.296875 8.753906 18.515625 9.109375 C 17.742188 9.460938 16.925781 9.75 16.0625 9.96875 C 15.207031 10.195312 14.332031 10.359375 13.4375 10.453125 C 12.550781 10.554688 11.703125 10.609375 10.890625 10.609375 C 9.421875 10.609375 8.09375 10.53125 6.90625 10.375 C 5.726562 10.226562 4.726562 9.992188 3.90625 9.671875 C 3.082031 9.359375 2.445312 8.945312 2 8.4375 C 1.550781 7.9375 1.328125 7.332031 1.328125 6.625 C 1.328125 6.113281 1.441406 5.644531 1.671875 5.21875 C 1.898438 4.789062 2.207031 4.398438 2.59375 4.046875 C 2.976562 3.691406 3.410156 3.375 3.890625 3.09375 C 4.367188 2.8125 4.851562 2.546875 5.34375 2.296875 C 4.613281 1.992188 4.003906 1.535156 3.515625 0.921875 C 3.035156 0.304688 2.796875 -0.503906 2.796875 -1.515625 C 2.796875 -2.054688 2.890625 -2.550781 3.078125 -3 C 3.265625 -3.457031 3.503906 -3.878906 3.796875 -4.265625 C 4.097656 -4.648438 4.425781 -5 4.78125 -5.3125 C 5.132812 -5.625 5.476562 -5.882812 5.8125 -6.09375 C 5.21875 -6.445312 4.671875 -6.875 4.171875 -7.375 C 3.671875 -7.875 3.242188 -8.4375 2.890625 -9.0625 C 2.535156 -9.6875 2.257812 -10.382812 2.0625 -11.15625 C 1.875 -11.925781 1.78125 -12.757812 1.78125 -13.65625 Z M 14.171875 -13.828125 C 14.171875 -14.660156 14.125 -15.472656 14.03125 -16.265625 C 13.945312 -17.066406 13.796875 -17.78125 13.578125 -18.40625 C 13.367188 -19.03125 13.078125 -19.53125 12.703125 -19.90625 C 12.328125 -20.289062 11.84375 -20.484375 11.25 -20.484375 C 10.65625 -20.484375 10.164062 -20.285156 9.78125 -19.890625 C 9.40625 -19.492188 9.109375 -18.972656 8.890625 -18.328125 C 8.679688 -17.679688 8.53125 -16.945312 8.4375 -16.125 C 8.351562 -15.3125 8.3125 -14.488281 8.3125 -13.65625 C 8.3125 -12.800781 8.351562 -11.957031 8.4375 -11.125 C 8.53125 -10.300781 8.679688 -9.5625 8.890625 -8.90625 C 9.109375 -8.257812 9.40625 -7.738281 9.78125 -7.34375 C 10.164062 -6.945312 10.65625 -6.75 11.25 -6.75 C 11.84375 -6.75 12.328125 -6.957031 12.703125 -7.375 C 13.078125 -7.800781 13.367188 -8.347656 13.578125 -9.015625 C 13.796875 -9.691406 13.945312 -10.445312 14.03125 -11.28125 C 14.125 -12.125 14.171875 -12.972656 14.171875 -13.828125 Z M 17.46875 5.59375 C 17.46875 5.132812 17.285156 4.753906 16.921875 4.453125 C 16.566406 4.160156 16.09375 3.921875 15.5 3.734375 C 14.914062 3.554688 14.25 3.421875 13.5 3.328125 C 12.757812 3.234375 12.003906 3.160156 11.234375 3.109375 C 10.472656 3.054688 9.726562 3.007812 9 2.96875 C 8.28125 2.925781 7.65625 2.867188 7.125 2.796875 C 6.8125 3.015625 6.515625 3.25 6.234375 3.5 C 5.953125 3.757812 5.707031 4.03125 5.5 4.3125 C 5.289062 4.59375 5.117188 4.890625 4.984375 5.203125 C 4.859375 5.515625 4.796875 5.828125 4.796875 6.140625 C 4.796875 6.691406 4.953125 7.148438 5.265625 7.515625 C 5.585938 7.890625 6.019531 8.179688 6.5625 8.390625 C 7.101562 8.609375 7.734375 8.757812 8.453125 8.84375 C 9.171875 8.9375 9.925781 8.984375 10.71875 8.984375 C 11.78125 8.984375 12.726562 8.890625 13.5625 8.703125 C 14.40625 8.523438 15.113281 8.28125 15.6875 7.96875 C 16.269531 7.664062 16.710938 7.3125 17.015625 6.90625 C 17.316406 6.5 17.46875 6.0625 17.46875 5.59375 Z M 17.46875 5.59375 "/></g></g></g><g fill="#442a00" fill-opacity="1"><g transform="translate(165.789705, 84.831187)"><g><path d="M 21.6875 -3.78125 C 21.6875 -3.644531 21.691406 -3.5 21.703125 -3.34375 C 21.722656 -3.195312 21.757812 -3.054688 21.8125 -2.921875 C 21.875 -2.785156 21.960938 -2.671875 22.078125 -2.578125 C 22.191406 -2.492188 22.359375 -2.453125 22.578125 -2.453125 C 22.847656 -2.453125 23.09375 -2.546875 23.3125 -2.734375 C 23.53125 -2.929688 23.734375 -3.132812 23.921875 -3.34375 L 24.4375 -2.890625 C 24.21875 -2.585938 23.945312 -2.25 23.625 -1.875 C 23.300781 -1.507812 22.90625 -1.160156 22.4375 -0.828125 C 21.976562 -0.492188 21.453125 -0.21875 20.859375 0 C 20.265625 0.226562 19.59375 0.34375 18.84375 0.34375 C 18.207031 0.34375 17.648438 0.257812 17.171875 0.09375 C 16.703125 -0.0703125 16.304688 -0.296875 15.984375 -0.578125 C 15.660156 -0.859375 15.414062 -1.191406 15.25 -1.578125 C 15.09375 -1.960938 15.015625 -2.367188 15.015625 -2.796875 L 15.015625 -3.78125 C 14.296875 -3 13.535156 -2.3125 12.734375 -1.71875 C 12.390625 -1.457031 12.019531 -1.203125 11.625 -0.953125 C 11.238281 -0.710938 10.835938 -0.492188 10.421875 -0.296875 C 10.003906 -0.0976562 9.566406 0.0546875 9.109375 0.171875 C 8.660156 0.285156 8.210938 0.34375 7.765625 0.34375 C 6.898438 0.34375 6.160156 0.1875 5.546875 -0.125 C 4.929688 -0.4375 4.4375 -0.84375 4.0625 -1.34375 C 3.6875 -1.851562 3.410156 -2.425781 3.234375 -3.0625 C 3.054688 -3.695312 2.96875 -4.332031 2.96875 -4.96875 L 2.96875 -18.40625 C 2.96875 -18.539062 2.960938 -18.679688 2.953125 -18.828125 C 2.941406 -18.984375 2.90625 -19.128906 2.84375 -19.265625 C 2.78125 -19.398438 2.691406 -19.507812 2.578125 -19.59375 C 2.460938 -19.6875 2.296875 -19.734375 2.078125 -19.734375 C 1.816406 -19.734375 1.570312 -19.632812 1.34375 -19.4375 C 1.125 -19.238281 0.929688 -19.039062 0.765625 -18.84375 L 0.21875 -19.296875 C 0.4375 -19.597656 0.707031 -19.929688 1.03125 -20.296875 C 1.351562 -20.671875 1.742188 -21.023438 2.203125 -21.359375 C 2.671875 -21.691406 3.203125 -21.96875 3.796875 -22.1875 C 4.398438 -22.414062 5.070312 -22.53125 5.8125 -22.53125 C 6.445312 -22.53125 7.003906 -22.445312 7.484375 -22.28125 C 7.960938 -22.113281 8.359375 -21.890625 8.671875 -21.609375 C 8.992188 -21.328125 9.234375 -20.992188 9.390625 -20.609375 C 9.554688 -20.222656 9.640625 -19.816406 9.640625 -19.390625 L 9.640625 -4.890625 C 9.640625 -4.679688 9.671875 -4.472656 9.734375 -4.265625 C 9.796875 -4.054688 9.890625 -3.863281 10.015625 -3.6875 C 10.140625 -3.507812 10.296875 -3.367188 10.484375 -3.265625 C 10.671875 -3.160156 10.894531 -3.109375 11.15625 -3.109375 C 11.570312 -3.109375 11.988281 -3.210938 12.40625 -3.421875 C 12.832031 -3.640625 13.21875 -3.894531 13.5625 -4.1875 C 13.914062 -4.488281 14.21875 -4.785156 14.46875 -5.078125 C 14.71875 -5.367188 14.898438 -5.585938 15.015625 -5.734375 L 15.015625 -18.40625 C 15.015625 -18.539062 15.007812 -18.679688 15 -18.828125 C 14.988281 -18.984375 14.953125 -19.128906 14.890625 -19.265625 C 14.828125 -19.398438 14.738281 -19.507812 14.625 -19.59375 C 14.507812 -19.6875 14.34375 -19.734375 14.125 -19.734375 C 13.863281 -19.734375 13.617188 -19.632812 13.390625 -19.4375 C 13.171875 -19.238281 12.976562 -19.039062 12.8125 -18.84375 L 12.265625 -19.296875 C 12.484375 -19.597656 12.753906 -19.929688 13.078125 -20.296875 C 13.398438 -20.671875 13.789062 -21.023438 14.25 -21.359375 C 14.71875 -21.691406 15.25 -21.96875 15.84375 -22.1875 C 16.445312 -22.414062 17.117188 -22.53125 17.859375 -22.53125 C 18.492188 -22.53125 19.050781 -22.445312 19.53125 -22.28125 C 20.007812 -22.113281 20.40625 -21.890625 20.71875 -21.609375 C 21.039062 -21.328125 21.28125 -20.992188 21.4375 -20.609375 C 21.601562 -20.222656 21.6875 -19.816406 21.6875 -19.390625 Z M 21.6875 -3.78125 "/></g></g></g><g fill="#442a00" fill-opacity="1"><g transform="translate(189.347828, 84.831187)"><g><path d="M 9.640625 -1.953125 C 9.640625 -1.765625 9.601562 -1.535156 9.53125 -1.265625 C 9.46875 -1.003906 9.316406 -0.753906 9.078125 -0.515625 C 8.835938 -0.273438 8.492188 -0.0703125 8.046875 0.09375 C 7.597656 0.257812 6.992188 0.34375 6.234375 0.34375 C 5.460938 0.34375 4.859375 0.25 4.421875 0.0625 C 3.992188 -0.113281 3.671875 -0.320312 3.453125 -0.5625 C 3.234375 -0.8125 3.097656 -1.066406 3.046875 -1.328125 C 2.992188 -1.585938 2.96875 -1.796875 2.96875 -1.953125 L 2.96875 -18.703125 C 2.96875 -19.128906 2.867188 -19.492188 2.671875 -19.796875 C 2.484375 -20.109375 2.15625 -20.265625 1.6875 -20.265625 C 1.445312 -20.265625 1.238281 -20.222656 1.0625 -20.140625 C 0.882812 -20.054688 0.695312 -19.9375 0.5 -19.78125 L 0.046875 -20.3125 C 0.378906 -20.59375 0.75 -20.863281 1.15625 -21.125 C 1.570312 -21.394531 2.019531 -21.628906 2.5 -21.828125 C 2.976562 -22.035156 3.488281 -22.203125 4.03125 -22.328125 C 4.582031 -22.460938 5.164062 -22.53125 5.78125 -22.53125 C 6.71875 -22.53125 7.445312 -22.398438 7.96875 -22.140625 C 8.488281 -21.890625 8.867188 -21.578125 9.109375 -21.203125 C 9.359375 -20.835938 9.507812 -20.445312 9.5625 -20.03125 C 9.613281 -19.613281 9.640625 -19.242188 9.640625 -18.921875 Z M 2.296875 -27.484375 C 2.296875 -27.890625 2.382812 -28.273438 2.5625 -28.640625 C 2.75 -29.003906 3.003906 -29.320312 3.328125 -29.59375 C 3.648438 -29.875 4.023438 -30.09375 4.453125 -30.25 C 4.878906 -30.414062 5.347656 -30.5 5.859375 -30.5 C 6.347656 -30.5 6.804688 -30.414062 7.234375 -30.25 C 7.660156 -30.09375 8.03125 -29.875 8.34375 -29.59375 C 8.664062 -29.320312 8.914062 -29.003906 9.09375 -28.640625 C 9.28125 -28.273438 9.375 -27.890625 9.375 -27.484375 C 9.375 -27.054688 9.28125 -26.660156 9.09375 -26.296875 C 8.914062 -25.941406 8.664062 -25.628906 8.34375 -25.359375 C 8.03125 -25.097656 7.660156 -24.882812 7.234375 -24.71875 C 6.804688 -24.5625 6.347656 -24.484375 5.859375 -24.484375 C 5.347656 -24.484375 4.878906 -24.5625 4.453125 -24.71875 C 4.023438 -24.882812 3.648438 -25.097656 3.328125 -25.359375 C 3.003906 -25.628906 2.75 -25.941406 2.5625 -26.296875 C 2.382812 -26.660156 2.296875 -27.054688 2.296875 -27.484375 Z M 2.296875 -27.484375 "/></g></g></g><g fill="#442a00" fill-opacity="1"><g transform="translate(200.625477, 84.831187)"><g><path d="M 14.765625 -11.78125 C 14.765625 -11.945312 14.765625 -12.269531 14.765625 -12.75 C 14.765625 -13.238281 14.75 -13.796875 14.71875 -14.421875 C 14.6875 -15.054688 14.632812 -15.726562 14.5625 -16.4375 C 14.488281 -17.144531 14.375 -17.800781 14.21875 -18.40625 C 13.875 -18.851562 13.488281 -19.253906 13.0625 -19.609375 C 12.632812 -19.960938 12.085938 -20.140625 11.421875 -20.140625 C 10.285156 -20.140625 9.453125 -19.398438 8.921875 -17.921875 C 8.398438 -16.453125 8.140625 -14.164062 8.140625 -11.0625 C 8.140625 -9.707031 8.203125 -8.460938 8.328125 -7.328125 C 8.453125 -6.203125 8.640625 -5.234375 8.890625 -4.421875 C 9.140625 -3.617188 9.460938 -2.988281 9.859375 -2.53125 C 10.265625 -2.082031 10.738281 -1.859375 11.28125 -1.859375 C 13.601562 -1.859375 14.765625 -5.164062 14.765625 -11.78125 Z M 14.5 -21.34375 C 14.226562 -22.78125 13.84375 -24.125 13.34375 -25.375 C 12.851562 -26.632812 12.265625 -27.71875 11.578125 -28.625 C 10.890625 -29.539062 10.109375 -30.257812 9.234375 -30.78125 C 8.359375 -31.300781 7.414062 -31.5625 6.40625 -31.5625 C 5.820312 -31.5625 5.296875 -31.488281 4.828125 -31.34375 C 4.359375 -31.195312 3.945312 -31.023438 3.59375 -30.828125 C 3.25 -30.640625 2.960938 -30.453125 2.734375 -30.265625 C 2.515625 -30.085938 2.351562 -29.953125 2.25 -29.859375 L 1.6875 -30.625 C 2.039062 -31.070312 2.46875 -31.488281 2.96875 -31.875 C 3.46875 -32.269531 4.007812 -32.601562 4.59375 -32.875 C 5.1875 -33.15625 5.8125 -33.375 6.46875 -33.53125 C 7.132812 -33.695312 7.789062 -33.78125 8.4375 -33.78125 C 10.582031 -33.78125 12.460938 -33.3125 14.078125 -32.375 C 15.703125 -31.4375 17.054688 -30.113281 18.140625 -28.40625 C 19.234375 -26.695312 20.050781 -24.632812 20.59375 -22.21875 C 21.144531 -19.8125 21.421875 -17.128906 21.421875 -14.171875 C 21.421875 -11.785156 21.175781 -9.6875 20.6875 -7.875 C 20.207031 -6.070312 19.519531 -4.554688 18.625 -3.328125 C 17.726562 -2.109375 16.640625 -1.191406 15.359375 -0.578125 C 14.078125 0.0351562 12.632812 0.34375 11.03125 0.34375 C 9.914062 0.34375 8.78125 0.144531 7.625 -0.25 C 6.476562 -0.644531 5.4375 -1.289062 4.5 -2.1875 C 3.570312 -3.082031 2.8125 -4.257812 2.21875 -5.71875 C 1.625 -7.175781 1.328125 -8.957031 1.328125 -11.0625 C 1.328125 -12.894531 1.582031 -14.519531 2.09375 -15.9375 C 2.601562 -17.351562 3.289062 -18.546875 4.15625 -19.515625 C 5.03125 -20.492188 6.039062 -21.238281 7.1875 -21.75 C 8.332031 -22.269531 9.539062 -22.53125 10.8125 -22.53125 C 11.300781 -22.53125 11.738281 -22.488281 12.125 -22.40625 C 12.519531 -22.332031 12.863281 -22.234375 13.15625 -22.109375 C 13.445312 -21.992188 13.695312 -21.867188 13.90625 -21.734375 C 14.125 -21.597656 14.320312 -21.46875 14.5 -21.34375 Z M 14.5 -21.34375 "/></g></g></g><g fill="#442a00" fill-opacity="1"><g transform="translate(222.361044, 84.831187)"><g><path d="M 8.3125 -9.96875 C 8.3125 -9.5 8.378906 -8.992188 8.515625 -8.453125 C 8.648438 -7.910156 8.847656 -7.363281 9.109375 -6.8125 C 9.367188 -6.257812 9.691406 -5.734375 10.078125 -5.234375 C 10.460938 -4.742188 10.90625 -4.300781 11.40625 -3.90625 C 11.90625 -3.519531 12.457031 -3.207031 13.0625 -2.96875 C 13.675781 -2.738281 14.34375 -2.625 15.0625 -2.625 C 15.570312 -2.625 16.039062 -2.679688 16.46875 -2.796875 C 16.90625 -2.910156 17.3125 -3.066406 17.6875 -3.265625 C 18.0625 -3.472656 18.421875 -3.710938 18.765625 -3.984375 C 19.117188 -4.253906 19.46875 -4.539062 19.8125 -4.84375 L 20.359375 -4.3125 C 20.023438 -3.863281 19.597656 -3.375 19.078125 -2.84375 C 18.554688 -2.3125 17.925781 -1.804688 17.1875 -1.328125 C 16.445312 -0.859375 15.582031 -0.46875 14.59375 -0.15625 C 13.613281 0.144531 12.5 0.296875 11.25 0.296875 C 9.988281 0.296875 8.757812 0.0703125 7.5625 -0.375 C 6.375 -0.832031 5.316406 -1.515625 4.390625 -2.421875 C 3.460938 -3.335938 2.71875 -4.472656 2.15625 -5.828125 C 1.601562 -7.191406 1.328125 -8.785156 1.328125 -10.609375 C 1.328125 -11.929688 1.492188 -13.140625 1.828125 -14.234375 C 2.160156 -15.335938 2.609375 -16.328125 3.171875 -17.203125 C 3.742188 -18.085938 4.410156 -18.863281 5.171875 -19.53125 C 5.929688 -20.195312 6.726562 -20.75 7.5625 -21.1875 C 8.40625 -21.632812 9.265625 -21.96875 10.140625 -22.1875 C 11.015625 -22.414062 11.859375 -22.53125 12.671875 -22.53125 C 13.742188 -22.53125 14.675781 -22.410156 15.46875 -22.171875 C 16.269531 -21.941406 16.929688 -21.628906 17.453125 -21.234375 C 17.984375 -20.847656 18.378906 -20.398438 18.640625 -19.890625 C 18.898438 -19.378906 19.03125 -18.84375 19.03125 -18.28125 C 19.03125 -17.59375 18.832031 -16.976562 18.4375 -16.4375 C 18.050781 -15.894531 17.535156 -15.421875 16.890625 -15.015625 Z M 12.671875 -14.375 C 12.859375 -14.488281 13.015625 -14.597656 13.140625 -14.703125 C 13.265625 -14.816406 13.363281 -14.945312 13.4375 -15.09375 C 13.507812 -15.25 13.5625 -15.4375 13.59375 -15.65625 C 13.632812 -15.882812 13.65625 -16.164062 13.65625 -16.5 C 13.65625 -16.851562 13.613281 -17.25 13.53125 -17.6875 C 13.457031 -18.132812 13.320312 -18.550781 13.125 -18.9375 C 12.9375 -19.332031 12.695312 -19.660156 12.40625 -19.921875 C 12.125 -20.179688 11.78125 -20.3125 11.375 -20.3125 C 10.851562 -20.3125 10.40625 -20.15625 10.03125 -19.84375 C 9.664062 -19.539062 9.363281 -19.140625 9.125 -18.640625 C 8.882812 -18.148438 8.695312 -17.585938 8.5625 -16.953125 C 8.425781 -16.328125 8.320312 -15.695312 8.25 -15.0625 C 8.175781 -14.425781 8.128906 -13.8125 8.109375 -13.21875 C 8.097656 -12.632812 8.09375 -12.144531 8.09375 -11.75 Z M 12.671875 -14.375 "/></g></g></g><g fill="#c25700" fill-opacity="1"><g transform="translate(239.762109, 91.815286)"><g><path d="M 0.09375 0 L 6.9375 -15.734375 L 11.84375 -15.734375 L 18.609375 0 L 14.328125 0 L 13.0625 -3.09375 L 5.609375 -3.09375 L 4.359375 0 Z M 6.453125 -5.765625 L 12.21875 -5.765625 L 9.390625 -12.796875 L 9.359375 -12.796875 Z M 6.453125 -5.765625 "/></g></g></g><g fill="#c25700" fill-opacity="1"><g transform="translate(260.824495, 91.815286)"><g><path d="M 1.171875 0 L 1.171875 -15.734375 L 5.265625 -15.734375 L 5.265625 0 Z M 1.171875 0 "/></g></g></g></svg>